<svg width="84" height="56" viewBox="0 0 84 56" fill="none" xmlns="http://www.w3.org/2000/svg">
<g clip-path="url(#clip0_132_1787)">
<path d="M32.6271 36C31.9244 36 31.2962 35.8329 30.7597 35.5028C29.5909 34.7837 28.9988 33.696 29 32.2701C29.0047 26.5492 29.0041 20.732 29.0036 15.1062C29.0036 12.9818 29.003 10.8579 29.0036 8.73344C29.0036 8.61948 29.0059 8.50493 29.0106 8.39216C29.0503 7.46101 29.4223 6.64737 30.1173 5.97543C30.5994 5.50897 31.2152 5.20253 32.0539 5.01063L32.1001 5H51.997L52.0839 5.06613C54.0187 5.55857 55 6.83218 55 8.85153V10.48C55 17.7142 55 24.9479 54.9982 32.1821V32.2258C54.9982 32.4815 54.9982 32.7454 54.9515 33.0153C54.6427 34.7978 53.19 35.9965 51.338 35.9976C49.2003 35.9988 47.0627 35.9988 44.925 35.9988H36.7954L34.3685 35.9982C33.7912 35.9982 33.2139 35.9988 32.6365 36H32.6271ZM32.7673 7.07899C31.6671 7.07899 31.0856 7.66531 31.085 8.77477V22.4202C31.085 25.6978 31.085 28.976 31.0862 32.2536V32.2707C31.0862 32.4183 31.0862 32.5577 31.1081 32.6775C31.2524 33.4664 31.8469 33.9192 32.7389 33.9192C35.8218 33.9198 38.9047 33.9198 41.987 33.9198C45.0699 33.9198 48.1528 33.9198 51.2351 33.9192C52.3359 33.9192 52.9173 33.3323 52.9173 32.2229C52.9173 24.4064 52.9173 16.59 52.9173 8.773C52.9173 7.66472 52.3353 7.0784 51.2339 7.0784C48.0818 7.0784 44.9285 7.07781 41.7764 7.07781C38.7734 7.07899 35.7709 7.07899 32.7673 7.07899Z" fill="#666666"/>
<path d="M39.498 28.4553C37.7135 28.4553 36.0342 27.7668 34.769 26.5174C33.5032 25.2668 32.7975 23.5964 32.7815 21.8145C32.7656 20.0189 33.4511 18.3278 34.7116 17.053C35.9715 15.7788 37.6614 15.0667 39.469 15.0479H39.4785C41.3145 15.0709 43.0163 15.7871 44.2708 17.0654C45.4893 18.3072 46.1707 19.9415 46.1903 21.6674C46.2098 23.4683 45.5254 25.1676 44.2631 26.4525C43.0098 27.7284 41.3382 28.4393 39.5566 28.4547L39.498 28.4553ZM37.0486 25.6583C37.7549 26.1112 38.6244 26.3645 39.5063 26.3645C40.3374 26.3645 41.1489 26.1407 41.854 25.7168C43.6196 24.6557 44.4808 22.5348 43.9491 20.5591C43.509 18.9248 42.0042 17.503 40.5278 17.2473C40.5278 17.5915 40.5272 17.9352 40.5272 18.2794C40.526 19.3641 40.5255 20.4853 40.532 21.5871C40.5343 21.9928 40.3947 22.3287 40.1055 22.6151C39.498 23.2156 38.8829 23.8297 38.2884 24.4231C37.8749 24.8352 37.4621 25.2473 37.0486 25.6583ZM38.4451 17.268C37.219 17.5136 35.8053 18.4878 35.1771 20.0773C34.5957 21.5482 34.905 23.2185 35.5669 24.1904L35.7615 23.9968C36.6381 23.1241 37.5437 22.2219 38.428 21.3279C38.4339 21.312 38.4398 21.2836 38.4398 21.2588C38.4463 20.4594 38.4457 19.6457 38.4451 18.8586L38.4446 18.1406V17.268H38.4451Z" fill="#666666"/>
<path d="M50.0077 32.2269H41.2216H33.9917C33.1068 32.2269 32.7874 31.6938 32.7832 31.1948C32.7785 30.6534 33.1636 30.2182 33.6995 30.1598C33.7965 30.1491 33.8899 30.1479 33.968 30.1479L34.0976 30.1485C35.6656 30.1485 41.3257 30.1485 41.3257 30.1485H46.1234C47.4335 30.1485 48.7443 30.1485 50.0545 30.1491C50.8642 30.1497 51.1848 30.6451 51.2156 31.108C51.2529 31.6737 50.856 32.1514 50.2923 32.2187C50.2242 32.2269 50.1609 32.2281 50.1142 32.2281C50.0947 32.2281 50.0077 32.2269 50.0077 32.2269Z" fill="#666666"/>
<path d="M48.1912 17.1426C48.0315 17.1426 47.8717 17.142 47.7126 17.1396C47.0868 17.1302 46.6284 16.6962 46.6231 16.1075C46.6207 15.8336 46.7225 15.5779 46.9106 15.3866C47.1123 15.1817 47.3956 15.0677 47.7085 15.0648C48.1095 15.0612 48.5194 15.0601 48.927 15.0601C49.3245 15.0601 49.7308 15.0618 50.1342 15.0648C50.7707 15.0695 51.2167 15.4929 51.2191 16.0939C51.2214 16.7027 50.7672 17.1326 50.1135 17.1402C49.9586 17.142 49.8042 17.1426 49.6492 17.1426C49.5274 17.1426 49.4049 17.142 49.2831 17.142C49.1648 17.1414 49.0471 17.1414 48.9288 17.1414H48.9217C48.8004 17.1414 48.6791 17.142 48.5579 17.142C48.4355 17.142 48.313 17.1426 48.1912 17.1426Z" fill="#666666"/>
<path d="M48.1925 20.914C48.0381 20.914 47.8831 20.9134 47.7287 20.9116C47.401 20.9075 47.1088 20.79 46.9048 20.5804C46.7184 20.3885 46.6185 20.1304 46.6232 19.8541C46.6333 19.269 47.0958 18.8409 47.7222 18.8362C48.1197 18.8332 48.5249 18.832 48.9259 18.832C49.3193 18.832 49.7203 18.8332 50.1178 18.8362C50.4549 18.8385 50.7395 18.9478 50.9394 19.1521C51.1263 19.3422 51.2227 19.5967 51.218 19.8878C51.2091 20.4948 50.7584 20.9063 50.0971 20.9122C49.9439 20.9134 49.7901 20.914 49.6369 20.914C49.5139 20.914 49.3908 20.914 49.2684 20.9134C49.1501 20.9134 48.9052 20.9128 48.9052 20.9128C48.7869 20.9128 48.6686 20.9134 48.5503 20.9134C48.4308 20.914 48.3119 20.914 48.1925 20.914Z" fill="#666666"/>
<path d="M48.9228 24.6871C48.5164 24.6871 48.1083 24.6854 47.7102 24.6824C47.0897 24.6777 46.6225 24.2295 46.623 23.6402C46.6236 23.0522 47.0815 22.6182 47.7102 22.6075C47.8557 22.6052 48.0113 22.604 48.2 22.604C48.3266 22.604 48.4532 22.6046 48.5797 22.6052C48.7051 22.6058 48.8305 22.6064 48.9565 22.6064C49.0807 22.6064 49.1996 22.6058 49.3179 22.6052C49.438 22.6046 49.5575 22.604 49.6776 22.604C49.8574 22.604 50.0058 22.6052 50.1443 22.6075C50.7795 22.6194 51.2214 23.0463 51.219 23.6462C51.2167 24.2419 50.7612 24.6783 50.1354 24.6824C49.729 24.6854 49.3209 24.6871 48.9228 24.6871Z" fill="#666666"/>
<path d="M48.9175 28.4581C48.5088 28.4581 48.1018 28.4563 47.7079 28.4534C47.0868 28.4487 46.6201 27.9993 46.6231 27.4083C46.626 26.822 47.0838 26.3892 47.712 26.3785C47.854 26.3762 48.0054 26.375 48.1882 26.375C48.313 26.375 48.4384 26.3756 48.5632 26.3762C48.685 26.3768 48.8069 26.3774 48.9287 26.3774C49.0506 26.3774 49.173 26.3768 49.2949 26.3762C49.4179 26.3756 49.5415 26.375 49.6646 26.375C49.8497 26.375 50.0029 26.3762 50.146 26.3791C50.7813 26.3909 51.2226 26.819 51.219 27.4201C51.2155 28.0147 50.7588 28.4499 50.1336 28.454C49.7219 28.4569 49.3126 28.4581 48.9175 28.4581Z" fill="#666666"/>
</g>
<path d="M19.0682 53V43.5455H22.2628C23.0015 43.5455 23.6078 43.6716 24.0817 43.924C24.5557 44.1733 24.9065 44.5165 25.1343 44.9535C25.362 45.3905 25.4759 45.8875 25.4759 46.4446C25.4759 47.0017 25.362 47.4956 25.1343 47.9265C24.9065 48.3574 24.5572 48.6959 24.0863 48.9421C23.6155 49.1853 23.0138 49.3068 22.2813 49.3068H19.6961V48.2727H22.2444C22.7491 48.2727 23.1553 48.1989 23.4631 48.0511C23.774 47.9034 23.9986 47.6941 24.1371 47.4233C24.2787 47.1494 24.3495 46.8232 24.3495 46.4446C24.3495 46.0661 24.2787 45.7352 24.1371 45.4521C23.9955 45.1689 23.7693 44.9504 23.4585 44.7965C23.1477 44.6396 22.7368 44.5611 22.2259 44.5611H20.2131V53H19.0682ZM23.5185 48.7528L25.8452 53H24.5157L22.2259 48.7528H23.5185ZM30.1328 53.1477C29.4495 53.1477 28.8602 52.9969 28.3647 52.6953C27.8722 52.3906 27.4921 51.9659 27.2244 51.4212C26.9597 50.8733 26.8274 50.2363 26.8274 49.5099C26.8274 48.7836 26.9597 48.1435 27.2244 47.5895C27.4921 47.0324 27.8645 46.5985 28.3416 46.2876C28.8217 45.9737 29.3818 45.8168 30.022 45.8168C30.3913 45.8168 30.756 45.8783 31.1161 46.0014C31.4762 46.1245 31.8039 46.3246 32.0994 46.6016C32.3948 46.8755 32.6303 47.2386 32.8057 47.6911C32.9811 48.1435 33.0688 48.7005 33.0688 49.3622V49.8239H27.6029V48.8821H31.9609C31.9609 48.482 31.8809 48.125 31.7208 47.8111C31.5639 47.4972 31.3392 47.2494 31.0468 47.0678C30.7575 46.8862 30.4159 46.7955 30.022 46.7955C29.588 46.7955 29.2126 46.9032 28.8956 47.1186C28.5816 47.331 28.34 47.608 28.1708 47.9496C28.0015 48.2912 27.9169 48.6574 27.9169 49.0483V49.6761C27.9169 50.2116 28.0092 50.6656 28.1938 51.038C28.3816 51.4073 28.6416 51.6889 28.974 51.8828C29.3064 52.0736 29.6927 52.169 30.1328 52.169C30.419 52.169 30.6775 52.129 30.9083 52.049C31.1422 51.9659 31.3438 51.8428 31.5131 51.6797C31.6824 51.5135 31.8132 51.3073 31.9055 51.0611L32.9581 51.3565C32.8473 51.7135 32.6611 52.0275 32.3995 52.2983C32.1379 52.5661 31.8147 52.7753 31.43 52.9261C31.0453 53.0739 30.6129 53.1477 30.1328 53.1477ZM34.7262 55.6591V45.9091H35.7787V47.0355H35.908C35.988 46.9124 36.0988 46.7554 36.2404 46.5646C36.385 46.3707 36.5912 46.1984 36.859 46.0476C37.1298 45.8937 37.496 45.8168 37.9577 45.8168C38.5548 45.8168 39.081 45.966 39.5365 46.2646C39.992 46.5631 40.3475 46.9863 40.6029 47.5341C40.8584 48.0819 40.9861 48.7282 40.9861 49.473C40.9861 50.224 40.8584 50.8749 40.6029 51.4258C40.3475 51.9736 39.9936 52.3983 39.5411 52.6999C39.0887 52.9985 38.5671 53.1477 37.9762 53.1477C37.5207 53.1477 37.156 53.0723 36.8821 52.9215C36.6081 52.7676 36.3973 52.5937 36.2496 52.3999C36.1019 52.2029 35.988 52.0398 35.908 51.9105H35.8157V55.6591H34.7262ZM35.7972 49.4545C35.7972 49.9901 35.8757 50.4625 36.0326 50.8718C36.1896 51.2781 36.4189 51.5966 36.7205 51.8274C37.0221 52.0552 37.3914 52.169 37.8284 52.169C38.2839 52.169 38.664 52.049 38.9687 51.8089C39.2765 51.5658 39.5073 51.2396 39.6612 50.8303C39.8181 50.4179 39.8966 49.9593 39.8966 49.4545C39.8966 48.956 39.8197 48.5066 39.6658 48.1065C39.515 47.7034 39.2857 47.3848 38.9779 47.1509C38.6733 46.9139 38.2901 46.7955 37.8284 46.7955C37.3853 46.7955 37.0129 46.9078 36.7112 47.1325C36.4096 47.354 36.1819 47.6649 36.028 48.065C35.8741 48.462 35.7972 48.9252 35.7972 49.4545ZM45.5287 53.1477C44.8886 53.1477 44.3269 52.9954 43.8437 52.6907C43.3636 52.386 42.9881 51.9598 42.7173 51.4119C42.4495 50.8641 42.3157 50.224 42.3157 49.4915C42.3157 48.7528 42.4495 48.1081 42.7173 47.5572C42.9881 47.0063 43.3636 46.5785 43.8437 46.2738C44.3269 45.9691 44.8886 45.8168 45.5287 45.8168C46.1689 45.8168 46.729 45.9691 47.2091 46.2738C47.6923 46.5785 48.0678 47.0063 48.3355 47.5572C48.6064 48.1081 48.7418 48.7528 48.7418 49.4915C48.7418 50.224 48.6064 50.8641 48.3355 51.4119C48.0678 51.9598 47.6923 52.386 47.2091 52.6907C46.729 52.9954 46.1689 53.1477 45.5287 53.1477ZM45.5287 52.169C46.015 52.169 46.4151 52.0444 46.729 51.7951C47.0429 51.5458 47.2753 51.218 47.4261 50.8118C47.5769 50.4055 47.6523 49.9654 47.6523 49.4915C47.6523 49.0175 47.5769 48.5759 47.4261 48.1665C47.2753 47.7572 47.0429 47.4264 46.729 47.174C46.4151 46.9216 46.015 46.7955 45.5287 46.7955C45.0425 46.7955 44.6424 46.9216 44.3284 47.174C44.0145 47.4264 43.7822 47.7572 43.6313 48.1665C43.4805 48.5759 43.4051 49.0175 43.4051 49.4915C43.4051 49.9654 43.4805 50.4055 43.6313 50.8118C43.7822 51.218 44.0145 51.5458 44.3284 51.7951C44.6424 52.0444 45.0425 52.169 45.5287 52.169ZM50.4049 53V45.9091H51.4574V46.9801H51.5313C51.6606 46.6293 51.8945 46.3446 52.233 46.1261C52.5715 45.9076 52.9532 45.7983 53.3779 45.7983C53.4579 45.7983 53.5579 45.7998 53.678 45.8029C53.798 45.806 53.8888 45.8106 53.9503 45.8168V46.9247C53.9134 46.9155 53.8288 46.9016 53.6964 46.8832C53.5672 46.8616 53.4302 46.8509 53.2856 46.8509C52.9409 46.8509 52.6331 46.9232 52.3623 47.0678C52.0945 47.2094 51.8821 47.4064 51.7252 47.6587C51.5713 47.908 51.4944 48.1927 51.4944 48.5128V53H50.4049ZM58.7699 45.9091V46.8324H55.0952V45.9091H58.7699ZM56.1662 44.2102H57.2557V50.9688C57.2557 51.2765 57.3004 51.5073 57.3896 51.6612C57.4819 51.812 57.5989 51.9136 57.7405 51.9659C57.8851 52.0152 58.0374 52.0398 58.1975 52.0398C58.3175 52.0398 58.416 52.0336 58.4929 52.0213C58.5699 52.0059 58.6314 51.9936 58.6776 51.9844L58.8992 52.9631C58.8253 52.9908 58.7222 53.0185 58.5899 53.0462C58.4575 53.0769 58.2898 53.0923 58.0867 53.0923C57.7789 53.0923 57.4773 53.0262 57.1819 52.8938C56.8895 52.7615 56.6464 52.5599 56.4525 52.2891C56.2616 52.0182 56.1662 51.6766 56.1662 51.2642V44.2102ZM65.3046 47.4972L64.3259 47.7741C64.2643 47.611 64.1735 47.4525 64.0535 47.2987C63.9365 47.1417 63.7765 47.0124 63.5734 46.9109C63.3703 46.8093 63.1102 46.7585 62.7932 46.7585C62.3592 46.7585 61.9976 46.8585 61.7083 47.0586C61.4221 47.2556 61.279 47.5064 61.279 47.8111C61.279 48.0819 61.3775 48.2958 61.5744 48.4528C61.7714 48.6097 62.0792 48.7405 62.4977 48.8452L63.5503 49.1037C64.1843 49.2576 64.6567 49.493 64.9676 49.81C65.2784 50.1239 65.4338 50.5286 65.4338 51.0241C65.4338 51.4304 65.3169 51.7936 65.083 52.1136C64.8521 52.4337 64.529 52.6861 64.1135 52.8707C63.698 53.0554 63.2148 53.1477 62.6639 53.1477C61.9407 53.1477 61.3421 52.9908 60.8681 52.6768C60.3942 52.3629 60.0941 51.9044 59.9679 51.3011L61.002 51.0426C61.1005 51.4242 61.2867 51.7105 61.5606 51.9013C61.8376 52.0921 62.1992 52.1875 62.6455 52.1875C63.1533 52.1875 63.5564 52.0798 63.855 51.8643C64.1566 51.6458 64.3074 51.3842 64.3074 51.0795C64.3074 50.8333 64.2212 50.6271 64.0489 50.4609C63.8765 50.2917 63.6118 50.1655 63.2548 50.0824L62.073 49.8054C61.4236 49.6515 60.9466 49.413 60.6419 49.0898C60.3403 48.7636 60.1895 48.3558 60.1895 47.8665C60.1895 47.4664 60.3018 47.1125 60.5265 46.8047C60.7542 46.4969 61.0636 46.2553 61.4544 46.0799C61.8484 45.9045 62.2946 45.8168 62.7932 45.8168C63.4949 45.8168 64.0458 45.9706 64.4459 46.2784C64.8491 46.5862 65.1353 46.9924 65.3046 47.4972Z" fill="#263238"/>
<defs>
<clipPath id="clip0_132_1787">
<rect width="26" height="31" fill="white" transform="translate(29 5)"/>
</clipPath>
</defs>
</svg>
