<svg width="60" height="56" viewBox="0 0 60 56" fill="none" xmlns="http://www.w3.org/2000/svg">
<g clip-path="url(#clip0_132_1808)">
<path d="M31.1994 7C29.4151 7 27.6308 7.00123 25.8465 7.0037C23.2136 7.0074 21.1438 8.73576 20.6948 11.3033C20.6281 11.685 20.6251 12.0907 20.6226 12.4823C20.622 12.5939 20.6207 12.7055 20.6189 12.8171C20.6078 13.3973 20.6103 13.9726 20.6177 14.6589C20.6257 15.3989 21.1277 15.9359 21.8111 15.9359C22.4981 15.9341 22.9965 15.3939 22.9996 14.6509C23.0014 14.1804 23.0008 13.71 23.0002 13.2401C23.0002 12.9213 22.9996 12.6019 23.0002 12.2831C23.002 10.5418 24.177 9.37148 25.9236 9.37025C27.5284 9.36902 29.1338 9.36902 30.7386 9.36902L37.2448 9.36963C37.4039 9.36963 37.563 9.36902 37.7222 9.3684C37.8813 9.36778 38.041 9.36717 38.2002 9.36717C38.3951 9.36717 38.5893 9.36778 38.7842 9.37025C40.4415 9.38937 41.6108 10.5572 41.6269 12.2104C41.6343 12.9361 41.6324 13.6736 41.6306 14.387C41.6299 14.7076 41.6287 15.0283 41.6287 15.3489V18.7674C41.6287 21.7493 41.6293 24.7313 41.6275 27.7132C41.6269 29.0685 40.9182 30.0995 39.7322 30.4719C39.43 30.5669 39.0827 30.6174 38.7287 30.618C36.4116 30.623 33.9427 30.6254 31.1802 30.6254C29.42 30.6254 27.6598 30.6242 25.8996 30.623C24.1683 30.6223 23.0027 29.4551 23.0002 27.72C22.9996 27.4036 23.0002 27.0879 23.0002 26.7716C23.0008 26.2962 23.0014 25.8048 22.999 25.3213C22.9953 24.5956 22.5006 24.0647 21.8216 24.0591H21.8105C21.1345 24.0591 20.6226 24.5913 20.6201 25.2967C20.6195 25.4915 20.6183 25.6864 20.6164 25.8806C20.6103 26.7161 20.6035 27.58 20.6651 28.4217C20.7503 29.5901 21.2936 30.7093 22.1959 31.5744C23.0976 32.4383 24.2399 32.9359 25.4123 32.9753C25.9137 32.992 26.4645 33 27.1466 33C27.4957 33 27.8442 32.9982 28.1933 32.9963C28.5424 32.9945 28.8921 32.9926 29.2411 32.9926C29.2411 32.9926 30.7966 32.9938 31.5528 32.9945C32.6604 32.9957 33.7688 32.9963 34.8765 32.9963C36.3887 32.9963 37.6426 32.9945 38.8206 32.9908C41.3339 32.9827 43.3704 31.3456 43.8885 28.9174C43.9792 28.4926 43.9921 28.0388 43.9934 27.691C44.0008 25.748 43.9995 23.7724 43.9983 21.8622C43.9983 21.2425 43.9977 20.6222 43.9977 20.0025C43.9977 19.1996 43.9983 18.3974 43.9995 17.5946C44.0014 15.8132 44.0038 13.9714 43.9946 12.1604C43.9822 9.66622 42.3491 7.63881 39.9314 7.1153C39.6014 7.04378 39.2209 7.00863 38.767 7.00802C36.1642 7.00247 33.6183 7 31.1994 7Z" fill="#666666"/>
<path d="M29.6694 14.8733C29.3585 14.8733 29.0643 14.9991 28.8404 15.2272C28.3649 15.7113 28.389 16.4364 28.8978 16.9513C29.2586 17.3169 29.6237 17.6801 30.0104 18.0649C30.1856 18.2387 30.3651 18.4176 30.5507 18.6032L30.7616 18.814H26.0724C24.0748 18.814 21.7194 18.8147 19.3911 18.8177C19.2061 18.8177 18.9674 18.827 18.7657 18.8948C18.2353 19.0743 17.9263 19.6126 18.0151 20.2051C18.0935 20.7292 18.5647 21.1467 19.1111 21.1769C19.1894 21.1812 19.2671 21.1818 19.3393 21.1818H19.4738H30.6648L30.5119 21.3804C30.4878 21.4118 30.4674 21.4396 30.4489 21.4649C30.4119 21.516 30.3799 21.5604 30.3392 21.6005C30.1344 21.8058 29.9296 22.0106 29.7243 22.2153C29.4547 22.4835 29.1766 22.7616 28.9046 23.036C28.64 23.3036 28.4951 23.6335 28.4969 23.964C28.4988 24.2698 28.6221 24.5522 28.854 24.7804C29.076 24.9993 29.3641 25.1201 29.665 25.1201C29.995 25.1201 30.3188 24.9783 30.5778 24.7212C31.9483 23.3585 33.2077 22.0993 34.427 20.8717C34.9463 20.3488 34.9494 19.6483 34.4338 19.1285C33.2003 17.8854 31.8977 16.5831 30.5624 15.2581C30.312 15.0096 29.995 14.8733 29.6694 14.8733Z" fill="#666666"/>
</g>
<path d="M9.63268 53V43.5455H10.7776V51.9844H15.1725V53H9.63268ZM19.6781 53.1477C19.038 53.1477 18.4763 52.9954 17.9931 52.6907C17.513 52.386 17.1375 51.9598 16.8667 51.4119C16.5989 50.8641 16.4651 50.224 16.4651 49.4915C16.4651 48.7528 16.5989 48.1081 16.8667 47.5572C17.1375 47.0063 17.513 46.5785 17.9931 46.2738C18.4763 45.9691 19.038 45.8168 19.6781 45.8168C20.3183 45.8168 20.8784 45.9691 21.3585 46.2738C21.8417 46.5785 22.2172 47.0063 22.485 47.5572C22.7558 48.1081 22.8912 48.7528 22.8912 49.4915C22.8912 50.224 22.7558 50.8641 22.485 51.4119C22.2172 51.9598 21.8417 52.386 21.3585 52.6907C20.8784 52.9954 20.3183 53.1477 19.6781 53.1477ZM19.6781 52.169C20.1644 52.169 20.5645 52.0444 20.8784 51.7951C21.1923 51.5458 21.4247 51.218 21.5755 50.8118C21.7263 50.4055 21.8017 49.9654 21.8017 49.4915C21.8017 49.0175 21.7263 48.5759 21.5755 48.1665C21.4247 47.7572 21.1923 47.4264 20.8784 47.174C20.5645 46.9216 20.1644 46.7955 19.6781 46.7955C19.1919 46.7955 18.7918 46.9216 18.4778 47.174C18.1639 47.4264 17.9316 47.7572 17.7808 48.1665C17.63 48.5759 17.5546 49.0175 17.5546 49.4915C17.5546 49.9654 17.63 50.4055 17.7808 50.8118C17.9316 51.218 18.1639 51.5458 18.4778 51.7951C18.7918 52.0444 19.1919 52.169 19.6781 52.169ZM27.4165 55.8068C26.8902 55.8068 26.4378 55.7391 26.0593 55.6037C25.6807 55.4714 25.3652 55.2959 25.1129 55.0774C24.8636 54.862 24.6651 54.6312 24.5174 54.3849L25.3853 53.7756C25.4837 53.9048 25.6084 54.0526 25.7592 54.2188C25.91 54.388 26.1162 54.5342 26.3778 54.6573C26.6425 54.7835 26.9887 54.8466 27.4165 54.8466C27.9889 54.8466 28.4614 54.7081 28.8338 54.4311C29.2062 54.1541 29.3924 53.7202 29.3924 53.1293V51.6889H29.3C29.22 51.8182 29.1061 51.9782 28.9584 52.169C28.8138 52.3568 28.6045 52.5245 28.3306 52.6722C28.0597 52.8169 27.6935 52.8892 27.2318 52.8892C26.6594 52.8892 26.1454 52.7538 25.6899 52.483C25.2375 52.2121 24.879 51.8182 24.6143 51.3011C24.3527 50.7841 24.2219 50.1562 24.2219 49.4176C24.2219 48.6913 24.3496 48.0588 24.6051 47.5202C24.8605 46.9786 25.216 46.56 25.6715 46.2646C26.127 45.966 26.6532 45.8168 27.2503 45.8168C27.712 45.8168 28.0782 45.8937 28.349 46.0476C28.6229 46.1984 28.8322 46.3707 28.9769 46.5646C29.1246 46.7554 29.2385 46.9124 29.3185 47.0355H29.4293V45.9091H30.4818V53.2031C30.4818 53.8125 30.3434 54.308 30.0664 54.6896C29.7925 55.0743 29.4231 55.3559 28.9584 55.5344C28.4968 55.716 27.9828 55.8068 27.4165 55.8068ZM27.3796 51.9105C27.8166 51.9105 28.1859 51.8105 28.4875 51.6104C28.7891 51.4104 29.0184 51.1226 29.1754 50.7472C29.3323 50.3717 29.4108 49.9223 29.4108 49.3991C29.4108 48.8883 29.3339 48.4374 29.18 48.0465C29.0261 47.6557 28.7984 47.3494 28.4968 47.1278C28.1951 46.9062 27.8228 46.7955 27.3796 46.7955C26.9179 46.7955 26.5332 46.9124 26.2255 47.1463C25.9208 47.3802 25.6915 47.6941 25.5376 48.0881C25.3868 48.482 25.3114 48.919 25.3114 49.3991C25.3114 49.8916 25.3883 50.3271 25.5422 50.7056C25.6992 51.0811 25.93 51.3765 26.2347 51.592C26.5425 51.8043 26.9241 51.9105 27.3796 51.9105ZM35.3568 53.1477C34.7167 53.1477 34.155 52.9954 33.6718 52.6907C33.1917 52.386 32.8162 51.9598 32.5454 51.4119C32.2777 50.8641 32.1438 50.224 32.1438 49.4915C32.1438 48.7528 32.2777 48.1081 32.5454 47.5572C32.8162 47.0063 33.1917 46.5785 33.6718 46.2738C34.155 45.9691 34.7167 45.8168 35.3568 45.8168C35.997 45.8168 36.5571 45.9691 37.0372 46.2738C37.5204 46.5785 37.8959 47.0063 38.1637 47.5572C38.4345 48.1081 38.5699 48.7528 38.5699 49.4915C38.5699 50.224 38.4345 50.8641 38.1637 51.4119C37.8959 51.9598 37.5204 52.386 37.0372 52.6907C36.5571 52.9954 35.997 53.1477 35.3568 53.1477ZM35.3568 52.169C35.8431 52.169 36.2432 52.0444 36.5571 51.7951C36.871 51.5458 37.1034 51.218 37.2542 50.8118C37.405 50.4055 37.4804 49.9654 37.4804 49.4915C37.4804 49.0175 37.405 48.5759 37.2542 48.1665C37.1034 47.7572 36.871 47.4264 36.5571 47.174C36.2432 46.9216 35.8431 46.7955 35.3568 46.7955C34.8706 46.7955 34.4705 46.9216 34.1566 47.174C33.8426 47.4264 33.6103 47.7572 33.4595 48.1665C33.3087 48.5759 33.2333 49.0175 33.2333 49.4915C33.2333 49.9654 33.3087 50.4055 33.4595 50.8118C33.6103 51.218 33.8426 51.5458 34.1566 51.7951C34.4705 52.0444 34.8706 52.169 35.3568 52.169ZM44.7017 50.1009V45.9091H45.7912V53H44.7017V51.7997H44.6279C44.4617 52.1598 44.2032 52.466 43.8523 52.7184C43.5015 52.9677 43.0583 53.0923 42.5228 53.0923C42.0796 53.0923 41.6857 52.9954 41.341 52.8015C40.9963 52.6045 40.7254 52.3091 40.5285 51.9151C40.3315 51.5181 40.233 51.018 40.233 50.4148V45.9091H41.3225V50.3409C41.3225 50.858 41.4671 51.2704 41.7564 51.5781C42.0488 51.8859 42.4212 52.0398 42.8736 52.0398C43.1445 52.0398 43.4199 51.9705 43.7 51.832C43.9831 51.6935 44.2201 51.4812 44.4109 51.195C44.6048 50.9087 44.7017 50.544 44.7017 50.1009ZM50.8705 45.9091V46.8324H47.1958V45.9091H50.8705ZM48.2668 44.2102H49.3563V50.9688C49.3563 51.2765 49.4009 51.5073 49.4902 51.6612C49.5825 51.812 49.6995 51.9136 49.841 51.9659C49.9857 52.0152 50.138 52.0398 50.2981 52.0398C50.4181 52.0398 50.5166 52.0336 50.5935 52.0213C50.6705 52.0059 50.732 51.9936 50.7782 51.9844L50.9998 52.9631C50.9259 52.9908 50.8228 53.0185 50.6905 53.0462C50.5581 53.0769 50.3904 53.0923 50.1873 53.0923C49.8795 53.0923 49.5779 53.0262 49.2824 52.8938C48.9901 52.7615 48.7469 52.5599 48.553 52.2891C48.3622 52.0182 48.2668 51.6766 48.2668 51.2642V44.2102Z" fill="#263238"/>
<defs>
<clipPath id="clip0_132_1808">
<rect width="26" height="26" fill="white" transform="matrix(1 0 0 -1 18 33)"/>
</clipPath>
</defs>
</svg>
