<svg width="40" height="56" viewBox="0 0 40 56" fill="none" xmlns="http://www.w3.org/2000/svg">
<path d="M9.00246 21.4698C9.00246 18.7885 8.99574 16.1067 9.00452 13.4255C9.01175 11.2874 10.4184 9.54414 12.493 9.09709C12.8174 9.02681 13.1578 9.00562 13.4905 9.0051C17.8297 8.99941 22.1695 8.99838 26.5087 9.00251C28.8158 9.00458 30.5866 10.5142 30.9544 12.7841C30.9901 13.0032 30.9952 13.2291 30.9952 13.4518C30.9978 16.3481 31.0035 19.2443 30.9947 22.1411C30.988 24.3469 29.5504 26.1 27.4112 26.5217C27.1018 26.5827 26.78 26.5987 26.4638 26.5992C22.9924 26.6044 19.5205 26.608 16.0491 26.5982C15.3083 26.5961 14.7013 26.8416 14.1827 27.3698C13.1165 28.4546 12.0322 29.5213 10.9608 30.6009C10.6385 30.926 10.2665 31.0738 9.8171 30.9632C9.34701 30.848 9.02002 30.4418 9.00865 29.9518C8.99522 29.3761 9.00246 28.8003 9.00246 28.2246C9.00194 25.9733 9.00194 23.7216 9.00246 21.4698ZM11.1943 27.2339C11.3033 27.1331 11.3663 27.0783 11.4252 27.0194C11.8209 26.625 12.2218 26.2359 12.6092 25.8333C13.5556 24.8493 14.7096 24.3914 16.0713 24.395C19.5344 24.4043 22.9981 24.3991 26.4612 24.3976C27.8792 24.3965 28.8034 23.4745 28.8044 22.0589C28.807 19.2226 28.8065 16.3858 28.8044 13.5495C28.8034 12.1246 27.871 11.1949 26.4442 11.1943C22.1473 11.1928 17.8504 11.1928 13.553 11.1964C13.3314 11.1964 13.1041 11.213 12.8892 11.2641C11.84 11.5132 11.1948 12.3872 11.1948 13.55C11.1933 18.0112 11.1943 22.4719 11.1943 26.9331C11.1943 27.0096 11.1943 27.0855 11.1943 27.2339Z" fill="#666666"/>
<path d="M21.0963 19.4461C21.0963 19.9789 21.1004 20.5117 21.0953 21.0446C21.0886 21.7139 20.6278 22.1997 20.0043 22.2033C19.3828 22.2069 18.9091 21.718 18.906 21.0534C18.9009 19.9877 18.9014 18.922 18.906 17.8558C18.9091 17.187 19.3725 16.7023 19.996 16.7002C20.6211 16.6981 21.0834 17.1798 21.0963 17.847C21.0968 17.8641 21.0968 17.8817 21.0968 17.8987C21.0963 18.415 21.0963 18.9303 21.0963 19.4461Z" fill="#666666"/>
<path d="M21.094 14.5013C21.0929 15.1101 20.6011 15.6031 19.9973 15.6011C19.3918 15.5995 18.9052 15.106 18.9063 14.4961C18.9073 13.8857 19.3949 13.3979 20.0024 13.3994C20.6089 13.4005 21.095 13.8914 21.094 14.5013Z" fill="#666666"/>
<path d="M6.54674 53V43.5455H7.69163V47.7557H12.7328V43.5455H13.8777V53H12.7328V48.7713H7.69163V53H6.54674ZM18.9951 53.1477C18.3118 53.1477 17.7225 52.9969 17.227 52.6953C16.7345 52.3906 16.3544 51.9659 16.0867 51.4212C15.822 50.8733 15.6897 50.2363 15.6897 49.5099C15.6897 48.7836 15.822 48.1435 16.0867 47.5895C16.3544 47.0324 16.7268 46.5985 17.2039 46.2876C17.684 45.9737 18.2441 45.8168 18.8843 45.8168C19.2536 45.8168 19.6183 45.8783 19.9784 46.0014C20.3385 46.1245 20.6662 46.3246 20.9617 46.6016C21.2571 46.8755 21.4926 47.2386 21.668 47.6911C21.8434 48.1435 21.9312 48.7005 21.9312 49.3622V49.8239H16.4652V48.8821H20.8232C20.8232 48.482 20.7432 48.125 20.5831 47.8111C20.4262 47.4972 20.2015 47.2494 19.9091 47.0678C19.6198 46.8862 19.2782 46.7955 18.8843 46.7955C18.4503 46.7955 18.0749 46.9032 17.7579 47.1186C17.4439 47.331 17.2023 47.608 17.0331 47.9496C16.8638 48.2912 16.7792 48.6574 16.7792 49.0483V49.6761C16.7792 50.2116 16.8715 50.6656 17.0562 51.038C17.2439 51.4073 17.504 51.6889 17.8363 51.8828C18.1687 52.0736 18.555 52.169 18.9951 52.169C19.2813 52.169 19.5398 52.129 19.7706 52.049C20.0045 51.9659 20.2061 51.8428 20.3754 51.6797C20.5447 51.5135 20.6755 51.3073 20.7678 51.0611L21.8204 51.3565C21.7096 51.7135 21.5234 52.0275 21.2618 52.2983C21.0002 52.5661 20.677 52.7753 20.2923 52.9261C19.9076 53.0739 19.4752 53.1477 18.9951 53.1477ZM24.678 43.5455V53H23.5885V43.5455H24.678ZM26.6734 55.6591V45.9091H27.726V47.0355H27.8552C27.9353 46.9124 28.0461 46.7554 28.1876 46.5646C28.3323 46.3707 28.5385 46.1984 28.8062 46.0476C29.0771 45.8937 29.4433 45.8168 29.905 45.8168C30.502 45.8168 31.0283 45.966 31.4838 46.2646C31.9393 46.5631 32.2948 46.9863 32.5502 47.5341C32.8056 48.0819 32.9334 48.7282 32.9334 49.473C32.9334 50.224 32.8056 50.8749 32.5502 51.4258C32.2948 51.9736 31.9408 52.3983 31.4884 52.6999C31.036 52.9985 30.5143 53.1477 29.9234 53.1477C29.4679 53.1477 29.1032 53.0723 28.8293 52.9215C28.5554 52.7676 28.3446 52.5937 28.1969 52.3999C28.0491 52.2029 27.9353 52.0398 27.8552 51.9105H27.7629V55.6591H26.6734ZM27.7445 49.4545C27.7445 49.9901 27.8229 50.4625 27.9799 50.8718C28.1369 51.2781 28.3661 51.5966 28.6677 51.8274C28.9694 52.0552 29.3387 52.169 29.7757 52.169C30.2312 52.169 30.6113 52.049 30.916 51.8089C31.2237 51.5658 31.4546 51.2396 31.6084 50.8303C31.7654 50.4179 31.8439 49.9593 31.8439 49.4545C31.8439 48.956 31.7669 48.5066 31.6131 48.1065C31.4623 47.7034 31.233 47.3848 30.9252 47.1509C30.6205 46.9139 30.2373 46.7955 29.7757 46.7955C29.3325 46.7955 28.9601 46.9078 28.6585 47.1325C28.3569 47.354 28.1292 47.6649 27.9753 48.065C27.8214 48.462 27.7445 48.9252 27.7445 49.4545Z" fill="#263238"/>
</svg>
