<svg width="58" height="72" viewBox="0 0 58 72" fill="none" xmlns="http://www.w3.org/2000/svg">
<g clip-path="url(#clip0_132_1778)">
<path d="M29.983 35C26.4935 35 23.649 34.9982 21.0317 34.9952C20.6085 34.9946 20.24 34.9607 19.9046 34.8911C18.7713 34.6567 17.7971 34.0831 17.0877 33.2334C16.3783 32.3844 16.003 31.3414 16.0023 30.218C15.9993 25.6942 15.9999 21.0955 16.0005 16.6473L16.0011 11.7493C16.0011 11.6606 16.0023 11.5702 16.0054 11.4732C16.0675 9.5198 17.4427 7.74908 19.3505 7.16718C19.3972 7.1529 19.4206 7.14159 19.4304 7.13564C19.4335 7.12374 19.4378 7.09578 19.4384 7.03806C19.4457 5.75881 20.0809 4.7967 21.2749 4.25466C21.4543 4.17374 21.6373 4.12376 21.8149 4.07616C21.8916 4.05533 21.9647 4.0357 22.036 4.01368L22.0808 4H34.9558L35.0264 4.04046C36.3458 4.24395 37.6376 5.44049 37.5657 7.13445C37.5718 7.13683 37.5792 7.13862 37.5872 7.14159C38.941 7.57058 39.9244 8.40775 40.5116 9.62987C40.6713 9.96248 40.7671 10.3153 40.8605 10.6568C40.9004 10.8038 40.9415 10.9561 40.987 11.1007L40.9999 11.143V30.8523L40.9692 30.9136C40.9606 30.9308 40.9508 30.9481 40.9403 30.9653L40.9397 30.9659C40.4741 33.4173 38.519 34.9994 35.9509 35C33.962 34.9994 31.9725 35 29.983 35ZM19.4937 9.73102C18.799 10.2225 18.4593 10.8544 18.4581 11.6529C18.4495 17.1899 18.4488 23.0941 18.4562 30.2341C18.4574 31.5692 19.5342 32.617 20.9076 32.6194C23.4309 32.6236 25.9818 32.6254 28.4898 32.6254C31.021 32.6254 33.5812 32.623 36.0977 32.6194C37.4674 32.617 38.5423 31.5811 38.5442 30.2608C38.5515 24.8368 38.5515 18.9136 38.5442 11.6201C38.5436 10.924 38.25 10.3272 37.6713 9.84764C37.621 9.80599 37.5657 9.76672 37.5061 9.72745C37.2309 11.1174 36.0062 12.1259 34.5793 12.1301C32.9221 12.1354 31.1408 12.1378 29.1335 12.1378C26.87 12.1378 24.6072 12.1348 22.4186 12.1312C21.8167 12.1306 21.2467 11.9462 20.7264 11.5838C20.0692 11.1275 19.6638 10.5188 19.4937 9.73102ZM31.7753 9.76077C32.6616 9.76077 33.5474 9.76018 34.4337 9.75899C34.8631 9.75839 35.1118 9.52337 35.1149 9.1152C35.121 8.39347 35.121 7.68601 35.1149 7.01426C35.1112 6.62216 34.8594 6.3788 34.4571 6.37821C32.4725 6.37702 30.4885 6.37642 28.5039 6.37642C26.5193 6.37642 24.5353 6.37702 22.5507 6.37821C22.1306 6.37821 21.8879 6.61799 21.8849 7.03568C21.8812 7.58129 21.8824 8.13643 21.8836 8.67312L21.8843 9.02119C21.8849 9.54598 22.1066 9.76018 22.6502 9.76077C23.4469 9.76077 24.2429 9.76137 25.0396 9.76137H28.4658L31.7753 9.76077Z" fill="#666666"/>
<path d="M23.6057 28.7602C23.2108 28.7602 22.8293 28.5579 22.5597 28.2045C22.4976 28.1229 22.4368 28.0414 22.3736 27.9563C22.2943 28.0634 22.2163 28.1664 22.1352 28.2675C21.8834 28.5805 21.5216 28.7596 21.1426 28.7596C20.8816 28.7596 20.6285 28.6757 20.4099 28.5162C19.8706 28.1235 19.7649 27.431 20.1599 26.8693C20.3613 26.5825 20.6033 26.2451 20.8668 25.9161C20.8687 25.9137 20.8705 25.9113 20.8724 25.909C20.8687 25.9042 20.865 25.8988 20.8595 25.8923C20.6095 25.5764 20.3718 25.2461 20.1721 24.9653C19.7643 24.3893 19.8675 23.6854 20.4185 23.2922C20.634 23.1386 20.8834 23.0571 21.1396 23.0571C21.5339 23.0571 21.9074 23.2487 22.1647 23.5825C22.2341 23.6724 22.3023 23.764 22.3717 23.858C22.4381 23.7693 22.5032 23.6837 22.5683 23.5986C22.8306 23.2547 23.2089 23.0577 23.6057 23.0577C23.852 23.0577 24.094 23.1339 24.3053 23.2785C24.8753 23.6682 24.9853 24.3816 24.5664 24.9748L24.5099 25.0545C24.3268 25.314 24.137 25.5829 23.9263 25.8352C23.8926 25.8756 23.8784 25.9 23.8729 25.9113C23.8778 25.9209 23.8889 25.9393 23.9134 25.9673C24.1063 26.191 24.2758 26.4308 24.4392 26.6622C24.4785 26.7176 24.5179 26.7735 24.5572 26.8282C24.9847 27.4268 24.8876 28.1247 24.3207 28.5264C24.1039 28.6793 23.8563 28.7602 23.6057 28.7602Z" fill="#666666"/>
<path d="M22.1247 21.6393C21.6671 21.6393 21.2549 21.3828 21.0234 20.9532C20.7254 20.4017 20.4116 19.793 20.0633 19.0909C19.7543 18.4685 19.989 17.7771 20.6094 17.4826C20.782 17.4005 20.9638 17.3589 21.1493 17.3589C21.6081 17.3589 22.0221 17.6129 22.2567 18.0383C22.3016 18.1199 22.3452 18.202 22.3888 18.2871L22.554 18.0949C22.9158 17.6748 23.2641 17.2702 23.6142 16.8668C23.8728 16.5693 24.199 16.4116 24.5577 16.4116C24.6504 16.4116 24.7456 16.4223 24.8414 16.4432C25.3199 16.5473 25.6492 16.8632 25.7696 17.3333C25.8641 17.7028 25.7745 18.0616 25.5097 18.3704L25.1664 18.772C24.4852 19.5687 23.7807 20.3922 23.0749 21.193C22.8218 21.481 22.484 21.6393 22.1247 21.6393Z" fill="#666666"/>
<path d="M33.1576 20.2111C32.2959 20.2111 31.4347 20.2105 30.5729 20.2099C30.1737 20.2093 29.8193 20.0772 29.5742 19.838C29.3537 19.6227 29.2339 19.3293 29.2364 19.0116C29.2419 18.3321 29.7972 17.8371 30.5564 17.8347C30.9034 17.8335 31.2504 17.8335 31.5975 17.8335L33.157 17.8341L34.7166 17.8335C35.0636 17.8335 35.4107 17.8341 35.7577 17.8347C36.5292 17.8371 37.0722 18.3208 37.0783 19.011C37.0808 19.3293 36.9616 19.6233 36.7411 19.8386C36.4966 20.0778 36.1416 20.2093 35.7423 20.2099C34.8812 20.2111 34.0194 20.2111 33.1576 20.2111Z" fill="#666666"/>
<path d="M31.5999 27.1654C31.251 27.1654 30.9022 27.1654 30.5539 27.1642C29.7818 27.1624 29.2394 26.6781 29.2363 25.9867C29.2345 25.6702 29.3567 25.3763 29.5803 25.1579C29.8229 24.9211 30.1651 24.7908 30.5447 24.7896C31.4224 24.7872 32.3002 24.7866 33.1779 24.7866C34.044 24.7866 34.9101 24.7878 35.7761 24.7902C36.1545 24.7914 36.496 24.9229 36.7374 25.1603C36.961 25.3804 37.0826 25.6767 37.0783 25.9951C37.0697 26.6817 36.5249 27.1624 35.7546 27.1642C35.4057 27.1648 35.0569 27.1654 34.708 27.1654L33.1546 27.1648L31.5999 27.1654Z" fill="#666666"/>
</g>
<path d="M7.06192 45.9091C7.00653 45.4413 6.78186 45.0781 6.38792 44.8196C5.99398 44.5611 5.51079 44.4318 4.93834 44.4318C4.51978 44.4318 4.15354 44.4995 3.83962 44.6349C3.52878 44.7704 3.28564 44.9566 3.11022 45.1935C2.93787 45.4305 2.8517 45.6998 2.8517 46.0014C2.8517 46.2538 2.91171 46.4708 3.03174 46.6523C3.15484 46.8308 3.3118 46.9801 3.50262 47.1001C3.69343 47.2171 3.89348 47.314 4.10276 47.391C4.31204 47.4648 4.50439 47.5249 4.67982 47.571L5.64005 47.8295C5.88626 47.8942 6.16017 47.9834 6.46178 48.0973C6.76647 48.2112 7.05731 48.3666 7.3343 48.5636C7.61436 48.7575 7.84519 49.0067 8.02677 49.3114C8.20835 49.6161 8.29914 49.9901 8.29914 50.4332C8.29914 50.9441 8.16526 51.4058 7.89751 51.8182C7.63283 52.2306 7.24504 52.5584 6.73415 52.8015C6.22634 53.0446 5.60927 53.1662 4.88295 53.1662C4.20586 53.1662 3.61957 53.0569 3.12407 52.8384C2.63164 52.6199 2.24386 52.3152 1.96072 51.9244C1.68065 51.5335 1.52215 51.0795 1.48522 50.5625H2.66704C2.69781 50.9195 2.81784 51.215 3.02712 51.4489C3.23948 51.6797 3.50724 51.852 3.83039 51.9659C4.15662 52.0767 4.50747 52.1321 4.88295 52.1321C5.31997 52.1321 5.71237 52.0613 6.06015 51.9197C6.40792 51.7751 6.68337 51.575 6.8865 51.3196C7.08962 51.0611 7.19118 50.7595 7.19118 50.4148C7.19118 50.1009 7.10347 49.8454 6.92805 49.6484C6.75262 49.4515 6.5218 49.2914 6.23557 49.1683C5.94935 49.0452 5.64005 48.9375 5.30766 48.8452L4.14431 48.5128C3.40567 48.3004 2.82092 47.9973 2.39005 47.6033C1.95918 47.2094 1.74374 46.6939 1.74374 46.0568C1.74374 45.5275 1.88685 45.0658 2.17307 44.6719C2.46237 44.2749 2.85016 43.9671 3.33643 43.7486C3.82577 43.527 4.37206 43.4162 4.97528 43.4162C5.58465 43.4162 6.12632 43.5254 6.60028 43.744C7.07423 43.9594 7.44971 44.2549 7.7267 44.6303C8.00676 45.0058 8.15449 45.4321 8.16988 45.9091H7.06192ZM13.0068 53.1477C12.3236 53.1477 11.7342 52.9969 11.2387 52.6953C10.7463 52.3906 10.3662 51.9659 10.0984 51.4212C9.83373 50.8733 9.70139 50.2363 9.70139 49.5099C9.70139 48.7836 9.83373 48.1435 10.0984 47.5895C10.3662 47.0324 10.7386 46.5985 11.2156 46.2876C11.6957 45.9737 12.2558 45.8168 12.896 45.8168C13.2653 45.8168 13.63 45.8783 13.9901 46.0014C14.3502 46.1245 14.678 46.3246 14.9734 46.6016C15.2689 46.8755 15.5043 47.2386 15.6797 47.6911C15.8552 48.1435 15.9429 48.7005 15.9429 49.3622V49.8239H10.477V48.8821H14.8349C14.8349 48.482 14.7549 48.125 14.5949 47.8111C14.4379 47.4972 14.2132 47.2494 13.9209 47.0678C13.6316 46.8862 13.2899 46.7955 12.896 46.7955C12.462 46.7955 12.0866 46.9032 11.7696 47.1186C11.4557 47.331 11.2141 47.608 11.0448 47.9496C10.8755 48.2912 10.7909 48.6574 10.7909 49.0483V49.6761C10.7909 50.2116 10.8832 50.6656 11.0679 51.038C11.2556 51.4073 11.5157 51.6889 11.8481 51.8828C12.1804 52.0736 12.5667 52.169 13.0068 52.169C13.293 52.169 13.5515 52.129 13.7824 52.049C14.0163 51.9659 14.2178 51.8428 14.3871 51.6797C14.5564 51.5135 14.6872 51.3073 14.7795 51.0611L15.8321 51.3565C15.7213 51.7135 15.5351 52.0275 15.2735 52.2983C15.0119 52.5661 14.6887 52.7753 14.304 52.9261C13.9193 53.0739 13.4869 53.1477 13.0068 53.1477ZM17.6002 53V45.9091H18.6527V46.9801H18.7266C18.8559 46.6293 19.0898 46.3446 19.4283 46.1261C19.7669 45.9076 20.1485 45.7983 20.5732 45.7983C20.6532 45.7983 20.7532 45.7998 20.8733 45.8029C20.9933 45.806 21.0841 45.8106 21.1456 45.8168V46.9247C21.1087 46.9155 21.0241 46.9016 20.8917 46.8832C20.7625 46.8616 20.6255 46.8509 20.4809 46.8509C20.1362 46.8509 19.8284 46.9232 19.5576 47.0678C19.2898 47.2094 19.0775 47.4064 18.9205 47.6587C18.7666 47.908 18.6897 48.1927 18.6897 48.5128V53H17.6002ZM28.4512 45.9091L25.8291 53H24.7211L22.0989 45.9091H23.2808L25.2381 51.5597H25.312L27.2694 45.9091H28.4512ZM29.8892 53V45.9091H30.9787V53H29.8892ZM30.4432 44.7273C30.2309 44.7273 30.0477 44.6549 29.8939 44.5103C29.7431 44.3656 29.6677 44.1918 29.6677 43.9886C29.6677 43.7855 29.7431 43.6116 29.8939 43.467C30.0477 43.3223 30.2309 43.25 30.4432 43.25C30.6556 43.25 30.8372 43.3223 30.988 43.467C31.1419 43.6116 31.2188 43.7855 31.2188 43.9886C31.2188 44.1918 31.1419 44.3656 30.988 44.5103C30.8372 44.6549 30.6556 44.7273 30.4432 44.7273ZM35.8549 53.1477C35.1901 53.1477 34.6177 52.9908 34.1376 52.6768C33.6574 52.3629 33.2881 51.9305 33.0296 51.3796C32.7711 50.8287 32.6418 50.1993 32.6418 49.4915C32.6418 48.7713 32.7742 48.1358 33.0388 47.5849C33.3066 47.0309 33.679 46.5985 34.156 46.2876C34.6361 45.9737 35.1963 45.8168 35.8364 45.8168C36.335 45.8168 36.7843 45.9091 37.1844 46.0938C37.5845 46.2784 37.9123 46.5369 38.1677 46.8693C38.4232 47.2017 38.5817 47.5895 38.6432 48.0327H37.5538C37.4707 47.7095 37.286 47.4233 36.9998 47.174C36.7166 46.9216 36.335 46.7955 35.8549 46.7955C35.4302 46.7955 35.0578 46.9062 34.7377 47.1278C34.4207 47.3464 34.173 47.6557 33.9945 48.0558C33.819 48.4528 33.7313 48.919 33.7313 49.4545C33.7313 50.0024 33.8175 50.4794 33.9898 50.8857C34.1653 51.2919 34.4115 51.6074 34.7285 51.832C35.0485 52.0567 35.424 52.169 35.8549 52.169C36.138 52.169 36.395 52.1198 36.6258 52.0213C36.8567 51.9228 37.0521 51.7812 37.2121 51.5966C37.3722 51.4119 37.486 51.1903 37.5538 50.9318H38.6432C38.5817 51.3504 38.4293 51.7274 38.1862 52.0629C37.9462 52.3952 37.6276 52.6599 37.2306 52.8569C36.8367 53.0508 36.3781 53.1477 35.8549 53.1477ZM43.2089 53.1477C42.5257 53.1477 41.9363 52.9969 41.4408 52.6953C40.9484 52.3906 40.5683 51.9659 40.3006 51.4212C40.0359 50.8733 39.9035 50.2363 39.9035 49.5099C39.9035 48.7836 40.0359 48.1435 40.3006 47.5895C40.5683 47.0324 40.9407 46.5985 41.4177 46.2876C41.8979 45.9737 42.458 45.8168 43.0981 45.8168C43.4675 45.8168 43.8322 45.8783 44.1922 46.0014C44.5523 46.1245 44.8801 46.3246 45.1756 46.6016C45.471 46.8755 45.7065 47.2386 45.8819 47.6911C46.0573 48.1435 46.145 48.7005 46.145 49.3622V49.8239H40.6791V48.8821H45.0371C45.0371 48.482 44.957 48.125 44.797 47.8111C44.64 47.4972 44.4154 47.2494 44.123 47.0678C43.8337 46.8862 43.4921 46.7955 43.0981 46.7955C42.6642 46.7955 42.2887 46.9032 41.9717 47.1186C41.6578 47.331 41.4162 47.608 41.2469 47.9496C41.0777 48.2912 40.993 48.6574 40.993 49.0483V49.6761C40.993 50.2116 41.0854 50.6656 41.27 51.038C41.4578 51.4073 41.7178 51.6889 42.0502 51.8828C42.3826 52.0736 42.7688 52.169 43.2089 52.169C43.4952 52.169 43.7537 52.129 43.9845 52.049C44.2184 51.9659 44.42 51.8428 44.5893 51.6797C44.7585 51.5135 44.8893 51.3073 44.9817 51.0611L46.0342 51.3565C45.9234 51.7135 45.7372 52.0275 45.4756 52.2983C45.214 52.5661 44.8909 52.7753 44.5062 52.9261C44.1215 53.0739 43.6891 53.1477 43.2089 53.1477ZM52.8251 47.4972L51.8464 47.7741C51.7848 47.611 51.694 47.4525 51.574 47.2987C51.457 47.1417 51.297 47.0124 51.0939 46.9109C50.8908 46.8093 50.6307 46.7585 50.3137 46.7585C49.8797 46.7585 49.5181 46.8585 49.2288 47.0586C48.9426 47.2556 48.7995 47.5064 48.7995 47.8111C48.7995 48.0819 48.898 48.2958 49.0949 48.4528C49.2919 48.6097 49.5997 48.7405 50.0182 48.8452L51.0708 49.1037C51.7048 49.2576 52.1772 49.493 52.4881 49.81C52.7989 50.1239 52.9543 50.5286 52.9543 51.0241C52.9543 51.4304 52.8374 51.7936 52.6035 52.1136C52.3726 52.4337 52.0495 52.6861 51.634 52.8707C51.2185 53.0554 50.7353 53.1477 50.1844 53.1477C49.4612 53.1477 48.8626 52.9908 48.3886 52.6768C47.9147 52.3629 47.6146 51.9044 47.4884 51.3011L48.5225 51.0426C48.621 51.4242 48.8072 51.7105 49.0811 51.9013C49.3581 52.0921 49.7197 52.1875 50.166 52.1875C50.6738 52.1875 51.077 52.0798 51.3755 51.8643C51.6771 51.6458 51.8279 51.3842 51.8279 51.0795C51.8279 50.8333 51.7417 50.6271 51.5694 50.4609C51.397 50.2917 51.1324 50.1655 50.7753 50.0824L49.5935 49.8054C48.9441 49.6515 48.4671 49.413 48.1624 49.0898C47.8608 48.7636 47.71 48.3558 47.71 47.8665C47.71 47.4664 47.8223 47.1125 48.047 46.8047C48.2748 46.4969 48.5841 46.2553 48.9749 46.0799C49.3689 45.9045 49.8151 45.8168 50.3137 45.8168C51.0154 45.8168 51.5663 45.9706 51.9664 46.2784C52.3696 46.5862 52.6558 46.9924 52.8251 47.4972ZM15.6122 61.9091C15.5568 61.4413 15.3321 61.0781 14.9382 60.8196C14.5443 60.5611 14.0611 60.4318 13.4886 60.4318C13.0701 60.4318 12.7038 60.4995 12.3899 60.6349C12.0791 60.7704 11.8359 60.9566 11.6605 61.1935C11.4882 61.4305 11.402 61.6998 11.402 62.0014C11.402 62.2538 11.462 62.4708 11.582 62.6523C11.7051 62.8308 11.8621 62.9801 12.0529 63.1001C12.2437 63.2171 12.4438 63.314 12.6531 63.391C12.8623 63.4648 13.0547 63.5249 13.2301 63.571L14.1903 63.8295C14.4366 63.8942 14.7105 63.9834 15.0121 64.0973C15.3168 64.2112 15.6076 64.3666 15.8846 64.5636C16.1647 64.7575 16.3955 65.0067 16.5771 65.3114C16.7586 65.6161 16.8494 65.9901 16.8494 66.4332C16.8494 66.9441 16.7156 67.4058 16.4478 67.8182C16.1831 68.2306 15.7953 68.5584 15.2844 68.8015C14.7766 69.0446 14.1596 69.1662 13.4332 69.1662C12.7562 69.1662 12.1699 69.0569 11.6744 68.8384C11.1819 68.6199 10.7942 68.3152 10.511 67.9244C10.2309 67.5335 10.0724 67.0795 10.0355 66.5625H11.2173C11.2481 66.9195 11.3681 67.215 11.5774 67.4489C11.7898 67.6797 12.0575 67.852 12.3807 67.9659C12.7069 68.0767 13.0578 68.1321 13.4332 68.1321C13.8703 68.1321 14.2627 68.0613 14.6104 67.9197C14.9582 67.7751 15.2337 67.575 15.4368 67.3196C15.6399 67.0611 15.7415 66.7595 15.7415 66.4148C15.7415 66.1009 15.6538 65.8454 15.4783 65.6484C15.3029 65.4515 15.0721 65.2914 14.7859 65.1683C14.4996 65.0452 14.1903 64.9375 13.858 64.8452L12.6946 64.5128C11.956 64.3004 11.3712 63.9973 10.9403 63.6033C10.5095 63.2094 10.294 62.6939 10.294 62.0568C10.294 61.5275 10.4371 61.0658 10.7234 60.6719C11.0127 60.2749 11.4004 59.9671 11.8867 59.7486C12.3761 59.527 12.9223 59.4162 13.5256 59.4162C14.1349 59.4162 14.6766 59.5254 15.1506 59.744C15.6245 59.9594 16 60.2549 16.277 60.6303C16.5571 61.0058 16.7048 61.4321 16.7202 61.9091H15.6122ZM21.6679 61.9091V62.8324H17.9932V61.9091H21.6679ZM19.0642 60.2102H20.1537V66.9688C20.1537 67.2765 20.1983 67.5073 20.2876 67.6612C20.3799 67.812 20.4968 67.9136 20.6384 67.9659C20.7831 68.0152 20.9354 68.0398 21.0954 68.0398C21.2155 68.0398 21.314 68.0336 21.3909 68.0213C21.4678 68.0059 21.5294 67.9936 21.5756 67.9844L21.7971 68.9631C21.7233 68.9908 21.6202 69.0185 21.4878 69.0462C21.3555 69.0769 21.1878 69.0923 20.9846 69.0923C20.6769 69.0923 20.3753 69.0262 20.0798 68.8938C19.7874 68.7615 19.5443 68.5599 19.3504 68.2891C19.1596 68.0182 19.0642 67.6766 19.0642 67.2642V60.2102ZM25.3934 69.1662C24.944 69.1662 24.5363 69.0816 24.17 68.9123C23.8038 68.7399 23.5129 68.4922 23.2975 68.169C23.0821 67.8428 22.9743 67.4489 22.9743 66.9872C22.9743 66.581 23.0544 66.2517 23.2144 65.9993C23.3744 65.7438 23.5883 65.5438 23.8561 65.3991C24.1238 65.2545 24.4193 65.1468 24.7425 65.076C25.0687 65.0021 25.3965 64.9437 25.7258 64.9006C26.1566 64.8452 26.5059 64.8036 26.7737 64.7759C27.0445 64.7451 27.2415 64.6944 27.3646 64.6236C27.4908 64.5528 27.5539 64.4297 27.5539 64.2543V64.2173C27.5539 63.7618 27.4292 63.4079 27.18 63.1555C26.9337 62.9032 26.5598 62.777 26.0581 62.777C25.538 62.777 25.1302 62.8909 24.8348 63.1186C24.5393 63.3464 24.3316 63.5895 24.2116 63.848L23.1775 63.4787C23.3621 63.0478 23.6083 62.7124 23.9161 62.4723C24.2269 62.2292 24.5655 62.0599 24.9317 61.9645C25.301 61.866 25.6642 61.8168 26.0212 61.8168C26.249 61.8168 26.5106 61.8445 26.806 61.8999C27.1046 61.9522 27.3923 62.0614 27.6693 62.2276C27.9494 62.3938 28.1817 62.6446 28.3664 62.9801C28.551 63.3156 28.6434 63.7649 28.6434 64.3281V69H27.5539V68.0398H27.4985C27.4246 68.1937 27.3015 68.3583 27.1292 68.5337C26.9568 68.7092 26.7275 68.8584 26.4413 68.9815C26.1551 69.1046 25.8058 69.1662 25.3934 69.1662ZM25.5596 68.1875C25.9904 68.1875 26.3536 68.1029 26.6491 67.9336C26.9476 67.7643 27.1723 67.5458 27.3231 67.2781C27.4769 67.0103 27.5539 66.7287 27.5539 66.4332V65.4361C27.5077 65.4915 27.4062 65.5423 27.2492 65.5884C27.0953 65.6315 26.9168 65.67 26.7137 65.7038C26.5136 65.7346 26.3182 65.7623 26.1274 65.7869C25.9397 65.8085 25.7873 65.8269 25.6704 65.8423C25.3872 65.8793 25.1225 65.9393 24.8763 66.0224C24.6332 66.1024 24.4362 66.224 24.2854 66.3871C24.1377 66.5471 24.0638 66.7656 24.0638 67.0426C24.0638 67.4212 24.2039 67.7074 24.4839 67.9013C24.7671 68.0921 25.1256 68.1875 25.5596 68.1875ZM33.7157 61.9091V62.8324H30.041V61.9091H33.7157ZM31.112 60.2102H32.2015V66.9688C32.2015 67.2765 32.2462 67.5073 32.3354 67.6612C32.4277 67.812 32.5447 67.9136 32.6863 67.9659C32.8309 68.0152 32.9833 68.0398 33.1433 68.0398C33.2633 68.0398 33.3618 68.0336 33.4387 68.0213C33.5157 68.0059 33.5772 67.9936 33.6234 67.9844L33.845 68.9631C33.7711 68.9908 33.668 69.0185 33.5357 69.0462C33.4034 69.0769 33.2356 69.0923 33.0325 69.0923C32.7247 69.0923 32.4231 69.0262 32.1277 68.8938C31.8353 68.7615 31.5922 68.5599 31.3983 68.2891C31.2074 68.0182 31.112 67.6766 31.112 67.2642V60.2102ZM39.8233 66.1009V61.9091H40.9128V69H39.8233V67.7997H39.7495C39.5833 68.1598 39.3248 68.466 38.9739 68.7184C38.623 68.9677 38.1799 69.0923 37.6444 69.0923C37.2012 69.0923 36.8072 68.9954 36.4625 68.8015C36.1178 68.6045 35.847 68.3091 35.65 67.9151C35.4531 67.5181 35.3546 67.018 35.3546 66.4148V61.9091H36.4441V66.3409C36.4441 66.858 36.5887 67.2704 36.878 67.5781C37.1704 67.8859 37.5428 68.0398 37.9952 68.0398C38.266 68.0398 38.5415 67.9705 38.8216 67.832C39.1047 67.6935 39.3417 67.4812 39.5325 67.195C39.7264 66.9087 39.8233 66.544 39.8233 66.1009ZM47.931 63.4972L46.9523 63.7741C46.8908 63.611 46.8 63.4525 46.68 63.2987C46.563 63.1417 46.403 63.0124 46.1998 62.9109C45.9967 62.8093 45.7367 62.7585 45.4197 62.7585C44.9857 62.7585 44.6241 62.8585 44.3348 63.0586C44.0486 63.2556 43.9055 63.5064 43.9055 63.8111C43.9055 64.0819 44.0039 64.2958 44.2009 64.4528C44.3979 64.6097 44.7056 64.7405 45.1242 64.8452L46.1768 65.1037C46.8108 65.2576 47.2832 65.493 47.594 65.81C47.9049 66.1239 48.0603 66.5286 48.0603 67.0241C48.0603 67.4304 47.9433 67.7936 47.7094 68.1136C47.4786 68.4337 47.1555 68.6861 46.74 68.8707C46.3245 69.0554 45.8413 69.1477 45.2904 69.1477C44.5671 69.1477 43.9685 68.9908 43.4946 68.6768C43.0206 68.3629 42.7206 67.9044 42.5944 67.3011L43.6285 67.0426C43.7269 67.4242 43.9131 67.7105 44.1871 67.9013C44.464 68.0921 44.8257 68.1875 45.2719 68.1875C45.7797 68.1875 46.1829 68.0798 46.4814 67.8643C46.7831 67.6458 46.9339 67.3842 46.9339 67.0795C46.9339 66.8333 46.8477 66.6271 46.6753 66.4609C46.503 66.2917 46.2383 66.1655 45.8813 66.0824L44.6995 65.8054C44.0501 65.6515 43.5731 65.413 43.2684 65.0898C42.9668 64.7636 42.816 64.3558 42.816 63.8665C42.816 63.4664 42.9283 63.1125 43.153 62.8047C43.3807 62.4969 43.69 62.2553 44.0809 62.0799C44.4748 61.9045 44.9211 61.8168 45.4197 61.8168C46.1214 61.8168 46.6723 61.9706 47.0724 62.2784C47.4755 62.5862 47.7617 62.9924 47.931 63.4972Z" fill="#263238"/>
<defs>
<clipPath id="clip0_132_1778">
<rect width="25" height="31" fill="white" transform="translate(16 4)"/>
</clipPath>
</defs>
</svg>
