<svg xmlns="http://www.w3.org/2000/svg" xmlns:xlink="http://www.w3.org/1999/xlink" width="30" height="40.535" viewBox="0 0 30 40.535">
  <defs>
    <clipPath id="clip-path">
      <rect id="Rectangle_125" data-name="Rectangle 125" width="30" height="40" fill="#f36f21" stroke="#f36f21" stroke-width="0.8"/>
    </clipPath>
  </defs>
  <g id="Account_opening_orange" data-name="Account opening orange" transform="translate(-114.508 -165.755)">
    <g id="Group_978" data-name="Group 978" transform="translate(114.508 165.89)">
      <g id="Group_977" data-name="Group 977" transform="translate(0 0)" clip-path="url(#clip-path)">
        <path id="Path_2565" data-name="Path 2565" d="M122.246,191.081a2.937,2.937,0,0,0,0-4.2,3.068,3.068,0,0,0-3.463-.571,11.749,11.749,0,0,1-2.192-6.865,12.109,12.109,0,0,1,11.51-11.992.782.782,0,1,0-.092-1.561A13.686,13.686,0,0,0,115,179.444a13.284,13.284,0,0,0,2.583,7.9,2.937,2.937,0,0,0,.388,3.734,3.062,3.062,0,0,0,4.276,0Zm-3.151-3.1a1.452,1.452,0,0,1,2.026,0,1.391,1.391,0,0,1,0,1.99,1.452,1.452,0,0,1-2.026,0,1.391,1.391,0,0,1,0-1.99Zm0,0" transform="translate(-114.472 -165.89)" fill="#f36f21" stroke="#f36f21" stroke-width="0.8"/>
      </g>
    </g>
    <path id="Path_2566" data-name="Path 2566" d="M191.424,205.381a2.534,2.534,0,0,0-1.294.355,2.681,2.681,0,0,0-2.534-1.96,2.586,2.586,0,0,0-1.914.86,2.735,2.735,0,0,0-.445-.391,13.01,13.01,0,0,0,4.5-3.527,14.176,14.176,0,0,0,.725-16.8,3.1,3.1,0,0,0-.362-3.739,2.724,2.724,0,0,0-3.991,0,3.093,3.093,0,0,0,0,4.207,2.741,2.741,0,0,0,2,.87,2.707,2.707,0,0,0,1.235-.3,12.364,12.364,0,0,1,2.047,6.876,11.841,11.841,0,0,1-8.789,11.71V199.33a8.018,8.018,0,0,0,4.957-7.5,7.59,7.59,0,1,0-15.159,0,8.21,8.21,0,0,0,1.506,4.78,7.711,7.711,0,0,0,3.382,2.688v11.514l-.933-1.613a2.658,2.658,0,0,0-3.725-1,3,3,0,0,0-1.1,3.78l2.77,5.9a.74.74,0,0,0,.666.436.707.707,0,0,0,.329-.081.8.8,0,0,0,.336-1.049l-2.767-5.892a1.379,1.379,0,0,1,.507-1.737,1.237,1.237,0,0,1,1.715.461l2.309,3.994a.727.727,0,0,0,.835.346.778.778,0,0,0,.542-.754v-17.96a1.173,1.173,0,1,1,2.343,0v3.1c0,.005,0,.011,0,.017v11.753a.744.744,0,1,0,1.485,0v-3.934a1.173,1.173,0,1,1,2.343,0V210.8a.744.744,0,1,0,1.485,0v-4.219a1.173,1.173,0,1,1,2.343,0v4.272a.744.744,0,1,0,1.485,0v-2.667a1.173,1.173,0,1,1,2.343,0v9.35a.744.744,0,1,0,1.485,0v-9.35a2.735,2.735,0,0,0-2.657-2.8Zm-4.266-22.1a1.465,1.465,0,0,1,0-1.993,1.291,1.291,0,0,1,1.891,0,1.466,1.466,0,0,1,0,1.993,1.291,1.291,0,0,1-1.891,0Zm-13.278,8.553a6.1,6.1,0,1,1,12.188,0,6.492,6.492,0,0,1-3.472,5.8v-1.988a2.906,2.906,0,0,0-.269-1.226,3.7,3.7,0,0,0,1.048-2.585,3.406,3.406,0,1,0-6.8,0,3.706,3.706,0,0,0,1,2.538,2.9,2.9,0,0,0-.292,1.273V197.6a6.431,6.431,0,0,1-3.4-5.766Zm4.712,1.4a2.058,2.058,0,0,1-.534-1.4,1.919,1.919,0,1,1,3.832,0,2.087,2.087,0,0,1-.561,1.426,2.534,2.534,0,0,0-2.737-.027Zm0,0" transform="translate(-50.077 -12.425)" fill="#f36f21" stroke="#f36f21" stroke-width="0.8"/>
    <path id="Path_2567" data-name="Path 2567" d="M314.937,170.941a.743.743,0,1,0-.525-.218.747.747,0,0,0,.525.218Zm0,0" transform="translate(-183.259 -3.301)" fill="#f36f21" stroke="#f36f21" stroke-width="0.8"/>
  </g>
</svg>
