<svg xmlns="http://www.w3.org/2000/svg" width="172" height="87.068" viewBox="0 0 172 87.068">
  <g id="Allied_khanum_services_orange" data-name="Allied khanum services orange" transform="translate(1 0.307)">
    <text id="Allied_Khanum_Services" data-name="Allied Khanum Services" transform="translate(85 82.762)" fill="#f36f21" font-size="16" font-family="Roboto-Bold, Roboto" font-weight="700"><tspan x="-85.293" y="0">Allied Khanum Services</tspan></text>
    <g id="Group_2339" data-name="Group 2339" transform="translate(61.349 -0.75)">
      <path id="Path_4242" data-name="Path 4242" d="M8.906,11.025c.421-3.424,3.253-10,11.231-9,9.513,1.189,8.955,15.091,6.722,18.44a4.637,4.637,0,0,1-.343.417,2.417,2.417,0,0,0,.343-.417,12.565,12.565,0,0,0,2.153-6.516c.277-4.576-1.8-10.538-7.072-12.34S9.2,1.741,8.906,11q0-.187,0-.376c-.071.794-.114,1.739-.108,2.772l-.031,0,.031,0c0,.636.026,1.3.072,1.991a1.3,1.3,0,0,1-.935-.054c.058.145.329.36.963.444.364,4.6,1.8,9.861,5.693,11.341,1.618.277,5.353-.527,7.35-5.962.37-.878,1.054-3.966.832-9.29.092,4.9-1.276,14.725-7.488,14.836-1.785-.039-5.068-2.357-6.076-10.645a2.368,2.368,0,0,0,3.58.107,3.419,3.419,0,0,1-1.054.427.833.833,0,0,0,.147-.91c.743.042,1.092.222,1.184.345a2.686,2.686,0,0,0-2.219-1.109,4.045,4.045,0,0,0-1.568.328l-.154.058q-.09-.894-.145-1.875a8.834,8.834,0,0,1,1.728.519,6.127,6.127,0,0,0,2.5.693,7.682,7.682,0,0,0-4.227-1.256Q8.94,12.715,8.922,12c2.645-.692,9.062-1.4,13.711,1.252C20.37,11.639,14.463,9.128,8.921,12q-.012-.472-.016-.964c1.619-1.941,6.574-4.545,13.45.556-2.588-2.727-8.9-6.655-13.45-.557C8.906,11.031,8.906,11.028,8.906,11.025Zm.271,4.781q.014.122.029.242a2.74,2.74,0,0,0,1.365.6.833.833,0,0,1-.236-.888A6.669,6.669,0,0,1,9.177,15.806Zm8.3.819a3.659,3.659,0,0,1-1.084-.319A2.538,2.538,0,0,0,20,16.028a3.137,3.137,0,0,1-1.346.581.833.833,0,0,0,.185-.87l.026.006.026.006c1.442.333,2.173-.046,2.357-.277a1.923,1.923,0,0,1-.99-.163,7.752,7.752,0,0,0-1.783-.392,2.667,2.667,0,0,0-2.357,1.109,2.707,2.707,0,0,1,1.2-.383.832.832,0,0,0,.158.98Zm-1.5-1.983c1.248-.693,4.16-1.83,5.824-.832a16.313,16.313,0,0,0-2.773,0,5.949,5.949,0,0,0-1.318.443h0C17.042,14.532,16.388,14.806,15.977,14.642Zm-2.773,7.9a1.392,1.392,0,0,1-.971.139A3.4,3.4,0,0,0,14.59,24.07a2.991,2.991,0,0,0,2.357-1.387,2.168,2.168,0,0,1-1.109-.139c-.666-.444-1.109-.277-1.248-.139C14.035,22.129,13.758,22.268,13.2,22.545Zm4.3,4.437c1.433-.092,4.6-.527,5.824-1.525A6.21,6.21,0,0,1,17.5,26.982Zm-3.771-6.8a3.193,3.193,0,0,1,.523.305.139.139,0,0,1-.08.252h0a3.131,3.131,0,0,1-.51-.037.911.911,0,0,1-.3-.1.343.343,0,0,1-.121-.117.266.266,0,0,1-.032-.188.224.224,0,0,1,.1-.15.268.268,0,0,1,.152-.039A.774.774,0,0,1,13.731,20.185Zm1.552.356c.26-.185.79-.5.832-.277C16.167,20.541,15.422,20.541,15.283,20.541Zm12.9-1.047c.878,1.387,2.08,4.659-.139,6.656C29.474,25.226,31.508,22.6,28.18,19.495ZM5.3,34.054a13.6,13.6,0,0,0,3.744-.416,24.072,24.072,0,0,1-3.467.971,4.094,4.094,0,0,0-3.187,2.247c-.049.088-.095.172-.141.248-.416.693-.416,5.269-.277,8.042A53.79,53.79,0,0,1,1.555,52.5C1.37,49.768,1,43.4,1,39.739,1,35.163,3.773,33.915,5.3,34.054Zm6.934-7.21a9.534,9.534,0,0,0-2.773,9.29c.708,2.974,2.935,4.9,5.167,6.828,2.138,1.849,4.281,3.7,5.1,6.483A6.668,6.668,0,0,0,18.75,45.7,11.854,11.854,0,0,0,16.6,43.786c-2.5-1.964-6.2-4.872-6.591-8.623A11.309,11.309,0,0,1,12.232,26.843Zm-.277,1.109q-.043.069-.086.145A1.636,1.636,0,0,1,11.955,27.953Zm-.086.145a7.389,7.389,0,0,0,.779,8.036,18.294,18.294,0,0,0,7.488,5.685C26.1,44.222,38.552,50.942,40.66,58.6A22.128,22.128,0,0,0,29.566,45.7c-1.775-.887-3.4-1.675-4.881-2.392-5.924-2.871-9.541-4.624-11.205-7.175C11.475,33.06,11.145,29.47,11.869,28.1Zm9.238,4.57C16,31,13.619,28.184,13.064,26.982a28.325,28.325,0,0,0,9.014,5.269c1.382.474,2.607.8,3.812,1.124h0a36.357,36.357,0,0,1,10.887,4.561c5.547,3.328,7.581,8.227,7.9,10.261-1.664-4.437-5.547-7.765-9.43-10.261-2.868-1.844-5.735-2.7-9.609-3.865h0C24.272,33.66,22.775,33.211,21.107,32.667Zm4.12-4.106c-1.427.111-2.871.224-4.12.224a9.746,9.746,0,0,1-4.992-1.525c3.42,1.294,5.485,1.048,8.412.7a51.075,51.075,0,0,1,5.317-.421A21.521,21.521,0,0,1,41.492,31c-3.605-1.941-9.152-2.5-11.51-2.635a38.868,38.868,0,0,0-4.755.193h0Z" transform="translate(-0.19 -0.19)" fill="#f36f21" stroke="#f36f21" stroke-linecap="round" stroke-linejoin="round" stroke-width="0.5" fill-rule="evenodd"/>
      <path id="Path_4243" data-name="Path 4243" d="M19.948,1.843l-.009.069Zm-11.226,9-.069-.008a.069.069,0,0,0,0,.009Zm17.6,9.853-.05-.047a.069.069,0,0,0,.1.1Zm2.5-6.931.069,0h0ZM21.75,1.427l.022-.066ZM8.722,10.813H8.652a.069.069,0,0,0,.139,0Zm0-.376H8.79a.069.069,0,0,0-.138-.006Zm-.108,2.771,0,.069a.069.069,0,0,0,.066-.07Zm-.031,0,0-.069a.069.069,0,0,0-.006.138Zm.031,0h.069a.069.069,0,0,0-.059-.068Zm.072,1.99.019.067a.069.069,0,0,0,.05-.071ZM7.75,15.15l.027-.064a.069.069,0,0,0-.092.089Zm.963.444.069-.005a.069.069,0,0,0-.06-.063ZM14.4,26.932,14.379,27l.013,0Zm7.347-5.96-.064-.027v0Zm.832-9.287.069,0a.069.069,0,0,0-.139,0ZM15.1,26.516v.069h0ZM9.023,15.874l.054-.044a.069.069,0,0,0-.122.052Zm3.579.107.045.052a.069.069,0,0,0-.083-.111Zm-1.053.427-.051-.047a.069.069,0,0,0,.066.115Zm.147-.91,0-.069a.069.069,0,0,0-.067.1Zm1.183.344-.055.042a.069.069,0,0,0,.114-.078Zm-3.785-.781.025.065h0Zm-.154.058-.069.007a.069.069,0,0,0,.093.058Zm-.145-1.874.013-.068a.069.069,0,0,0-.082.072Zm1.728.518-.027.064h0Zm2.5.693.031.062a.069.069,0,0,0,.009-.118ZM8.792,13.2l-.069,0a.069.069,0,0,0,.071.066Zm-.055-1.383-.018-.067a.069.069,0,0,0-.052.069ZM22.443,13.07l-.034.06a.069.069,0,0,0,.075-.117ZM8.737,11.814l-.069,0a.069.069,0,0,0,.1.06Zm-.016-.963-.053-.044a.07.07,0,0,0-.016.045Zm13.444.556-.041.056a.069.069,0,0,0,.092-.1ZM8.722,10.851H8.652a.069.069,0,0,0,.125.041Zm.271,4.77,0-.069a.069.069,0,0,0-.073.077Zm.028.242-.069.008a.069.069,0,0,0,.025.045Zm1.365.6-.01.069a.069.069,0,0,0,.056-.12Zm-.236-.888.066.022a.069.069,0,0,0-.074-.091Zm6.056.543.031-.062a.069.069,0,0,0-.07.119Zm1.083.319-.01.069a.069.069,0,0,0,.058-.118Zm2.52-.6.055.042a.069.069,0,0,0-.1-.1Zm-1.346.581-.05-.048a.069.069,0,0,0,.062.117Zm.185-.87.015-.068a.069.069,0,0,0-.08.092Zm.026.006.015-.068h0Zm.026.006.016-.068h0Zm2.356-.277.054.043a.069.069,0,0,0-.071-.111Zm-.99-.163.021-.066h0Zm-1.782-.392.006-.069h0Zm-2.356,1.109L15.87,15.8a.069.069,0,0,0,.1.095Zm1.2-.383.061.032a.069.069,0,0,0-.069-.1Zm4.481-1.835-.005.069a.069.069,0,0,0,.041-.129Zm-5.822.832-.034-.061a.069.069,0,0,0,.008.125Zm3.049-.832.01.069h0Zm-1.317.443L17.5,14l0,0Zm0,0,.027.064,0,0ZM12.047,22.5l.022-.066a.069.069,0,0,0-.089.083Zm.97-.139-.031-.062h0Zm3.743.139-.031-.062h0Zm-1.109-.139-.038.058.017.008ZM14.4,22.219l-.031.062a.069.069,0,0,0,.08-.013Zm2.911,4.574,0-.069a.069.069,0,0,0-.015.136Zm5.822-1.525.049.049a.069.069,0,0,0-.093-.1ZM14.068,20.3l.04-.056h0ZM13.545,20l.028-.064h0Zm.575.46.066.021h0Zm-.133.1v-.069h0Zm-.51-.037.012-.068h0Zm-.3-.1-.036.059h0Zm-.121-.117.06-.035h0Zm-.032-.188-.068-.013h0Zm.1-.15.038.058h0Zm.152-.039v.069h0Zm1.827.43-.04-.056a.069.069,0,0,0,.04.126Zm.832-.277L16,20.065h0Zm12.059-.769.047-.051a.069.069,0,0,0-.106.088Zm-.139,6.653L27.8,25.91a.069.069,0,0,0,.084.11ZM8.859,33.447l.027.063a.069.069,0,0,0-.044-.131Zm-3.743.416.006-.069h0Zm.277.554-.015-.068h0ZM2.207,36.664l-.061-.034h0Zm-.141.248-.059-.036h0Zm-.277,8.04-.069,0ZM1.374,52.3l-.069,0a.069.069,0,0,0,.138,0Zm7.9-16.356-.067.016h0Zm2.772-9.287.051.047a.069.069,0,0,0-.1-.1Zm2.392,16.113.045-.052h0Zm5.093,6.481-.067.019a.069.069,0,0,0,.136-.015Zm-.97-3.743.058-.039h0Zm-2.144-1.915.043-.054h0Zm-6.588-8.62.069-.007h0Zm1.941-7.208.059.037a.069.069,0,0,0-.117-.075Zm.693,8.178-.055.042h0Zm7.485,5.683.026-.064h0ZM40.463,58.4l-.067.018a.069.069,0,0,0,.134-.036ZM29.374,45.506l.031-.062h0ZM24.5,43.114l-.03.062h0Zm-11.2-7.173-.058.038h0Zm-.416-9.149.049-.049a.069.069,0,0,0-.112.078Zm8.04,5.683-.021.066h0Zm.97-.416.022-.066h0Zm3.81,1.123-.018.067h0Zm0,0,.018-.067h0Zm10.883,4.56.036-.06h0ZM44.482,48l-.065.024a.069.069,0,0,0,.133-.035ZM35.057,37.744l.037-.058h0ZM25.452,33.88l-.022.066h0Zm0,0,.022-.066-.005,0Zm0,0-.02.066h0Zm-.416-5.508.005.069h0Zm-9.108-1.3.025-.065a.069.069,0,0,0-.064.122Zm8.408.7.008.069h0Zm5.315-.421v-.069h0Zm11.644,3.465-.033.061a.069.069,0,0,0,.073-.118Zm-11.5-2.634,0,.069h0Zm-4.753.193-.005-.069h0Zm0,0v.069h.01Zm0,0V28.3H25.03Zm-5.08-26.6a9.281,9.281,0,0,0-8.506,2.864,11.8,11.8,0,0,0-2.8,6.194l.138.017a11.664,11.664,0,0,1,2.763-6.118,9.143,9.143,0,0,1,8.386-2.82Zm6.768,18.542a10.282,10.282,0,0,0,1.24-4.156,19.685,19.685,0,0,0-.186-5.923c-.773-4.055-3.024-7.864-7.822-8.463l-.017.138c4.711.589,6.935,4.324,7.7,8.352a19.546,19.546,0,0,1,.185,5.88,10.156,10.156,0,0,1-1.218,4.1Zm-.113-.08a4.57,4.57,0,0,1-.338.411l.1.095a4.7,4.7,0,0,0,.348-.423Zm-.24.509a2.486,2.486,0,0,0,.353-.429l-.115-.077a2.346,2.346,0,0,1-.333.405Zm2.378-6.985a12.494,12.494,0,0,1-2.138,6.477l.111.082a12.632,12.632,0,0,0,2.166-6.551ZM21.727,1.492c5.225,1.788,7.3,7.708,7.022,12.267l.139.008c.278-4.589-1.807-10.59-7.116-12.406ZM8.791,10.815c.148-4.606,2.08-7.378,4.618-8.779a10.512,10.512,0,0,1,8.319-.543l.045-.131a10.65,10.65,0,0,0-8.431.553c-2.587,1.428-4.54,4.249-4.689,8.9Zm-.14-.378q0,.19,0,.376h.139q0-.186,0-.376Zm.031,2.77c-.006-1.03.037-1.973.108-2.764l-.138-.012c-.072.8-.114,1.743-.108,2.777Zm-.073-.069-.031,0,.008.138.03,0Zm-.037.139.03,0,.021-.137-.031,0ZM8.754,15.2c-.046-.685-.068-1.352-.072-1.986H8.543c0,.637.026,1.307.072,1.995Zm-1.031.014a1.365,1.365,0,0,0,.981.057l-.038-.133a1.227,1.227,0,0,1-.888-.051Zm1,.312a2,2,0,0,1-.674-.192.489.489,0,0,1-.234-.21l-.129.051a.617.617,0,0,0,.3.281,2.135,2.135,0,0,0,.721.207Zm5.706,11.342a7.7,7.7,0,0,1-4.13-4.461,22.165,22.165,0,0,1-1.516-6.817l-.138.011a22.3,22.3,0,0,0,1.527,6.861A7.831,7.831,0,0,0,14.379,27Zm7.257-5.919c-1.985,5.4-5.688,6.187-7.27,5.916L14.392,27c1.653.283,5.417-.542,7.423-6Zm.827-9.26c.222,5.319-.462,8.393-.826,9.257l.128.054c.375-.892,1.059-3.99.837-9.317ZM15.1,26.585c3.15-.056,5.061-2.578,6.17-5.667a27.786,27.786,0,0,0,1.383-9.236l-.139,0a27.648,27.648,0,0,1-1.375,9.186c-1.1,3.075-2.982,5.52-6.042,5.575Zm-6.144-10.7c.5,4.15,1.58,6.813,2.758,8.445a4.653,4.653,0,0,0,3.382,2.257l0-.139a4.522,4.522,0,0,1-3.273-2.2c-1.16-1.607-2.23-4.246-2.733-8.381Zm3.6.046a2.476,2.476,0,0,1-2.146.7,2.387,2.387,0,0,1-1.334-.8l-.107.088a2.525,2.525,0,0,0,1.414.851,2.613,2.613,0,0,0,2.263-.736Zm-.993.547a3.487,3.487,0,0,0,1.075-.436l-.075-.117a3.349,3.349,0,0,1-1.031.417Zm.137-.633a.759.759,0,0,1-.2.518l.1.094a.9.9,0,0,0,.24-.612Zm-.068-.316a.759.759,0,0,1,.068.316h.139a.9.9,0,0,0-.081-.373Zm1.3.274a.806.806,0,0,0-.381-.226,3.247,3.247,0,0,0-.854-.146l-.008.138a3.113,3.113,0,0,1,.817.138.688.688,0,0,1,.315.178Zm-2.273-1a2.617,2.617,0,0,1,2.159,1.076l.118-.073a2.753,2.753,0,0,0-2.277-1.141Zm-1.543.323a3.974,3.974,0,0,1,1.543-.323v-.139A4.11,4.11,0,0,0,9.069,15Zm-.155.058.155-.058L9.069,15l-.154.058Zm-.238-1.936q.054.983.145,1.877l.138-.014q-.09-.892-.144-1.871Zm.056.064a8.759,8.759,0,0,1,1.713.514l.055-.127a8.9,8.9,0,0,0-1.742-.523Zm1.713.514a14.641,14.641,0,0,0,1.515.557,4.91,4.91,0,0,0,.627.149,1.437,1.437,0,0,0,.235.019.418.418,0,0,0,.177-.034l-.062-.124a.29.29,0,0,1-.117.02,1.3,1.3,0,0,1-.212-.018,4.776,4.776,0,0,1-.608-.145,14.5,14.5,0,0,1-1.5-.552Zm2.563.573a7.747,7.747,0,0,0-4.267-1.268l0,.139a7.61,7.61,0,0,1,4.183,1.243ZM8.668,11.82q.018.714.055,1.385l.138-.007q-.036-.669-.055-1.381Zm.087.065a23.084,23.084,0,0,1,6.082-.627,16.281,16.281,0,0,1,7.571,1.872l.069-.12a16.417,16.417,0,0,0-7.636-1.89,23.22,23.22,0,0,0-6.121.631Zm13.728,1.129a15.1,15.1,0,0,0-5.651-2.322,12.366,12.366,0,0,0-8.127,1.06l.064.123a12.228,12.228,0,0,1,8.037-1.047,14.961,14.961,0,0,1,5.6,2.3ZM8.652,10.851q0,.492.016.964l.139,0q-.012-.471-.016-.962Zm.123.044a7.24,7.24,0,0,1,4.706-2.337c2.279-.254,5.218.364,8.643,2.9l.083-.111c-3.448-2.558-6.421-3.189-8.741-2.931a7.377,7.377,0,0,0-4.8,2.386Zm13.441.464a12.823,12.823,0,0,0-6.022-3.606,6.866,6.866,0,0,0-3.84.164,7.912,7.912,0,0,0-3.687,2.892l.111.083A7.775,7.775,0,0,1,12.4,8.048a6.728,6.728,0,0,1,3.764-.16,12.686,12.686,0,0,1,5.952,3.567ZM8.652,10.841s0,.006,0,.01h.139s0-.006,0-.01Zm.272,4.787q.014.122.029.242l.138-.017q-.015-.12-.028-.241Zm.054.288a2.808,2.808,0,0,0,1.4.617L10.4,16.4a2.669,2.669,0,0,1-1.331-.587Zm1.455.5a.76.76,0,0,1-.256-.57h-.139a.9.9,0,0,0,.3.674Zm-.256-.57a.761.761,0,0,1,.04-.244l-.131-.044a.9.9,0,0,0-.047.288Zm-.034-.335A6.6,6.6,0,0,1,9,15.551l-.008.138a6.736,6.736,0,0,0,1.169-.044Zm6.033.674a3.725,3.725,0,0,0,1.1.326l.019-.137a3.587,3.587,0,0,1-1.062-.312Zm3.58-.381a2.322,2.322,0,0,1-1.271.8,2.756,2.756,0,0,1-2.239-.534l-.079.114a2.893,2.893,0,0,0,2.349.554,2.46,2.46,0,0,0,1.349-.846Zm-1.278.692a3.2,3.2,0,0,0,1.375-.594l-.083-.111a3.067,3.067,0,0,1-1.316.568Zm.155-.649a.76.76,0,0,1-.217.533l.1.1a.9.9,0,0,0,.256-.629Zm-.047-.265a.76.76,0,0,1,.047.265h.139a.9.9,0,0,0-.056-.313Zm.106-.086-.026-.006-.03.135.026.006Zm.026.006-.026-.006-.031.135.026.006ZM21,15.245a1.194,1.194,0,0,1-.667.326,3.777,3.777,0,0,1-1.619-.073l-.031.135a3.912,3.912,0,0,0,1.679.073,1.32,1.32,0,0,0,.747-.374Zm-.957-.054a5.453,5.453,0,0,0,.557.159,1.058,1.058,0,0,0,.471.005l-.034-.134a.923.923,0,0,1-.41-.007,5.337,5.337,0,0,1-.542-.155ZM18.278,14.8a7.678,7.678,0,0,1,1.768.389l.042-.132a7.815,7.815,0,0,0-1.8-.395Zm-2.292,1.078A2.6,2.6,0,0,1,18.278,14.8l.013-.138A2.735,2.735,0,0,0,15.87,15.8Zm1.137-.491a2.771,2.771,0,0,0-1.235.4l.081.113a2.641,2.641,0,0,1,1.17-.371Zm-.016.452a.759.759,0,0,1,.086-.351l-.123-.064a.9.9,0,0,0-.1.415Zm.231.546a.76.76,0,0,1-.231-.546h-.139a.9.9,0,0,0,.273.646Zm4.31-2.824a4.337,4.337,0,0,0-3.118-.227A11.126,11.126,0,0,0,15.756,14.4l.067.121a10.986,10.986,0,0,1,2.737-1.043,4.2,4.2,0,0,1,3.016.21Zm-2.8.128a16.245,16.245,0,0,1,2.757,0l.011-.138a16.356,16.356,0,0,0-2.787,0Zm-1.3.438a5.89,5.89,0,0,1,1.3-.438l-.02-.137A6,6,0,0,0,17.5,14Zm0,0h0l-.062-.124h0Zm-1.789.391a1.31,1.31,0,0,0,.814-.026,8.682,8.682,0,0,0,.97-.364L17.495,14a8.554,8.554,0,0,1-.954.358,1.18,1.18,0,0,1-.726.031Zm-3.739,8.041a1.457,1.457,0,0,0,1.023-.142l-.062-.124a1.326,1.326,0,0,1-.917.135Zm2.386,1.251a3.556,3.556,0,0,1-1.588-.629,3.38,3.38,0,0,1-.5-.422,1.525,1.525,0,0,1-.145-.172.382.382,0,0,1-.059-.11l-.134.034a.507.507,0,0,0,.081.157,1.666,1.666,0,0,0,.159.189,3.519,3.519,0,0,0,.525.44,3.694,3.694,0,0,0,1.652.653Zm2.38-1.255c.006,0,.006,0,0,0a.06.06,0,0,1-.066-.063s0-.005,0,0a.735.735,0,0,1-.1.136,3.871,3.871,0,0,1-.521.506,2.5,2.5,0,0,1-1.7.678l-.015.138a2.635,2.635,0,0,0,1.8-.708,4.006,4.006,0,0,0,.54-.525.832.832,0,0,0,.115-.169.141.141,0,0,0,.011-.04.079.079,0,0,0-.095-.089.147.147,0,0,0-.041.014Zm-1.162-.135a4.283,4.283,0,0,0,.585.148,2,2,0,0,0,.317.032.588.588,0,0,0,.259-.045l-.062-.124a.46.46,0,0,1-.2.031,1.863,1.863,0,0,1-.294-.03,4.148,4.148,0,0,1-.565-.143Zm-1.177-.155c.109-.109.514-.284,1.16.147l.077-.115c-.684-.456-1.166-.3-1.335-.13Zm-1.4.152a2.552,2.552,0,0,1,.673-.271,1.015,1.015,0,0,1,.651.132l.062-.124a1.151,1.151,0,0,0-.735-.145,2.669,2.669,0,0,0-.713.284Zm4.27,4.443a21.625,21.625,0,0,0,3-.424,7.343,7.343,0,0,0,2.86-1.116l-.088-.107a7.224,7.224,0,0,1-2.8,1.088,21.48,21.48,0,0,1-2.98.421Zm5.768-1.643a6.137,6.137,0,0,1-5.753,1.507l-.039.133a6.276,6.276,0,0,0,5.89-1.542Zm-8.979-4.972a3.258,3.258,0,0,0-.535-.312l-.055.127a3.122,3.122,0,0,1,.51.3Zm.078.233a.208.208,0,0,0-.078-.233l-.08.113a.069.069,0,0,1,.026.078Zm-.2.145a.208.208,0,0,0,.2-.145l-.132-.042a.069.069,0,0,1-.066.048Zm0,0h0v-.139h0Zm-.522-.038a3.2,3.2,0,0,0,.522.038v-.139a3.061,3.061,0,0,1-.5-.036Zm-.327-.109a.977.977,0,0,0,.327.109l.024-.137a.844.844,0,0,1-.28-.091Zm-.145-.141a.412.412,0,0,0,.145.141l.072-.119a.275.275,0,0,1-.1-.093Zm-.04-.236a.336.336,0,0,0,.04.236l.119-.07a.2.2,0,0,1-.024-.14Zm.128-.2a.293.293,0,0,0-.128.2l.136.026a.155.155,0,0,1,.068-.1Zm.191-.05a.337.337,0,0,0-.191.05l.075.116a.2.2,0,0,1,.113-.028Zm.3.08a.84.84,0,0,0-.3-.08l0,.139a.708.708,0,0,1,.249.068Zm1.564.476a2.989,2.989,0,0,1,.485-.284.583.583,0,0,1,.2-.057.066.066,0,0,1,.035.006s0,0,.007.014L16,20.065a.155.155,0,0,0-.068-.1.2.2,0,0,0-.113-.028.709.709,0,0,0-.249.068,3.126,3.126,0,0,0-.51.3Zm.723-.321a.059.059,0,0,1-.007.043.139.139,0,0,1-.049.045.714.714,0,0,1-.232.073,2.932,2.932,0,0,1-.475.034v.139a3.068,3.068,0,0,0,.5-.036.845.845,0,0,0,.28-.091.275.275,0,0,0,.1-.093.2.2,0,0,0,.024-.14Zm12.069-.745a7.591,7.591,0,0,1,1.081,3.068,3.928,3.928,0,0,1-1.208,3.5l.093.1A4.066,4.066,0,0,0,29.148,22.4a7.731,7.731,0,0,0-1.1-3.128Zm-.043,6.675a4.4,4.4,0,0,0,1.884-2.551c.278-1.189-.058-2.646-1.736-4.211l-.095.1c1.65,1.54,1.96,2.948,1.7,4.078A4.257,4.257,0,0,1,27.811,25.9ZM8.842,33.379a13.513,13.513,0,0,1-3.719.414l-.013.138a13.643,13.643,0,0,0,3.766-.418ZM5.409,34.485a24.115,24.115,0,0,0,3.478-.974l-.055-.127a24.026,24.026,0,0,1-3.453.966ZM2.268,36.7a4.012,4.012,0,0,1,.893-1.187,4.929,4.929,0,0,1,2.248-1.026l-.03-.135A5.062,5.062,0,0,0,3.07,35.406a4.151,4.151,0,0,0-.923,1.224Zm-.142.25c.047-.078.093-.162.142-.25l-.121-.067c-.049.089-.094.171-.139.246Zm-.267,8c-.069-1.384-.1-3.219-.069-4.794.017-.788.052-1.509.108-2.076.028-.284.061-.528.1-.721a1.415,1.415,0,0,1,.128-.409l-.119-.071a1.53,1.53,0,0,0-.146.453c-.04.2-.074.449-.1.735-.057.572-.091,1.3-.109,2.087-.035,1.579,0,3.417.069,4.8Zm-.416,7.358a53.842,53.842,0,0,0,.416-7.358l-.138.007A53.722,53.722,0,0,1,1.3,52.29ZM.75,39.546c0,3.662.37,10.031.555,12.757l.138-.009C1.258,49.567.889,43.2.889,39.546Zm4.373-5.752a3.634,3.634,0,0,0-2.775,1.094,6.265,6.265,0,0,0-1.6,4.659H.889a6.129,6.129,0,0,1,1.556-4.56A3.5,3.5,0,0,1,5.11,33.932Zm4.22,2.132a9.463,9.463,0,0,1,2.749-9.218L12,26.6a9.6,9.6,0,0,0-2.8,9.356Zm5.142,6.79c-2.234-1.931-4.441-3.842-5.142-6.79l-.135.032c.714,3,2.959,4.937,5.187,6.863ZM19.6,49.229c-.821-2.8-2.98-4.668-5.114-6.513l-.091.1c2.14,1.85,4.264,3.69,5.072,6.448ZM18.5,45.544a6.6,6.6,0,0,1,.959,3.7l.138.009a6.735,6.735,0,0,0-.982-3.786Zm-2.13-1.9c.506.4.961.755,1.329,1.073a4.647,4.647,0,0,1,.8.825l.115-.077a4.766,4.766,0,0,0-.825-.853c-.371-.321-.829-.681-1.334-1.078ZM9.76,34.979A9.161,9.161,0,0,0,12.283,40a31.417,31.417,0,0,0,4.091,3.649l.086-.109A31.294,31.294,0,0,1,12.387,39.9,9.025,9.025,0,0,1,9.9,34.964ZM12,26.608A11.373,11.373,0,0,0,9.76,34.979l.138-.015A11.239,11.239,0,0,1,12.1,26.7Zm-.285,1.119q-.043.07-.087.147l.121.068q.042-.075.084-.142Zm.034.214a1.576,1.576,0,0,1,.082-.139l-.115-.077a1.71,1.71,0,0,0-.089.151Zm.773,7.959a7.318,7.318,0,0,1-.773-7.957l-.121-.068a7.457,7.457,0,0,0,.784,8.11Zm7.453,5.66a18.217,18.217,0,0,1-7.453-5.66l-.11.085a18.353,18.353,0,0,0,7.517,5.706ZM40.529,58.378c-1.06-3.85-4.717-7.455-8.839-10.392a60.634,60.634,0,0,0-11.717-6.426l-.052.128A60.5,60.5,0,0,1,31.61,48.1c4.118,2.935,7.739,6.515,8.786,10.316ZM29.343,45.568A22.052,22.052,0,0,1,40.4,58.415l.134-.035A22.19,22.19,0,0,0,29.4,45.444Zm-4.878-2.391c1.48.717,3.1,1.5,4.878,2.391l.062-.124c-1.774-.887-3.4-1.675-4.879-2.392Zm-11.228-7.2a11.963,11.963,0,0,0,4.026,3.488c1.855,1.118,4.243,2.275,7.2,3.709l.06-.125c-2.962-1.435-5.343-2.59-7.192-3.7A11.834,11.834,0,0,1,13.353,35.9Zm-1.614-8.1A5.9,5.9,0,0,0,11.4,31.3a12.487,12.487,0,0,0,1.838,4.681l.116-.076a12.346,12.346,0,0,1-1.818-4.628,5.774,5.774,0,0,1,.211-3.335Zm1.193-1.054c.564,1.223,2.966,4.052,8.081,5.72l.043-.132c-5.087-1.659-7.453-4.466-8-5.646Zm9.1,5.173a28.252,28.252,0,0,1-8.983-5.251l-.1.1a28.374,28.374,0,0,0,9.036,5.284Zm3.806,1.122c-1.2-.322-2.427-.649-3.806-1.122l-.045.131c1.384.475,2.611.8,3.815,1.125Zm0,0h0l-.027.136h0Zm10.9,4.568a36.409,36.409,0,0,0-10.9-4.567l-.036.134A36.272,36.272,0,0,1,36.546,37.8ZM44.551,47.99c-.327-2.052-2.371-6.968-7.934-10.306l-.072.119c5.526,3.315,7.548,8.195,7.868,10.209ZM35.019,37.8c3.878,2.493,7.743,5.809,9.4,10.223l.13-.049c-1.671-4.457-5.568-7.794-9.453-10.291Zm-9.588-3.856c3.873,1.162,6.73,2.019,9.588,3.856l.075-.117c-2.876-1.849-5.752-2.711-9.623-3.872Zm0,0h0l.044-.131h0Zm0,0h0l.044-.131h0Zm.005,0h0l.034-.134h0Zm-4.538-1.4c1.668.544,3.165.993,4.535,1.4l.04-.133c-1.37-.411-2.866-.86-4.532-1.4Zm.021-3.878c1.251,0,2.7-.113,4.123-.223l-.011-.138c-1.427.111-2.868.223-4.113.223Zm-5.029-1.537a9.809,9.809,0,0,0,5.029,1.537v-.139a9.673,9.673,0,0,1-4.951-1.513Zm8.439.572c-2.923.349-4.973.593-8.375-.694l-.049.13c3.435,1.3,5.513,1.052,8.441.7Zm5.321-.422a51.107,51.107,0,0,0-5.321.422l.016.138a50.988,50.988,0,0,1,5.308-.421Zm11.685,3.478a21.58,21.58,0,0,0-11.685-3.478l0,.139a21.442,21.442,0,0,1,11.6,3.453ZM29.785,28.248a43.682,43.682,0,0,1,5.276.64,22.09,22.09,0,0,1,6.2,1.985l.066-.122a22.248,22.248,0,0,0-6.241-2,43.786,43.786,0,0,0-5.293-.642Zm-4.744.193a38.728,38.728,0,0,1,4.744-.193l.008-.138a38.893,38.893,0,0,0-4.763.193Zm0,0h0l-.02-.137h0Zm-.01,0h0V28.3h0Zm.006,0h0L25.03,28.3h0Z" transform="translate(0 0)" fill="#f36f21" stroke="#f36f21" stroke-linecap="round" stroke-linejoin="round" stroke-width="0.5"/>
    </g>
  </g>
</svg>
