<svg xmlns="http://www.w3.org/2000/svg" width="144" height="82.684" viewBox="0 0 144 82.684">
  <g id="Branchless_Banking_orange" data-name="Branchless Banking orange" transform="translate(1)">
    <text id="Branchless_banking" data-name="Branchless banking" transform="translate(71 78.684)" fill="#f36f21" font-size="16" font-family="Roboto-Bold, Roboto" font-weight="700"><tspan x="-71.305" y="0">Branchless Banking</tspan></text>
    <g id="Layer_2" data-name="Layer 2" transform="translate(40.158)">
      <g id="Layer_1" data-name="Layer 1" transform="translate(-0.012)">
        <g id="ByrdCs.tif" transform="translate(0)">
          <path id="Path_4204" data-name="Path 4204" d="M57.295,41.009h3.59c.783,0,1.1.317,1.1,1.088a7.716,7.716,0,0,1-6.045,7.684,8.089,8.089,0,0,1-1.853.208Q30.98,50.007,7.871,50a7.7,7.7,0,0,1-7.637-5.71,11.292,11.292,0,0,1-.245-2.245c-.028-.6.338-.928.956-.932,1.115-.006,2.23,0,3.345,0h.368V5.373A5.326,5.326,0,0,1,8.856.144,6.047,6.047,0,0,1,10.193.006Q30.988,0,51.777,0a5.375,5.375,0,0,1,5.456,4.531,6.084,6.084,0,0,1,.059,1.025q0,17.489,0,34.975Zm-1.974.082V5.41a3.477,3.477,0,0,0-3.607-3.549H10.251a5.2,5.2,0,0,0-.673.028A3.566,3.566,0,0,0,6.535,5.466q.033,17.651.012,35.3c0,.105.01.212.016.317Zm4.687,1.893H1.95c.013.121.02.222.038.319a5.856,5.856,0,0,0,5.881,4.836H54.123a5.786,5.786,0,0,0,4.628-2.17A5.4,5.4,0,0,0,60.008,42.984Z" transform="translate(0.012 0)" fill="#f36f21"/>
          <path id="Path_4205" data-name="Path 4205" d="M203.5,371.036h-5.62a2.374,2.374,0,0,1-.456-.034.91.91,0,0,1-.738-.948.864.864,0,0,1,.833-.884h11.82a.9.9,0,0,1,.949,1.148.813.813,0,0,1-.712.693,3.592,3.592,0,0,1-.488.03Z" transform="translate(-172.554 -324.586)" fill="#f36f21"/>
        </g>
        <path id="Path_4206" data-name="Path 4206" d="M154.035,91.721a13.786,13.786,0,0,1,.029-27.572h.03A13.659,13.659,0,0,1,163.85,68.2a13.877,13.877,0,0,1,4.034,9.837,13.5,13.5,0,0,1-4.078,9.645,13.833,13.833,0,0,1-9.756,4.049ZM148.8,85.449l.078.152c.92,1.812,2,3.644,4.206,4.4l.161.055V84.848Zm6.054,4.56.151-.038c1.574-.39,3.3-2.2,4.206-4.39l.06-.146-4.417-.6Zm4.482-1.134.34-.171a8.966,8.966,0,0,0,2.694-2l.122-.129-1.6-.639ZM145.459,86.7l2.941,2.159.178-.22-1.411-2.629ZM141.9,78.946a12.523,12.523,0,0,0,2.428,6.412l.059.079,2.257-1.02-.037-.106a20.212,20.212,0,0,1-.93-5.384l-.007-.115h-3.78Zm20.441-.1a24.489,24.489,0,0,1-.916,5.378l-.027.1,2.216,1,.06-.062c1.33-1.378,2.622-4.8,2.424-6.428l-.012-.107h-3.74Zm-14.912.132a18.647,18.647,0,0,0,.818,4.9l.034.09,4.951-.667V78.863h-5.8Zm7.465,4.227,4.974.668.032-.1a19.846,19.846,0,0,0,.821-4.878l.007-.129h-5.838Zm0-10.351v4.43h5.828l-.007-.128a20.027,20.027,0,0,0-.823-4.872l-.03-.1ZM144.455,70.7a10.816,10.816,0,0,0-2.439,6.43v.122h3.757l.006-.116a24.746,24.746,0,0,1,.922-5.391l.028-.1-2.22-1Zm16.943.948.035.1a20.153,20.153,0,0,1,.922,5.341l.007.115h3.781l-.012-.133a12.518,12.518,0,0,0-2.418-6.372l-.059-.079Zm-13.162.543a20.366,20.366,0,0,0-.824,4.783l-.009.129h5.834v-4.34l-4.973-.67Zm6.635-1.067,4.39-.591-.057-.145c-.763-1.951-2.587-4.173-4.2-4.363L154.871,66Zm-1.756-5.149c-2.2.789-3.334,2.579-4.232,4.39l-.076.152,4.471.6v-5.2Zm-4.649,1.28a7.9,7.9,0,0,0-2.7,2.016l-.113.129,1.585.635,1.552-2.927Zm11.079.063,1.423,2.633,1.72-.687-3.013-2.188Z" transform="translate(-123.016 -56.476)" fill="#f36f21"/>
      </g>
    </g>
  </g>
</svg>
