<svg xmlns="http://www.w3.org/2000/svg" width="15" height="15" viewBox="0 0 15 15">
  <g id="Group_2277" data-name="Group 2277" transform="translate(-209 -332.89)">
    <path id="Path_2555" data-name="Path 2555" d="M291.415,479.656a.508.508,0,0,0-.509.508v1.446a.509.509,0,0,0,1.017,0v-1.446a.509.509,0,0,0-.508-.508Zm0,0" transform="translate(-74.915 -134.229)" fill="#f46f22"/>
    <path id="Path_2556" data-name="Path 2556" d="M291.415,335.353a.509.509,0,0,0,.508-.509V333.4a.509.509,0,1,0-1.017,0v1.446a.508.508,0,0,0,.509.509Zm0,0" transform="translate(-74.915 0)" fill="#f46f22"/>
    <path id="Path_2557" data-name="Path 2557" d="M234.16,460.808l-1.023,1.022a.509.509,0,0,0,.719.719l1.023-1.022a.508.508,0,0,0-.719-.719Zm0,0" transform="translate(-21.955 -116.842)" fill="#f46f22"/>
    <path id="Path_2558" data-name="Path 2558" d="M337.274,358.918a.507.507,0,0,0,.36-.149l1.023-1.022a.509.509,0,0,0-.719-.719l-1.023,1.022a.508.508,0,0,0,.36.868Zm0,0" transform="translate(-116.839 -21.956)" fill="#f46f22"/>
    <path id="Path_2559" data-name="Path 2559" d="M211.463,415.312a.509.509,0,0,0-.508-.508h-1.446a.508.508,0,1,0,0,1.017h1.446a.509.509,0,0,0,.508-.509Zm0,0" transform="translate(0 -74.923)" fill="#f46f22"/>
    <path id="Path_2560" data-name="Path 2560" d="M357.717,414.8h-1.446a.508.508,0,1,0,0,1.017h1.446a.508.508,0,1,0,0-1.017Zm0,0" transform="translate(-134.225 -74.923)" fill="#f46f22"/>
    <path id="Path_2561" data-name="Path 2561" d="M234.167,358.771a.508.508,0,1,0,.719-.719l-1.022-1.022a.509.509,0,1,0-.719.719Zm0,0" transform="translate(-21.962 -21.958)" fill="#f46f22"/>
    <path id="Path_2562" data-name="Path 2562" d="M337.642,460.809a.508.508,0,1,0-.719.719l1.022,1.022a.508.508,0,0,0,.719-.719Zm0,0" transform="translate(-116.846 -116.843)" fill="#f46f22"/>
    <path id="Path_2563" data-name="Path 2563" d="M254.218,374.1a4.007,4.007,0,1,0,4.007,4.007,4.012,4.012,0,0,0-4.007-4.007Zm0,6.985a2.978,2.978,0,1,1,2.978-2.977,2.981,2.981,0,0,1-2.978,2.977Zm0,0" transform="translate(-37.718 -37.718)" fill="#f46f22"/>
  </g>
</svg>
