<svg xmlns="http://www.w3.org/2000/svg" width="15" height="15" viewBox="0 0 15 15">
  <path id="Path_3865" data-name="Path 3865" d="M-133.406,4.966a6.766,6.766,0,0,0,2.937-.687.594.594,0,0,1,.666.018.549.549,0,0,1,.114.753A7.8,7.8,0,0,1-132.9,8.374a7.91,7.91,0,0,1-11.527-5.287,7.87,7.87,0,0,1,4.088-8.614c.331-.17.548-.162.747.03a.6.6,0,0,1,.058.748,6.789,6.789,0,0,0,5.058,9.617C-134.123,4.929-133.763,4.935-133.406,4.966Zm1.845.881a7.766,7.766,0,0,1-7.4-2.121,7.748,7.748,0,0,1-2.126-7.4,6.6,6.6,0,0,0-2.326,6.208,6.818,6.818,0,0,0,5.323,5.582A6.68,6.68,0,0,0-131.561,5.847Z" transform="translate(144.594 5.648)" fill="#afafaf"/>
</svg>
