<svg xmlns="http://www.w3.org/2000/svg" width="110" height="82.853" viewBox="0 0 110 82.853">
  <g id="Digital_banking_orange" data-name="Digital banking orange" transform="translate(1 0.15)">
    <text id="Digital_Banking" data-name="Digital Banking" transform="translate(54 78.703)" fill="#f36f21" font-size="16" font-family="Roboto-Bold, Roboto" font-weight="700"><tspan x="-54.43" y="0">Digital Banking</tspan></text>
    <g id="Layer_2" data-name="Layer 2" transform="translate(29.09)">
      <g id="Layer_1" data-name="Layer 1">
        <g id="_6iFqbk.tif" data-name="6iFqbk.tif">
          <path id="Path_4207" data-name="Path 4207" d="M27.052,0c.092.036.183.079.278.108a2.82,2.82,0,0,1,2.067,2.8q.009,5.871,0,11.741v.673H45.834A2.868,2.868,0,0,1,49,18.446V32.353a2.874,2.874,0,0,1-3.165,3.131H29.4V46.891A2.865,2.865,0,0,1,26.268,50H3.507C1.454,49.995.757,49.535,0,47.677V2.323A3.159,3.159,0,0,1,2.353,0ZM9.157,1.616H3.283c-1.258,0-1.646.381-1.646,1.616V46.775c0,1.207.4,1.6,1.608,1.6H26.057c1.33,0,1.707-.367,1.707-1.663V3.122c0-1.089-.435-1.515-1.554-1.515H20.242c-.219.851-.422,1.664-.637,2.476a.842.842,0,0,1-.979.748h-7.86a.842.842,0,0,1-.973-.755C9.579,3.271,9.374,2.459,9.157,1.616ZM29.443,23.4v2.367a.458.458,0,0,0,.114.033c.97,0,1.939,0,2.908.008.73,0,1.015.285,1.018,1.01v3.93c0,1.408-.1,1.515-1.534,1.515H29.427v1.616H45.819c1.112,0,1.548-.427,1.548-1.515V23.407Zm0-3.227v1.57H47.326v-1.57Zm17.9-1.639c.065-1.095-.394-1.595-1.437-1.595H29.84c-.132,0-.263.011-.409.017v1.578ZM11.253,3.207h6.9c.13-.523.257-1.035.391-1.572H10.861C10.993,2.168,11.117,2.671,11.253,3.207ZM31.831,27.456h-2.4v3.156h2.4Z" fill="#f36f21" stroke="#f36f21" stroke-width="0.3"/>
          <path id="Path_4208" data-name="Path 4208" d="M57.7,151.7a9.763,9.763,0,1,1-9.784,9.691A9.783,9.783,0,0,1,57.7,151.7Zm-.017,17.9a8.134,8.134,0,1,0-8.139-8.156,8.156,8.156,0,0,0,8.139,8.156Z" transform="translate(-43.036 -136.466)" fill="#f36f21" stroke="#f36f21" stroke-width="0.3"/>
          <path id="Path_4209" data-name="Path 4209" d="M107.889,456.717h-3.1c-.6,0-.964-.315-.967-.808s.359-.815.958-.815q3.1-.006,6.2,0c.6,0,.963.315.966.807s-.363.815-.958.815C109.953,456.721,108.922,456.717,107.889,456.717Z" transform="translate(-93.192 -409.163)" fill="#f36f21" stroke="#f36f21" stroke-width="0.3"/>
          <path id="Path_4210" data-name="Path 4210" d="M354.2,269.135h-3.457c-.612,0-.968-.306-.979-.8s.364-.828,1-.829h6.966c.605,0,.969.306.979.795.011.51-.366.828-1,.83C356.544,269.138,355.375,269.135,354.2,269.135Z" transform="translate(-313.939 -240.5)" fill="#f36f21" stroke="#f36f21" stroke-width="0.3"/>
          <path id="Path_4211" data-name="Path 4211" d="M372.11,293.994c-.51,0-1.019.009-1.529,0a.818.818,0,0,1-.894-.829.809.809,0,0,1,.878-.792q1.55-.017,3.1,0a.814.814,0,1,1,.016,1.621C373.16,294.006,372.636,293.994,372.11,293.994Z" transform="translate(-331.829 -262.845)" fill="#f36f21" stroke="#f36f21" stroke-width="0.3"/>
          <path id="Path_4212" data-name="Path 4212" d="M99.781,221.034l4.79-4.812c.119-.119.233-.246.36-.358a.811.811,0,0,1,1.181-.019.82.82,0,0,1-.043,1.182c-.056.063-.119.121-.178.181l-5.249,5.248c-.591.59-.877.612-1.529.117q-1.427-1.067-2.845-2.135c-.518-.389-.633-.842-.328-1.255s.772-.435,1.293-.05C98.077,219.758,98.914,220.387,99.781,221.034Z" transform="translate(-85.967 -193.857)" fill="#f36f21" stroke="#f36f21" stroke-width="0.3"/>
        </g>
      </g>
    </g>
  </g>
</svg>
