			<svg id="Layer_2" data-name="Layer 2" xmlns="http://www.w3.org/2000/svg" width="30.978" height="40" viewBox="0 0 30.978 40">
															<g id="Layer_1" data-name="Layer 1">
																<g id="ieak1S.tif">
																	<path id="Path_4147" data-name="Path 4147" d="M0,39.062V.937A1.452,1.452,0,0,1,.894,0h29.19a1.448,1.448,0,0,1,.894.937V39.062a1.647,1.647,0,0,1-.819.938h-.6c-.174-.1-.346-.193-.521-.285q-6.6-3.461-13.194-6.927a.672.672,0,0,0-.719.005c-1.345.723-2.7,1.421-4.052,2.129L1.415,40h-.6A1.637,1.637,0,0,1,0,39.062Zm28.714-36.7H2.279V36.9c.163-.078.287-.134.407-.2,3.989-2.093,7.982-4.177,11.962-6.289a1.628,1.628,0,0,1,1.683-.005c3.97,2.1,7.953,4.184,11.932,6.272.139.073.28.141.453.227Z" fill="#666"/>
																	<path id="Path_4148" data-name="Path 4148" d="M113.246,102.914a1.213,1.213,0,0,1-.472.876c-.9.873-1.787,1.76-2.7,2.615a.778.778,0,0,0-.246.813c.232,1.266.437,2.541.659,3.811a1.088,1.088,0,0,1-.435,1.148,1.1,1.1,0,0,1-1.259.047c-1.182-.628-2.364-1.255-3.558-1.862a.682.682,0,0,0-.535,0c-1.161.588-2.312,1.2-3.458,1.811a1.155,1.155,0,0,1-1.786-1.286c.223-1.232.421-2.468.649-3.7a.748.748,0,0,0-.246-.778c-.924-.865-1.813-1.767-2.728-2.641a1.18,1.18,0,0,1-.4-1.266,1.168,1.168,0,0,1,1.067-.794c1.277-.179,2.553-.368,3.83-.541a.634.634,0,0,0,.554-.4c.553-1.164,1.139-2.308,1.7-3.473a1.145,1.145,0,0,1,2.165-.007c.567,1.171,1.157,2.331,1.72,3.5a.584.584,0,0,0,.493.372c1.277.175,2.553.361,3.829.544C112.844,101.811,113.255,102.22,113.246,102.914Zm-11.231,6.324c.841-.442,1.6-.836,2.352-1.238a1.179,1.179,0,0,1,1.171-.01c.657.347,1.317.69,1.975,1.035l.4.206c-.156-.929-.287-1.771-.447-2.611a1.186,1.186,0,0,1,.372-1.144c.526-.509,1.042-1.025,1.576-1.528a1.487,1.487,0,0,1,.355-.185l-.121-.149c-.745-.112-1.489-.27-2.238-.325a1.5,1.5,0,0,1-1.422-1.051c-.11-.288-.272-.556-.41-.833-.2-.393-.39-.786-.617-1.246-.409.826-.789,1.573-1.149,2.33a1.249,1.249,0,0,1-1.06.764c-.209.023-.418.054-.626.085l-1.8.27c.582.617,1.161,1.244,1.756,1.856a1.245,1.245,0,0,1,.378,1.179C102.3,107.48,102.168,108.321,102.015,109.238Z" transform="translate(-89.474 -88.727)" fill="#666"/>
																</g>
															</g>
														</svg>