<svg xmlns="http://www.w3.org/2000/svg" xmlns:xlink="http://www.w3.org/1999/xlink" width="54" height="42" viewBox="0 0 54 42">
  <defs>
    <clipPath id="clip-path">
      <rect id="Rectangle_42" data-name="Rectangle 42" width="54" height="42" transform="translate(0 0)" fill="#666"/>
    </clipPath>
  </defs>
  <g id="Forex_Calculator" data-name="Forex Calculator" transform="translate(0 0)">
    <path id="Path_155" data-name="Path 155" d="M510.721,473.823H482V471.5a3.065,3.065,0,0,1,.9-2.167,3.065,3.065,0,0,0,.9-2.167V454.078A8.078,8.078,0,0,1,491.873,446h8.975a8.078,8.078,0,0,1,8.078,8.078v14.36l.9.9a3.064,3.064,0,0,1,.9,2.167Zm0,0" transform="translate(-457.722 -432.884)" fill="none"/>
    <path id="Path_156" data-name="Path 156" d="M550.975,405.18l.8-1.988a13.985,13.985,0,0,0,1-5.192H542a13.988,13.988,0,0,0,1,5.192l.8,1.988Zm0,0" transform="translate(-508.747 -392.064)" fill="none"/>
    <g id="Group_60" data-name="Group 60" transform="translate(0 0)">
      <g id="Group_59" data-name="Group 59" transform="translate(0 0)" clip-path="url(#clip-path)">
        <path id="Path_158" data-name="Path 158" d="M504.721,422.144V408.155a8.986,8.986,0,0,0-8.552-8.965l.307-.767a14.806,14.806,0,0,0,1.064-5.526.9.9,0,0,0-.9-.9h-10.77a.9.9,0,0,0-.9.9,14.806,14.806,0,0,0,1.064,5.526l.307.767a8.986,8.986,0,0,0-8.552,8.965v13.091a2.151,2.151,0,0,1-.635,1.532,3.934,3.934,0,0,0-1.161,2.8V427.9a.9.9,0,0,0,.9.9h28.721a.9.9,0,0,0,.9-.9V425.58a3.935,3.935,0,0,0-1.16-2.8ZM495.715,393.8a13,13,0,0,1-.906,3.962l-.569,1.423h-5.965l-.569-1.423a13,13,0,0,1-.906-3.962ZM504.721,427H477.795V425.58a2.151,2.151,0,0,1,.635-1.532,3.934,3.934,0,0,0,1.16-2.8V408.155a7.189,7.189,0,0,1,7.18-7.18h8.975a7.189,7.189,0,0,1,7.18,7.18v13.463h-4.885v1.8h5.411l.635.635a2.151,2.151,0,0,1,.635,1.532Zm0,0" transform="translate(-452.619 -386.961)" fill="#666"/>
        <path id="Path_159" data-name="Path 159" d="M555.936,490.721h-1.8a1.346,1.346,0,1,1,0-2.693h3.59v-1.8h-1.795v-1.8h-1.8v1.8a3.141,3.141,0,1,0,0,6.283h1.8a1.346,1.346,0,1,1,0,2.693h-4.488V497h2.693v1.43h1.8V497a3.141,3.141,0,0,0,0-6.283Zm0,0" transform="translate(-516.401 -465.572)" fill="#666"/>
        <path id="Path_160" data-name="Path 160" d="M320.9,535.95h20.643v-1.795h-3.59v-1.8h4.488v-1.8H337.95V528.77h5.385v-1.8H337.95V525.18h5.385v-1.8H331.668a2.7,2.7,0,0,1-2.693-2.693v-1.8a.9.9,0,0,0-.9-.9H320.9a.9.9,0,0,0-.9.9v1.8a4.461,4.461,0,0,0,.9,2.693h0a.9.9,0,0,0-.9.9v10.77a.9.9,0,0,0,.9.9Zm8.078-5.385H321.8V528.77h7.18Zm0-5.385v1.795H321.8V525.18Zm-7.18,7.18h7.18v1.8H321.8Zm14.36-7.18v8.975H330.77V525.18Zm-14.36-4.488v-.9h5.385v.9a4.462,4.462,0,0,0,.9,2.693h-3.592a2.7,2.7,0,0,1-2.693-2.693Zm0,0" transform="translate(-319.955 -494.113)" fill="#666"/>
      </g>
    </g>
    <path id="Path_161" data-name="Path 161" d="M390.438,372.77v-6.283A4.493,4.493,0,0,0,385.95,362H372.488A4.493,4.493,0,0,0,368,366.488v17.053h1.8V366.488a2.7,2.7,0,0,1,2.693-2.693H385.95a2.7,2.7,0,0,1,2.693,2.693v6.283Zm0,0" transform="translate(-360.775 -361.449)" fill="#666"/>
    <path id="Path_162" data-name="Path 162" d="M407.258,391.385V386.9a.9.9,0,0,0-.9-.9H392.9a.9.9,0,0,0-.9.9v4.488a.9.9,0,0,0,.9.9H406.36a.9.9,0,0,0,.9-.9Zm-1.8-.9H393.8V387.8h11.668Zm0,0" transform="translate(-381.185 -381.859)" fill="#666"/>
    <path id="Path_163" data-name="Path 163" d="M406.36,441.8V440H392.9a.9.9,0,0,0-.9.9V454.36a.9.9,0,0,0,.9.9h11.668v-1.8h-1.8v-7.18h1.8v-1.8h-1.8V441.8Zm-5.385,7.18h-2.693v-2.693h2.693Zm-7.18-2.693h2.693v2.693H393.8Zm7.18-1.8h-2.693V441.8h2.693ZM393.8,441.8h2.693v2.693H393.8Zm0,8.975h2.693v2.693H393.8Zm4.488,0h2.693v2.693h-2.693Zm0,0" transform="translate(-381.185 -427.781)" fill="#666"/>
  </g>
</svg>
