<svg xmlns="http://www.w3.org/2000/svg" width="51.522" height="43.102" viewBox="0 0 51.522 43.102">
  <g id="IBAN_Generator" data-name="IBAN Generator" transform="translate(0.5 0.5)">
    <rect id="Rectangle_44" data-name="Rectangle 44" width="23.946" height="21.469" transform="translate(0.489 16.922)" fill="none" stroke="rgba(0,0,0,0)" stroke-width="1"/>
    <path id="Path_165" data-name="Path 165" d="M375.473,506.736A6.736,6.736,0,1,1,368.736,500a6.737,6.737,0,0,1,6.736,6.736Zm0,0" transform="translate(-356.106 -478.949)" fill="none" stroke="rgba(0,0,0,0)" stroke-width="1"/>
    <path id="Path_166" data-name="Path 166" d="M397.052,532.526A2.526,2.526,0,1,1,394.526,530a2.526,2.526,0,0,1,2.526,2.526Zm0,0" transform="translate(-381.896 -504.739)" fill="none" stroke="rgba(0,0,0,0)" stroke-width="1"/>
    <path id="Path_169" data-name="Path 169" d="M494,583.052h9.262L505.788,578H494Zm0,0" transform="translate(-469.581 -546.003)" fill="none" stroke="rgba(0,0,0,0)" stroke-width="1"/>
    <path id="Path_170" data-name="Path 170" d="M602,578l4.21,9.262h1.684V578Zm0,0" transform="translate(-562.424 -546.003)" fill="none" stroke="rgba(0,0,0,0)" stroke-width="1"/>
    <path id="Path_171" data-name="Path 171" d="M320.842,487.577h1.919l.65,1.95a.842.842,0,0,0,.8.576h2.526a.842.842,0,0,0,.8-.576l.65-1.95h8.891l.65,1.95a.842.842,0,0,0,.8.576h2.526a.842.842,0,0,0,.8-.576l.65-1.95h1.919a.842.842,0,0,0,.842-.842V464.842a.842.842,0,0,0-.842-.842H320.842a.842.842,0,0,0-.842.842v21.893a.842.842,0,0,0,.842.842Zm5.287.842h-1.312l-.281-.842h1.874Zm14.315,0h-1.312l-.281-.842h1.874Zm-18.76-22.735h21.893v20.209H321.684Zm0,0" transform="translate(-320 -448.001)" fill="#666" stroke="rgba(0,0,0,0)" stroke-width="1"/>
    <path id="Path_172" data-name="Path 172" d="M363.577,494a7.578,7.578,0,1,0,7.578,7.578A7.579,7.579,0,0,0,363.577,494Zm0,13.473a5.894,5.894,0,1,1,5.894-5.894,5.9,5.9,0,0,1-5.894,5.894Zm0,0" transform="translate(-350.946 -473.791)" fill="#666" stroke="rgba(0,0,0,0)" stroke-width="1"/>
    <path id="Path_173" data-name="Path 173" d="M389.368,524a3.368,3.368,0,1,0,3.368,3.368A3.368,3.368,0,0,0,389.368,524Zm0,5.052a1.684,1.684,0,1,1,1.684-1.684,1.683,1.683,0,0,1-1.684,1.684Zm0,0" transform="translate(-376.737 -499.581)" fill="#666" stroke="rgba(0,0,0,0)" stroke-width="1"/>
    <path id="Path_174" data-name="Path 174" d="M345.684,488.842a.842.842,0,1,1-.842-.842.842.842,0,0,1,.842.842Zm0,0" transform="translate(-340.632 -468.633)" fill="#666" stroke="rgba(0,0,0,0)" stroke-width="1"/>
    <path id="Path_175" data-name="Path 175" d="M465.684,488.842a.842.842,0,1,1-.842-.842.842.842,0,0,1,.842.842Zm0,0" transform="translate(-443.791 -468.633)" fill="#666" stroke="rgba(0,0,0,0)" stroke-width="1"/>
    <path id="Path_176" data-name="Path 176" d="M345.684,596.842a.842.842,0,1,1-.842-.842.842.842,0,0,1,.842.842Zm0,0" transform="translate(-340.632 -561.477)" fill="#666" stroke="rgba(0,0,0,0)" stroke-width="1"/>
    <path id="Path_177" data-name="Path 177" d="M465.684,596.842a.842.842,0,1,1-.842-.842.842.842,0,0,1,.842.842Zm0,0" transform="translate(-443.791 -561.477)" fill="#666" stroke="rgba(0,0,0,0)" stroke-width="1"/>
    <path id="Path_178" data-name="Path 178" d="M405.786,350H362.842a.842.842,0,0,0-.842.842v13.473h1.684V351.684h41.26v29.471H383.051v1.684h7.9l-1.684,3.368h-6.216v1.684h6.736a.842.842,0,0,0,.753-.465l2.293-4.587h2.306l3.986,8.769a.842.842,0,0,0,.766.493h1.684a.842.842,0,0,0,.842-.842v-8.42h3.368a.842.842,0,0,0,.842-.842V350.842a.842.842,0,0,0-.842-.842Zm-5.052,40.418h-.3l-3.445-7.578h3.745v7.578Zm0,0" transform="translate(-356.106 -350)" fill="#666" stroke="rgba(0,0,0,0)" stroke-width="1"/>
    <path id="Path_179" data-name="Path 179" d="M543.684,590.842a.842.842,0,1,1-.842-.842.842.842,0,0,1,.842.842Zm0,0" transform="translate(-510.845 -556.319)" fill="#666" stroke="rgba(0,0,0,0)" stroke-width="1"/>
    <path id="Path_180" data-name="Path 180" d="M543.719,433.98l4.209-4.21,1.191,1.191-4.21,4.21Zm0,0" transform="translate(-512.322 -418.575)" fill="#666" stroke="rgba(0,0,0,0)" stroke-width="1"/>
    <path id="Path_181" data-name="Path 181" d="M585.707,475.98l4.21-4.21,1.191,1.191-4.21,4.21Zm0,0" transform="translate(-548.418 -454.681)" fill="#666" stroke="rgba(0,0,0,0)" stroke-width="1"/>
    <path id="Path_182" data-name="Path 182" d="M543.715,439.876l10.1-10.1,1.191,1.191-10.1,10.1Zm0,0" transform="translate(-512.319 -418.578)" fill="#666" stroke="rgba(0,0,0,0)" stroke-width="1"/>
  </g>
</svg>
