<svg xmlns="http://www.w3.org/2000/svg" width="95" height="83.429" viewBox="0 0 95 83.429">
  <g id="Latest_offers_orange" data-name="Latest offers orange" transform="translate(0 0.15)">
    <text id="Latest_Offers" data-name="Latest Offers" transform="translate(0 79.279)" fill="#f36f21" font-size="16" font-family="Roboto-Bold, Roboto" font-weight="700"><tspan x="0" y="0">Latest Offers</tspan></text>
    <g id="Layer_2" data-name="Layer 2" transform="translate(-54.182 -491.169)">
      <g id="Layer_1" data-name="Layer 1" transform="translate(74.167 491.169)">
        <path id="Path_4213" data-name="Path 4213" d="M31.265,50l-1.015-.383c-.787-.3-1.6-.6-2.4-.922a4.882,4.882,0,0,0-1.822-.37,4.628,4.628,0,0,0-1.689.329c-.824.322-1.665.641-2.478.949l-1.043.4h-1.61l-.3-.078c-.228-.058-.465-.12-.691-.188a5.833,5.833,0,0,1-3.854-3.1,6.389,6.389,0,0,0-5.325-3.881,6.322,6.322,0,0,1-5.187-7.336c.063-.466.121-.888.163-1.318a4.625,4.625,0,0,0-1.351-3.8l-.051-.055A12.349,12.349,0,0,1,.927,28.17a6.349,6.349,0,0,1,.652-7.349,12.486,12.486,0,0,1,.927-.989,4.773,4.773,0,0,0,1.441-4.6,6.739,6.739,0,0,1,1.1-5.525,6.2,6.2,0,0,1,4.407-2.6,5.593,5.593,0,0,0,4.652-3.3A6.432,6.432,0,0,1,19.858,0a7.732,7.732,0,0,1,3.388.843,6.578,6.578,0,0,0,2.838.843A3.683,3.683,0,0,0,27.1,1.543a10.656,10.656,0,0,0,1.7-.7A7.875,7.875,0,0,1,32.224,0,6.428,6.428,0,0,1,38,3.836a5.365,5.365,0,0,0,4.421,3.238A6.639,6.639,0,0,1,47.043,9.69a6.811,6.811,0,0,1,1.119,5.519,4.749,4.749,0,0,0,1.448,4.647A7.794,7.794,0,0,1,52.048,24.3v1.4a8.38,8.38,0,0,1-2.8,4.843,4.066,4.066,0,0,0-1.2,3.314c.036.526.109,1.054.179,1.566l.017.12a6.482,6.482,0,0,1-4.14,6.955,13.125,13.125,0,0,1-2.229.524,4.707,4.707,0,0,0-3.458,2.4q-.138.248-.271.5c-.163.3-.332.616-.512.911a6.4,6.4,0,0,1-3.993,2.958c-.185.048-.369.1-.555.149l-.22.06Zm-5.209-3.657a6.815,6.815,0,0,1,3.017.735l.217.106c.3.149.615.3.933.441a4.657,4.657,0,0,0,1.851.387,4.533,4.533,0,0,0,3.891-2.229c.157-.259.3-.529.437-.79.111-.21.226-.428.345-.634A6.473,6.473,0,0,1,41.441,41.1l.282-.048c.4-.067.812-.137,1.213-.241A4.566,4.566,0,0,0,46.2,35.241a6.8,6.8,0,0,1,2.107-6.6c.162-.153.326-.323.514-.535a4.539,4.539,0,0,0,.025-6.165c-.18-.2-.372-.4-.556-.589-.16-.163-.327-.331-.483-.5A6.479,6.479,0,0,1,46.1,15.5c.012-.107.025-.217.039-.326a8.1,8.1,0,0,0,.033-2.6,4.379,4.379,0,0,0-4.1-3.551A6.853,6.853,0,0,1,36.35,4.906a6.574,6.574,0,0,0-.462-.81,4.457,4.457,0,0,0-3.452-2.084C32.315,2,32.194,2,32.081,2a5.99,5.99,0,0,0-2.37.6,14.7,14.7,0,0,1-2.942,1,4.654,4.654,0,0,1-.859.081,8.135,8.135,0,0,1-3.593-1.084,5.272,5.272,0,0,0-2.376-.6,4.574,4.574,0,0,0-4.062,2.651l-.047.087c-.06.112-.121.228-.182.348a6.834,6.834,0,0,1-5.585,3.942A4.994,4.994,0,0,0,6.629,10.88a5.043,5.043,0,0,0-.76,3.873c.062.373.107.759.144,1.069.014.12.028.235.041.335a6.693,6.693,0,0,1-1.747,4.654c-.163.178-.338.355-.506.525q-.208.21-.411.424a4.517,4.517,0,0,0-.03,6.44c.139.149.284.3.422.439s.306.311.452.471A6.49,6.49,0,0,1,5.984,34.5l-.023.2a9.623,9.623,0,0,0-.054,2.728,4.436,4.436,0,0,0,4.112,3.554,6.878,6.878,0,0,1,5.671,4.013,7.947,7.947,0,0,0,.445.816A4.328,4.328,0,0,0,19.849,48h0a4.983,4.983,0,0,0,.635-.042,8.526,8.526,0,0,0,2.487-.865A7.192,7.192,0,0,1,26.056,46.342Z" transform="translate(0)" fill="#f36f21" stroke="#f36f21" stroke-width="0.3"/>
        <path id="Path_4214" data-name="Path 4214" d="M134.34,145.6a.977.977,0,0,1-.683-.27,1.02,1.02,0,0,1-.132-1.3,2.376,2.376,0,0,1,.283-.314l2.5-2.5c4.969-4.972,10.108-10.112,15.177-15.152a1.9,1.9,0,0,1,1-.507.833.833,0,0,1,.1,0c.421,0,.8.4.933.967-.054.088-.1.176-.153.263a2.954,2.954,0,0,1-.432.635c-1.614,1.637-3.269,3.289-4.868,4.884-.5.5-2.407,2.4-2.407,2.4l-10.278,10.273-.084.084a3.03,3.03,0,0,1-.376.343A.977.977,0,0,1,134.34,145.6Z" transform="translate(-117.338 -110.565)" fill="#f36f21" stroke="#f36f21" stroke-width="0.3"/>
        <path id="Path_4215" data-name="Path 4215" d="M137.643,105.871a5.057,5.057,0,0,1-5.024-5.1,5,5,0,0,1,5.067-5.006h.032a5.052,5.052,0,0,1-.046,10.1Zm.012-8.115a3.092,3.092,0,0,0-3.045,3.052,3.006,3.006,0,0,0,.885,2.14,3.044,3.044,0,0,0,2.176.9h.027a3.044,3.044,0,1,0,.007-6.088Z" transform="translate(-116.619 -84.27)" fill="#f36f21" stroke="#f36f21" stroke-width="0.3"/>
        <path id="Path_4216" data-name="Path 4216" d="M220.664,246.634a5.048,5.048,0,1,1,.006,0Zm-.01-8.085a3,3,0,0,0-3.03,3,3.052,3.052,0,0,0,.878,2.192,3.007,3.007,0,0,0,2.149.9,3.078,3.078,0,0,0,3.056-3.008,2.978,2.978,0,0,0-.855-2.151,3.052,3.052,0,0,0-2.187-.925Z" transform="translate(-189.616 -208.128)" fill="#f36f21" stroke="#f36f21" stroke-width="0.3"/>
      </g>
    </g>
  </g>
</svg>
