<svg id="Layer_2" data-name="Layer 2" xmlns="http://www.w3.org/2000/svg" width="48.789" height="40" viewBox="0 0 48.789 40">
	<g id="Layer_1" data-name="Layer 1" transform="translate(0 0)">
		<g id="PNtQiL.tif">
			<path id="Path_4143" data-name="Path 4143" d="M48.789,23.7a1.226,1.226,0,0,1-1.271.684c-2.573-.018-5.145-.008-7.718-.007h-.591V28.3c.881,0,1.75-.022,2.617,0a2.808,2.808,0,0,1,2.635,2.042,1.2,1.2,0,0,1,.057.316c0,1.074.082,2.154-.014,3.22a2.686,2.686,0,0,1-2.661,2.373c-.868.035-1.739.006-2.666.006v2.5c0,.948-.3,1.245-1.276,1.246H29.04a2.451,2.451,0,0,1-.565-.05.9.9,0,0,1,.073-1.778,3.913,3.913,0,0,1,.617-.031h8.072V36.27H30.417a2.853,2.853,0,0,1-3.146-3.042c0-.676,0-1.352,0-2.029a2.823,2.823,0,0,1,2.992-2.907c2.143-.018,4.288,0,6.431,0h.541V24.375H24.426c-1.111,0-1.371-.252-1.371-1.331V6.494c0-.982.282-1.254,1.3-1.254H37.249c0-.888.032-1.73-.013-2.568a.82.82,0,0,0-.776-.756,3.906,3.906,0,0,0-.573-.03q-11.5,0-23.01.009a2.111,2.111,0,0,0-1.019.261.882.882,0,0,0-.318.671c-.019,3.012-.011,6.024-.008,9.035a.723.723,0,0,0,.049.149h8.25c.983,0,1.306.316,1.306,1.276V31.174c0,1-.3,1.287-1.337,1.287H11.568v5.673h8.116c.868,0,1.331.315,1.345.907.015.616-.461.954-1.346.954H10.921c-1.014,0-1.308-.283-1.309-1.259V32.465H1.21C.334,32.46,0,32.137,0,31.288V13.217c0-.893.328-1.2,1.275-1.2H9.611V3.173A2.818,2.818,0,0,1,12.116.046.338.338,0,0,0,12.2,0H36.592a2.983,2.983,0,0,1,2.593,3.5c-.044.561-.008,1.128-.008,1.743h.614c2.573,0,5.146.011,7.718-.008a1.237,1.237,0,0,1,1.279.67ZM1.954,13.9V30.577H19.169V13.9Zm44.9-6.771H24.969v6.679c.191-.161.318-.248.422-.356a5.079,5.079,0,0,1,7.284,0c2.96,2.8,6.056,5.471,9.047,8.245a2.71,2.71,0,0,0,2.216.826c.955-.072,1.926-.017,2.912-.017Zm-7.08,15.364a2.55,2.55,0,0,0-.173-.2c-2.875-2.6-5.742-5.212-8.632-7.8a2.893,2.893,0,0,0-3.927.013c-.6.521-1.175,1.078-1.783,1.6a.788.788,0,0,0-.293.677c.01,1.751,0,3.5.007,5.253,0,.148.012.3.02.462ZM35.926,34.406h5.617c.732,0,1.08-.329,1.1-1.041s.014-1.444,0-2.165-.365-1.052-1.132-1.053H30.319c-.755,0-1.111.335-1.125,1.065-.013.69-.01,1.386,0,2.073.01.792.349,1.118,1.164,1.12Q33.142,34.41,35.926,34.406Z" transform="translate(0 0)" fill="#666"/>
			<path id="Path_4144" data-name="Path 4144" d="M247.337,413.571a.933.933,0,1,1-.9-.968A.933.933,0,0,1,247.337,413.571Z" transform="translate(-222.012 -374.484)" fill="#666"/>
			<path id="Path_4145" data-name="Path 4145" d="M72.891,177.273c-.645,0-1.245.015-1.843,0a.934.934,0,0,1-.932-1.294.858.858,0,0,1,.829-.568c1.921,0,3.841-.011,5.762,0a.89.89,0,0,1,.892.932.916.916,0,0,1-.92.92c-.617.026-1.236.006-1.916.006v9.072a1.993,1.993,0,0,1-.083.637.893.893,0,0,1-.951.587.924.924,0,0,1-.821-.819,4.278,4.278,0,0,1-.01-.466v-8.455Z" transform="translate(-63.509 -159.251)" fill="#666"/>
			<path id="Path_4146" data-name="Path 4146" d="M386.28,100.764a3.939,3.939,0,1,1,3.916,3.964A3.954,3.954,0,0,1,386.28,100.764Zm3.959-2.046a2.063,2.063,0,1,0,2.051,2.075,2.063,2.063,0,0,0-2.051-2.075Z" transform="translate(-349.114 -87.917)" fill="#666"/>
		</g>
	</g>
</svg>