<svg xmlns="http://www.w3.org/2000/svg" width="72" height="82.983" viewBox="0 0 72 82.983">
  <g id="Locate_us_orange" data-name="Locate us orange" transform="translate(0 0.3)">
    <text id="Locate_Us" data-name="Locate Us" transform="translate(0 78.683)" fill="#f36f21" font-size="16" font-family="Roboto-Bold, Roboto" font-weight="700"><tspan x="0" y="0">Locate Us</tspan></text>
    <g id="Layer_2" data-name="Layer 2" transform="translate(13.381 -0.02)">
      <g id="Layer_1" data-name="Layer 1" transform="translate(0 0.02)">
        <path id="Path_4217" data-name="Path 4217" d="M20.5,50.014c-.274,0-.414-.2-.414-.584v-2.6c0-.146-.013-.162-.165-.166a20.228,20.228,0,0,1-7.752-1.68,13.083,13.083,0,0,1-5.592-4.356A8.118,8.118,0,0,1,5.057,36.61a.877.877,0,0,0-.043-.266.879.879,0,0,0-.274-.02H.441a.333.333,0,0,1-.176-.042c-.038-.027-.254-.168-.266-.34a.467.467,0,0,1,.243-.384.7.7,0,0,1,.3-.054h2.09q1.1,0,2.193.006h0c.18,0,.212-.027.225-.18A9.17,9.17,0,0,1,8.8,28.877a15.714,15.714,0,0,1,4.865-2.608l.171-.062c-.024-.05-.045-.1-.068-.141l-1.446-2.811q-1.594-3.1-3.185-6.2a10.389,10.389,0,0,1-.907-3.076,11.993,11.993,0,0,1,6.3-12.507A12.173,12.173,0,0,1,19.282.054a.521.521,0,0,0,.094-.02L19.433.02H21.4c.18.029.362.056.543.083.39.058.793.117,1.187.2a12.27,12.27,0,0,1,9.394,9.559,11.732,11.732,0,0,1-.659,6.761c-.225.548-.51,1.081-.784,1.6-.113.21-.225.421-.333.632l-2.408,4.68-1.281,2.492c-.021.041-.04.082-.062.127l.02.008c.1.035.186.069.278.1a15.653,15.653,0,0,1,5.14,2.818,9.4,9.4,0,0,1,3.354,5.257,7.95,7.95,0,0,1,.136.975c.015.174.05.206.222.206.571,0,1.179-.006,1.925-.006h2.373a1.119,1.119,0,0,1,.195.013.456.456,0,0,1,.311.183.312.312,0,0,1,.031.259.662.662,0,0,1-.318.327.285.285,0,0,1-.151.037.468.468,0,0,1-.089-.006.635.635,0,0,0-.065,0H36.121c-.145,0-.166.018-.177.145a9.308,9.308,0,0,1-4.129,6.786,17,17,0,0,1-7.74,3.12c-.764.117-1.55.179-2.309.234l-.712.056c-.141.012-.146.025-.145.14.006.683,0,1.378,0,2.05v.576c0,.39-.139.584-.412.59ZM14.42,27.491a.09.09,0,0,0-.025,0l-.441.162c-.5.182-1.013.371-1.5.6a11.511,11.511,0,0,0-4.622,3.6,6.592,6.592,0,0,0-1.295,5.21A7.476,7.476,0,0,0,8.788,41.09a13.173,13.173,0,0,0,4.807,2.979,19.4,19.4,0,0,0,6.824,1.209c.676,0,1.374-.033,2.073-.1a17.46,17.46,0,0,0,6.922-2.037,10.736,10.736,0,0,0,4.034-3.586,6.541,6.541,0,0,0,1.079-4.275,7.127,7.127,0,0,0-2.01-4.212,13.649,13.649,0,0,0-6.074-3.639.251.251,0,0,0-.066-.013c-.017,0-.037,0-.076.082-.075.161-.158.321-.237.475l-.556,1.076h0l.222.082a9.912,9.912,0,0,1,4,2.6,4.94,4.94,0,0,1,.186,6.658A8.919,8.919,0,0,1,25.9,41.139a15.575,15.575,0,0,1-5.385.981h0a16.052,16.052,0,0,1-4.946-.8,9.43,9.43,0,0,1-4.314-2.7,5.192,5.192,0,0,1-1.388-3.18A4.991,4.991,0,0,1,11,32.038a8.224,8.224,0,0,1,2.919-2.313c.332-.167.667-.314,1.022-.467.119-.055.252-.11.379-.167l-.126-.248c-.237-.467-.459-.9-.7-1.34a.241.241,0,0,0-.076-.015Zm1.341,2.533a.3.3,0,0,0-.109.033,3.955,3.955,0,0,1-.392.161c-.106.041-.214.083-.318.128a7.9,7.9,0,0,0-3.111,2.277,3.874,3.874,0,0,0-.335,4.629,6.729,6.729,0,0,0,2.523,2.292A13.088,13.088,0,0,0,20.453,41.1H20.6a13.949,13.949,0,0,0,4.4-.693A8.912,8.912,0,0,0,28.9,38.041,4.192,4.192,0,0,0,30.1,35.322a4.1,4.1,0,0,0-1.2-3,8.791,8.791,0,0,0-3.774-2.336.2.2,0,0,0-.068-.015c-.012,0-.031,0-.071.082-.119.239-.237.479-.363.71l-.16.311-3.4,6.607a.712.712,0,0,1-.661.433.73.73,0,0,1-.672-.443q-.762-1.486-1.527-2.971l-1.137-2.205c-.4-.766-.8-1.561-1.2-2.346-.062-.126-.093-.126-.113-.126Zm4.648-28.6a11.561,11.561,0,0,0-1.417.088A10.412,10.412,0,0,0,13,4.283a10.331,10.331,0,0,0-3.334,9.588,8.16,8.16,0,0,0,.726,2.5q4,7.787,8,15.57l1.989,3.867.019.037c.025-.047.047-.088.069-.13L29.13,18.878c.145-.282.3-.564.444-.838.333-.619.678-1.259.949-1.913a10.164,10.164,0,0,0,.415-6.733A10.811,10.811,0,0,0,20.409,1.428Z" transform="translate(0 -0.02)" fill="#f36f21" stroke="#f36f21" stroke-width="0.6"/>
        <path id="Path_4218" data-name="Path 4218" d="M136.11,65.011a4.594,4.594,0,1,1,.013,0Zm.015-8.532a3.744,3.744,0,1,0,3.744,3.7,3.744,3.744,0,0,0-3.744-3.7V56.36Z" transform="translate(-115.721 -48.882)" fill="#f36f21" stroke="#f36f21" stroke-width="0.6"/>
      </g>
    </g>
  </g>
</svg>
