<svg xmlns="http://www.w3.org/2000/svg" width="12" height="15" viewBox="0 0 12 15">
  <g id="microphone" transform="translate(247.474 -110.619)">
    <path id="Path_2553" data-name="Path 2553" d="M-191.542,116.044c0-.735-.008-1.47,0-2.2a3.23,3.23,0,0,1,2.637-3.122c2-.491,4.171.926,4.24,2.834.059,1.657.061,3.319,0,4.977-.071,1.922-2.225,3.31-4.272,2.82a3.214,3.214,0,0,1-2.6-2.962c-.027-.78,0-1.561,0-2.341Z" transform="translate(-53.385 0)" fill="#333"/>
    <path id="Path_2554" data-name="Path 2554" d="M-235.474,265.535a5.848,5.848,0,0,1-4.819,5.455c-.512.093-.512.093-.512.6,0,.227,0,.455,0,.682a.666.666,0,0,1-.676.746.665.665,0,0,1-.663-.735c0-.333-.007-.667,0-1,0-.142-.03-.21-.2-.237a5.873,5.873,0,0,1-5.049-4.73,5.389,5.389,0,0,1-.078-.881.651.651,0,0,1,.657-.691.646.646,0,0,1,.67.655,4.179,4.179,0,0,0,.869,2.551,4.654,4.654,0,0,0,4.812,1.775,4.5,4.5,0,0,0,3.56-3.484,6.408,6.408,0,0,0,.095-.788.673.673,0,0,1,.695-.706.662.662,0,0,1,.643.75C-235.474,265.523-235.474,265.553-235.474,265.535Z" transform="translate(0 -147.397)" fill="#333"/>
  </g>
</svg>
