<svg xmlns="http://www.w3.org/2000/svg" width="35" height="40" viewBox="0 0 35 40">
  <g id="Our_customer_orange" data-name="Our customer orange" transform="translate(-31)">
    <path id="Path_2568" data-name="Path 2568" d="M65.106,108.66A3.518,3.518,0,0,0,62.5,102.8H55.707a22.826,22.826,0,0,0,.96-5.94V95.689A4.683,4.683,0,0,0,52,91H50.833a1.167,1.167,0,0,0-1.132.888l-.635,2.554c-.891,3.577-3.718,7.524-6.644,8.242a3.505,3.505,0,0,0-3.256-2.229h-7A1.17,1.17,0,0,0,31,101.627v21.1a1.17,1.17,0,0,0,1.167,1.172h7a3.5,3.5,0,0,0,3.159-2l4.009,1.342a12.751,12.751,0,0,0,4.058.662h9.774a3.52,3.52,0,0,0,3.254-4.812,3.521,3.521,0,0,0,1.685-5.737,3.522,3.522,0,0,0,0-4.689ZM40.333,120.381a1.171,1.171,0,0,1-1.167,1.172H33.333V102.8h5.833a1.171,1.171,0,0,1,1.167,1.172Zm19.833-10.549H62.5a1.172,1.172,0,0,1,0,2.344H60.167a1.172,1.172,0,0,0,0,2.344H62.5a1.172,1.172,0,0,1,0,2.344H60.167a1.172,1.172,0,0,0,0,2.344,1.172,1.172,0,0,1,0,2.344H50.393a10.433,10.433,0,0,1-3.321-.542l-4.405-1.475v-14.5a9.4,9.4,0,0,0,5.238-3.419,17.131,17.131,0,0,0,3.425-6.6l.415-1.667H52a2.342,2.342,0,0,1,2.333,2.344V96.86a18.624,18.624,0,0,1-1.117,5.94H50.833a1.172,1.172,0,0,0,0,2.344H62.5a1.172,1.172,0,0,1,0,2.344H60.167a1.172,1.172,0,0,0,0,2.344Z" transform="translate(0 -83.898)" fill="#f36f21"/>
    <ellipse id="Ellipse_13" data-name="Ellipse 13" cx="2" cy="0.5" rx="2" ry="0.5" transform="translate(34.785 33)" fill="#f36f21"/>
    <path id="Path_2569" data-name="Path 2569" d="M303.341,3.59V1.171a1.171,1.171,0,0,0-2.341,0V3.59a1.171,1.171,0,0,0,2.341,0Z" transform="translate(-249.005)" fill="#f36f21"/>
    <path id="Path_2570" data-name="Path 2570" d="M209.195,44.2a1.171,1.171,0,0,0,0-1.656l-1.656-1.656a1.171,1.171,0,0,0-1.656,1.656l1.656,1.656A1.171,1.171,0,0,0,209.195,44.2Z" transform="translate(-160.971 -37.377)" fill="#f36f21"/>
    <path id="Path_2571" data-name="Path 2571" d="M377.245,44.2,378.9,42.54a1.171,1.171,0,0,0-1.656-1.656l-1.656,1.656a1.171,1.171,0,0,0,1.656,1.656Z" transform="translate(-317.5 -37.377)" fill="#f36f21"/>
  </g>
</svg>
