<svg xmlns="http://www.w3.org/2000/svg" width="50.582" height="50.558" viewBox="0 0 50.582 50.558">
  <g id="Remittance_Tracker" data-name="Remittance Tracker" transform="translate(0.082 0.5)">
    <path id="Path_183" data-name="Path 183" d="M348.3,528.519H341.69v1.457a2.478,2.478,0,1,1-3.3,0v-1.457h-3.3a3.3,3.3,0,0,1-3.3-3.3v-3.3h-1.457a2.478,2.478,0,1,1,0-3.3h1.457V512H348.3Zm0,0" transform="translate(-324.728 -485.569)" fill="none" stroke="rgba(0,0,0,0)" stroke-width="1"/>
    <g id="Group_67" data-name="Group 67" transform="translate(0 1)">
      <g id="Group_959" data-name="Group 959" transform="translate(0 0)">
        <path id="Path_188" data-name="Path 188" d="M323.118,414.9a3.288,3.288,0,0,0,2.372-.821h.293v2.478a4.135,4.135,0,0,0,4.13,4.13h2.478v.294a3.3,3.3,0,0,0,.216,4.592,3.269,3.269,0,0,0,2.259.9c.07,0,.141,0,.212-.007a3.3,3.3,0,0,0,2.269-5.483v-.293h19a4.134,4.134,0,0,0,4.13-4.13v-9.911a4.134,4.134,0,0,0-4.13-4.13h-3.3a.826.826,0,0,0-.826.826v2.283a.828.828,0,0,0,.275.616,1.647,1.647,0,0,1,.548,1.326,1.652,1.652,0,0,1-3.173.544,1.651,1.651,0,0,1,.423-1.87.828.828,0,0,0,.275-.616v-2.283a.826.826,0,0,0-.826-.826h-5.782V390.13a4.134,4.134,0,0,0-4.13-4.13h-9.911a4.135,4.135,0,0,0-4.13,4.13v3.3a.826.826,0,0,0,.826.826h2.283a.828.828,0,0,0,.616-.275,1.652,1.652,0,1,1,0,2.2.827.827,0,0,0-.616-.275h-2.283a.826.826,0,0,0-.826.826v12.389h-.293a3.3,3.3,0,1,0-2.371,5.776Zm26.007-5.02a3.3,3.3,0,0,0,4.74-4.593v-1.118h2.478a2.48,2.48,0,0,1,2.478,2.478v9.911a2.48,2.48,0,0,1-2.478,2.478H343.954v-5.782a.826.826,0,0,0-.826-.826h-2.283a.828.828,0,0,0-.616.275,1.652,1.652,0,1,1,0-2.2.827.827,0,0,0,.616.275h2.283a.826.826,0,0,0,.826-.826v-5.782h4.956v1.119a3.3,3.3,0,0,0,.216,4.593Zm-21.69-12.319h1.118a3.3,3.3,0,1,0,0-4.956h-1.119V390.13a2.481,2.481,0,0,1,2.478-2.478h9.911a2.481,2.481,0,0,1,2.478,2.478v12.389H327.434Zm-5.334,12.91a1.651,1.651,0,0,1,2.435.03.828.828,0,0,0,.616.275h1.457a.826.826,0,0,0,.826-.826v-5.782H342.3v4.956h-1.119a3.3,3.3,0,1,0,0,4.956H342.3v4.956H336.52a.826.826,0,0,0-.826.826v1.457a.828.828,0,0,0,.275.616,1.646,1.646,0,0,1,.548,1.326,1.652,1.652,0,0,1-3.173.544,1.651,1.651,0,0,1,.423-1.87.828.828,0,0,0,.275-.616v-1.457a.826.826,0,0,0-.826-.826h-3.3a2.481,2.481,0,0,1-2.478-2.478v-3.3a.826.826,0,0,0-.826-.826h-1.457a.828.828,0,0,0-.616.275,1.646,1.646,0,0,1-1.326.548,1.668,1.668,0,0,1-1.554-1.542,1.643,1.643,0,0,1,.445-1.238Zm0,0" transform="translate(-319.558 -377.914)" fill="#666" stroke="rgba(0,0,0,0)" stroke-width="1"/>
      </g>
    </g>
    <path id="Path_189" data-name="Path 189" d="M570.13,382.259a4.13,4.13,0,1,0-4.13-4.13,4.129,4.129,0,0,0,4.13,4.13Zm0-6.608a2.478,2.478,0,1,1-2.478,2.478,2.478,2.478,0,0,1,2.478-2.478Zm0,0" transform="translate(-531.693 -366.566)" fill="#666" stroke="rgba(0,0,0,0)" stroke-width="1"/>
    <path id="Path_190" data-name="Path 190" d="M534.3,328.26h-2.752l0-.006,1.946-1.946a.826.826,0,0,0,0-1.168l-3.5-3.5a.826.826,0,0,0-1.168,0l-1.946,1.946-.007,0v-2.752a.826.826,0,0,0-.826-.826h-4.956a.826.826,0,0,0-.826.826v2.752l-.006,0-1.946-1.946a.826.826,0,0,0-1.168,0l-3.5,3.5a.826.826,0,0,0,0,1.168l1.946,1.946,0,.006h-2.752a.826.826,0,0,0-.826.826v4.956a.826.826,0,0,0,.826.826h2.752l0,.007-1.946,1.946a.825.825,0,0,0,0,1.168l3.5,3.5a.826.826,0,0,0,1.168,0l1.946-1.946.006,0V342.3a.826.826,0,0,0,.826.826h4.956a.826.826,0,0,0,.826-.826v-2.752l.007,0,1.946,1.946a.826.826,0,0,0,1.168,0l3.5-3.5a.825.825,0,0,0,0-1.168l-1.946-1.946,0-.007H534.3a.826.826,0,0,0,.826-.826v-4.956a.826.826,0,0,0-.826-.826ZM517.723,339.74l-2.336-2.336,1.289-1.289a8.333,8.333,0,0,0,2.337,2.336Zm7.492,1.735h-3.3v-1.818a8.3,8.3,0,0,0,3.3,0Zm-1.652-3.3a6.616,6.616,0,0,1-6.608-6.608H515.3a8.263,8.263,0,0,0,.166,1.652h-1.818v-3.3h2.478a.826.826,0,0,0,.763-.51l.425-1.027a.826.826,0,0,0-.179-.9l-1.752-1.752,2.336-2.336,1.752,1.752a.827.827,0,0,0,.9.179l1.027-.425a.826.826,0,0,0,.51-.763v-2.478h3.3v1.818a8.273,8.273,0,0,0-1.652-.166v1.652a6.608,6.608,0,0,1,0,13.215Zm8.177-.767L529.4,339.74l-1.289-1.289a8.333,8.333,0,0,0,2.337-2.336Zm-1.289-10.392a8.333,8.333,0,0,0-2.337-2.337l1.289-1.289,2.336,2.336Zm3.024,6.2h-1.818a8.3,8.3,0,0,0,0-3.3h1.818Zm0,0" transform="translate(-485.127 -320)" fill="#666" stroke="rgba(0,0,0,0)" stroke-width="1"/>
  </g>
</svg>
