<svg xmlns="http://www.w3.org/2000/svg" width="122" height="82.824" viewBox="0 0 122 82.824">
  <g id="Theme_branches_orange" data-name="Theme branches orange" transform="translate(0 0.12)">
    <text id="Theme_Branches" data-name="Theme Branches" transform="translate(61 78.704)" fill="#f36f21" font-size="16" font-family="Roboto-Bold, Roboto" font-weight="700"><tspan x="-60.754" y="0">Theme Branches</tspan></text>
    <g id="Layer_2" data-name="Layer 2" transform="translate(36.007 -0.005)">
      <g id="Layer_1" data-name="Layer 1" transform="translate(-0.03 0.005)">
        <g id="_3bHu8T.tif" data-name="3bHu8T.tif" transform="translate(0 0)">
          <path id="Path_4219" data-name="Path 4219" d="M68.619,26.988h2.71a.724.724,0,0,1,.81.565,1.528,1.528,0,0,1,.022.326v3.2c0,.684-.237.922-.924.922h-40.3a3.218,3.218,0,0,1-.376-.015.667.667,0,0,1-.64-.683q-.015-1.8,0-3.6c0-.45.3-.706.8-.71h2.726V15.162c-.086,0-.174-.012-.262-.012H30.419a.725.725,0,0,1-.763-.854A.685.685,0,0,1,30,13.769q4.666-3.071,9.32-6.15L50.495.23a.851.851,0,0,1,1.153,0L72.1,13.745a.724.724,0,0,1,.373.827.852.852,0,0,1-.775.577c-.956.007-1.911,0-2.866,0-.066,0-.131.009-.213.015Zm-6.841-.009V15.152h-3.53a.714.714,0,0,1-.771-.793c.019-.473.32-.721.873-.721H69.192c-.136-.1-.214-.154-.294-.206L51.249,1.776a.321.321,0,0,0-.42,0Q42,7.608,33.163,13.435c-.073.048-.141.1-.27.2H43.061c.176,0,.353-.007.528,0a.687.687,0,0,1,.662.488.736.736,0,0,1-.724,1.019c-.989.01-1.978,0-2.967,0H40.3V26.966Zm8.859,1.545h-39.2v1.94h39.2ZM38.767,15.167h-3.76v11.8H38.76Zm28.31,0H63.315V26.973H67.07Z" transform="translate(-26.033 -0.005)" fill="#f36f21" stroke="#f36f21" stroke-width="0.3"/>
          <path id="Path_4220" data-name="Path 4220" d="M63.4,275.215v5.532a2.087,2.087,0,0,1-.03.4.694.694,0,0,1-.8.562.68.68,0,0,1-.67-.626,3.1,3.1,0,0,1-.013-.352v-5.525H42.19v5.686a.717.717,0,0,1-.768.819.7.7,0,0,1-.738-.721c-.011-.352,0-.706,0-1.058V275.21h-19.7v5.525a3.388,3.388,0,0,1-.012.352.681.681,0,0,1-.673.624.693.693,0,0,1-.793-.539,1.9,1.9,0,0,1-.035-.4V275.22c-.05-.016-.086-.029-.122-.039a.73.73,0,0,1-.624-.833.711.711,0,0,1,.793-.668H63.357a.713.713,0,0,1,.792.669.723.723,0,0,1-.624.833C63.492,275.188,63.461,275.2,63.4,275.215Z" transform="translate(-16.433 -240.36)" fill="#f36f21" stroke="#f36f21" stroke-width="0.3"/>
          <path id="Path_4221" data-name="Path 4221" d="M356.132,352.086v2.9c0,.61-.263.879-.872.879h-5.873a.742.742,0,0,1-.854-.828q-.007-2.974,0-5.948a.722.722,0,0,1,.808-.817q2.987-.011,5.975,0c.547,0,.81.289.811.841C356.134,350.1,356.131,351.094,356.132,352.086Zm-6.06-2.285v4.529H354.6V349.8Z" transform="translate(-306.132 -305.863)" fill="#f36f21" stroke="#f36f21" stroke-width="0.3"/>
          <path id="Path_4222" data-name="Path 4222" d="M3.779,355.885H.853c-.623,0-.883-.261-.883-.891v-5.817c0-.624.258-.885.89-.886H6.676c.627,0,.888.266.888.895V355c0,.624-.267.884-.894.884ZM1.5,354.351H6.029v-4.524H1.5Z" transform="translate(0.03 -305.885)" fill="#f36f21" stroke="#f36f21" stroke-width="0.3"/>
          <path id="Path_4223" data-name="Path 4223" d="M174.332,352.056V349.13c0-.6.257-.854.862-.86h5.847c.616,0,.871.262.871.879v5.845c0,.616-.258.871-.875.871h-5.853c-.6,0-.854-.259-.854-.863Q174.33,353.531,174.332,352.056Zm6.045,2.278v-4.521h-4.511v4.521Z" transform="translate(-153.121 -305.868)" fill="#f36f21" stroke="#f36f21" stroke-width="0.3"/>
          <path id="Path_4224" data-name="Path 4224" d="M159.476,42a6.384,6.384,0,0,1,5.188,2.542,5.038,5.038,0,0,1,.722,4.933,40.251,40.251,0,0,1-2.213,5.148c-.9,1.78-1.852,3.536-2.787,5.3a.943.943,0,0,1-1.263.444,1.5,1.5,0,0,1-.773-.68c-1.358-2.5-2.725-4.992-3.851-7.606a30.483,30.483,0,0,1-1.135-3.087,4.811,4.811,0,0,1,1.05-4.7A6.441,6.441,0,0,1,159.476,42Zm.011,16.345c.087-.139.134-.206.173-.277.665-1.233,1.349-2.456,1.989-3.7a37.014,37.014,0,0,0,2.37-5.408,3.761,3.761,0,0,0-1.541-4.576,5.058,5.058,0,0,0-5.191-.433,4.308,4.308,0,0,0-2.24,2.244,3.519,3.519,0,0,0,.02,2.907c.6,1.413,1.167,2.839,1.829,4.219C157.705,55,158.6,56.632,159.487,58.345Z" transform="translate(-134.511 -36.879)" fill="#f36f21" stroke="#f36f21" stroke-width="0.3"/>
          <path id="Path_4225" data-name="Path 4225" d="M177.032,201.039h-3.1a.733.733,0,0,1-.819-.89.669.669,0,0,1,.582-.61,2.255,2.255,0,0,1,.351-.022h5.993a2.072,2.072,0,0,1,.326.02.732.732,0,0,1,.622.766.666.666,0,0,1-.658.716c-.537.026-1.074.015-1.611.016C178.158,201.039,177.594,201.039,177.032,201.039Z" transform="translate(-152.047 -175.221)" fill="#f36f21" stroke="#f36f21" stroke-width="0.3"/>
          <path id="Path_4226" data-name="Path 4226" d="M188.693,72.623a2.5,2.5,0,1,1,2.444-2.561A2.534,2.534,0,0,1,188.693,72.623Zm.846-2.489a.983.983,0,1,0-.991.976.984.984,0,0,0,.991-.976Z" transform="translate(-163.478 -59.389)" fill="#f36f21" stroke="#f36f21" stroke-width="0.3"/>
        </g>
      </g>
    </g>
  </g>
</svg>
