<svg xmlns="http://www.w3.org/2000/svg" width="40" height="40" viewBox="0 0 40 40">
  <g id="Whatsapp_banking_orange" data-name="Whatsapp banking orange" transform="translate(21 -101.89)">
    <path id="Path_2541" data-name="Path 2541" d="M13.172,107.7A19.835,19.835,0,0,0-.916,101.89a19.9,19.9,0,0,0-19.916,19.819,19.713,19.713,0,0,0,2.658,9.91L-21,141.89l10.558-2.756a19.973,19.973,0,0,0,9.518,2.412h.008A19.9,19.9,0,0,0,19,121.725,19.652,19.652,0,0,0,13.172,107.7ZM-.916,138.2H-.923a16.593,16.593,0,0,1-8.425-2.3l-.6-.357-6.265,1.636,1.672-6.079-.394-.623a16.376,16.376,0,0,1-2.531-8.768A16.538,16.538,0,0,1-.91,105.238a16.481,16.481,0,0,1,11.7,4.831,16.338,16.338,0,0,1,4.844,11.655A16.538,16.538,0,0,1-.916,138.2Zm9.08-12.339c-.5-.248-2.944-1.446-3.4-1.611s-.788-.248-1.119.248-1.285,1.611-1.576,1.942-.58.372-1.078.124a13.6,13.6,0,0,1-4-2.458,14.955,14.955,0,0,1-2.768-3.431c-.29-.5,0-.738.218-1.011a14,14,0,0,0,1.244-1.694.907.907,0,0,0-.042-.868c-.124-.248-1.119-2.686-1.534-3.677-.4-.966-.814-.835-1.12-.85-.29-.014-.622-.017-.954-.017a1.832,1.832,0,0,0-1.327.62,5.544,5.544,0,0,0-1.742,4.131A9.612,9.612,0,0,0-9,122.431c.249.33,3.509,5.333,8.5,7.478a28.522,28.522,0,0,0,2.837,1.043,6.853,6.853,0,0,0,3.134.2c.956-.142,2.944-1.2,3.359-2.355a4.121,4.121,0,0,0,.29-2.355c-.124-.207-.456-.33-.954-.578Zm0,0" transform="translate(0 0)" fill="#f36f21" fill-rule="evenodd"/>
  </g>
</svg>
