<svg xmlns="http://www.w3.org/2000/svg" width="76.254" height="59.036" viewBox="0 0 76.254 59.036">
  <g id="svgexport-6_26_" data-name="svgexport-6 (26)" transform="translate(-1 -5.999)">
    <path id="Path_4295" data-name="Path 4295" d="M51.938,46.054a.492.492,0,0,1,.48-.3,2.939,2.939,0,0,0,2.939-2.939V39.2a2.939,2.939,0,0,0-2.939-2.939.492.492,0,0,1-.48-.344,16.69,16.69,0,0,0-1.168-2.8.492.492,0,0,1,.1-.578.64.64,0,0,0,.123-.135,2.964,2.964,0,0,0-.111-4.034l-2.57-2.558a2.927,2.927,0,0,0-4.022-.111,1.156,1.156,0,0,0-.148.111.357.357,0,0,1-.16.111l.517,2.46a2.866,2.866,0,0,0,1.23-.664l.135-.111a.467.467,0,0,1,.664,0l2.558,2.546a.48.48,0,0,1,0,.676l-.111.123a2.989,2.989,0,0,0-.43,3.358,15.768,15.768,0,0,1,1,2.46,2.927,2.927,0,0,0,2.829,2.066.467.467,0,0,1,.48.48V42.93a.48.48,0,0,1-.517.48,2.915,2.915,0,0,0-2.792,2.029,13.886,13.886,0,0,1-1.009,2.46,2.976,2.976,0,0,0,.443,3.333l.111.135a.467.467,0,0,1,0,.664L46.538,54.59a.48.48,0,0,1-.676,0l-.123-.111a2.989,2.989,0,0,0-3.358-.43,15.767,15.767,0,0,1-2.46,1,2.927,2.927,0,0,0-2.066,2.829.467.467,0,0,1-.48.48H33.87a.467.467,0,0,1-.48-.48,2.9,2.9,0,0,0-2.042-2.816,15.742,15.742,0,0,1-2.46-1.021,2.976,2.976,0,0,0-3.333.443l-.135.111a.467.467,0,0,1-.664,0L22.2,52.044a.48.48,0,0,1,0-.676l.111-.123a2.989,2.989,0,0,0,.43-3.358,15.767,15.767,0,0,1-1-2.46,2.927,2.927,0,0,0-2.829-2.066.467.467,0,0,1-.48-.48V39.2a.467.467,0,0,1,.48-.48,2.9,2.9,0,0,0,2.816-2.042,15.743,15.743,0,0,1,1.021-2.46,2.976,2.976,0,0,0-.443-3.333l-.111-.135a.467.467,0,0,1,0-.664l2.546-2.558a.48.48,0,0,1,.676,0l.123.111a2.989,2.989,0,0,0,3.345.443,17.009,17.009,0,0,1,2.054-.9l-.8-2.288a18.24,18.24,0,0,0-2.361,1.021.492.492,0,0,1-.578-.1.64.64,0,0,0-.135-.123,2.964,2.964,0,0,0-4.034.111l-2.558,2.57a2.927,2.927,0,0,0-.111,4.022.492.492,0,0,0,.123.148.5.5,0,0,1,.111.566,16.714,16.714,0,0,0-1.23,2.841.48.48,0,0,1-.467.32A2.939,2.939,0,0,0,16,39.2V42.82a2.939,2.939,0,0,0,2.939,2.939.492.492,0,0,1,.48.344,16.69,16.69,0,0,0,1.168,2.8.492.492,0,0,1-.1.578.639.639,0,0,0-.123.135,2.964,2.964,0,0,0,.111,4.034l2.57,2.558a2.927,2.927,0,0,0,4.009.111A.492.492,0,0,0,27.2,56.2a.5.5,0,0,1,.566-.111,16.714,16.714,0,0,0,2.841,1.23.48.48,0,0,1,.32.467,2.939,2.939,0,0,0,2.939,2.9h3.616a2.939,2.939,0,0,0,2.939-2.939.492.492,0,0,1,.344-.48,16.689,16.689,0,0,0,2.8-1.168.492.492,0,0,1,.578.1.64.64,0,0,0,.135.123,2.964,2.964,0,0,0,4.034-.111l2.558-2.57a2.927,2.927,0,0,0,.111-4.022.492.492,0,0,0-.123-.148.492.492,0,0,1-.1-.578,17.219,17.219,0,0,0,1.168-2.841Z" transform="translate(3.448 4.345)" fill="#f36f21"/>
    <path id="Path_4296" data-name="Path 4296" d="M34.3,49.842a9.839,9.839,0,0,1-6.469-17.219l-1.623-1.869A12.3,12.3,0,1,0,40.3,29.29l-1.205,2.1a9.839,9.839,0,0,1-4.8,18.448Z" transform="translate(4.826 5.355)" fill="#f36f21"/>
    <path id="Path_4297" data-name="Path 4297" d="M51,37h9.839v2.46H51Z" transform="translate(11.495 7.127)" fill="#f36f21"/>
    <path id="Path_4298" data-name="Path 4298" d="M61,37h2.46v2.46H61Z" transform="translate(13.794 7.127)" fill="#f36f21"/>
    <path id="Path_4299" data-name="Path 4299" d="M54.359,51.6a1.23,1.23,0,0,0,1.021.553H60.3V49.69H56.044l-2.1-3.136A1.23,1.23,0,0,0,52.92,46H48v2.46h4.255Z" transform="translate(10.805 9.196)" fill="#f36f21"/>
    <path id="Path_4300" data-name="Path 4300" d="M60,49h2.46v2.46H60Z" transform="translate(13.564 9.886)" fill="#f36f21"/>
    <path id="Path_4301" data-name="Path 4301" d="M53.94,30.6l2.1-3.136H60.3V25h-4.92a1.23,1.23,0,0,0-1.021.553l-2.1,3.136H48v2.46h4.92A1.23,1.23,0,0,0,53.94,30.6Z" transform="translate(10.805 4.368)" fill="#f36f21"/>
    <path id="Path_4302" data-name="Path 4302" d="M60,25h2.46v2.46H60Z" transform="translate(13.564 4.368)" fill="#f36f21"/>
    <path id="Path_4303" data-name="Path 4303" d="M5,37h9.839v2.46H5Z" transform="translate(0.92 7.127)" fill="#f36f21"/>
    <path id="Path_4304" data-name="Path 4304" d="M1,37H3.46v2.46H1Z" transform="translate(0 7.127)" fill="#f36f21"/>
    <path id="Path_4305" data-name="Path 4305" d="M11.94,51.6l2.1-3.136H18.3V46h-4.92a1.23,1.23,0,0,0-1.021.553l-2.1,3.136H6v2.46h4.92A1.23,1.23,0,0,0,11.94,51.6Z" transform="translate(1.149 9.196)" fill="#f36f21"/>
    <path id="Path_4306" data-name="Path 4306" d="M2,49H4.46v2.46H2Z" transform="translate(0.23 9.886)" fill="#f36f21"/>
    <path id="Path_4307" data-name="Path 4307" d="M18.3,28.69H14.044l-2.1-3.136A1.23,1.23,0,0,0,10.92,25H6v2.46h4.255l2.1,3.136a1.23,1.23,0,0,0,1.021.553H18.3Z" transform="translate(1.149 4.368)" fill="#f36f21"/>
    <path id="Path_4308" data-name="Path 4308" d="M2,25H4.46v2.46H2Z" transform="translate(0.23 4.368)" fill="#f36f21"/>
    <path id="Path_4309" data-name="Path 4309" d="M29.929,6.873l-4.92,15.989a1.246,1.246,0,0,0,1.23,1.587h8.13L29.99,37.584a1.232,1.232,0,0,0,2.152,1.132L46.9,19.037a1.233,1.233,0,0,0-.984-1.968H36.742l4.145-9.335A1.23,1.23,0,0,0,39.768,6H31.159a1.23,1.23,0,0,0-1.23.873ZM37.874,8.46l-4.145,9.335a1.23,1.23,0,0,0,1.119,1.734h8.609L34.725,31.176l2.583-7.564a1.241,1.241,0,0,0-1.23-1.623H27.9L32.069,8.46Z" transform="translate(5.508 0)" fill="#f36f21"/>
  </g>
</svg>
