<svg xmlns="http://www.w3.org/2000/svg" width="42.084" height="49.9" viewBox="0 0 42.084 49.9">
  <g id="svgexport-6_37_" data-name="svgexport-6 (37)" transform="translate(-40.097)">
    <g id="Group_2661" data-name="Group 2661" transform="translate(40.097)">
      <g id="Group_2660" data-name="Group 2660" transform="translate(0)">
        <path id="Path_4345" data-name="Path 4345" d="M79.776,6.613H75.568V2.4a2.412,2.412,0,0,0-2.4-2.4H42.5a2.412,2.412,0,0,0-2.4,2.4V40.882a2.412,2.412,0,0,0,2.4,2.4H46.71V47.5a2.412,2.412,0,0,0,2.4,2.4h20.44a7.017,7.017,0,0,0,4.156-1.648l6.718-6.323a6.385,6.385,0,0,0,1.751-4.053V9.018A2.412,2.412,0,0,0,79.776,6.613ZM46.71,9.018V41.483H42.5a.609.609,0,0,1-.6-.6V2.4a.609.609,0,0,1,.6-.6H73.164a.61.61,0,0,1,.6.6V6.613H49.115A2.412,2.412,0,0,0,46.71,9.018Zm32.483,31.6-6.718,6.323a3.191,3.191,0,0,1-.515.377V41.784a1.508,1.508,0,0,1,1.5-1.5h6.015A2.525,2.525,0,0,1,79.193,40.616Zm1.184-2.74a2.8,2.8,0,0,1-.082.6H73.463a3.313,3.313,0,0,0-3.307,3.307v6.24a3.144,3.144,0,0,1-.6.073H49.115a.609.609,0,0,1-.6-.6V9.018a.609.609,0,0,1,.6-.6H79.776a.609.609,0,0,1,.6.6Z" transform="translate(-40.097)" fill="#666"/>
      </g>
    </g>
    <g id="Group_2663" data-name="Group 2663" transform="translate(54.827 15.03)">
      <g id="Group_2662" data-name="Group 2662" transform="translate(0)">
        <path id="Path_4346" data-name="Path 4346" d="M209.572,154.216H192.137a.9.9,0,0,0,0,1.8h17.435a.9.9,0,1,0,0-1.8Z" transform="translate(-191.235 -154.216)" fill="#666"/>
      </g>
    </g>
    <g id="Group_2665" data-name="Group 2665" transform="translate(54.827 27.054)">
      <g id="Group_2664" data-name="Group 2664" transform="translate(0)">
        <path id="Path_4347" data-name="Path 4347" d="M209.572,277.59H192.137a.9.9,0,0,0,0,1.8h17.435a.9.9,0,0,0,0-1.8Z" transform="translate(-191.235 -277.59)" fill="#666"/>
      </g>
    </g>
    <g id="Group_2667" data-name="Group 2667" transform="translate(54.827 33.066)">
      <g id="Group_2666" data-name="Group 2666">
        <path id="Path_4348" data-name="Path 4348" d="M201.757,339.277h-9.619a.9.9,0,0,0,0,1.8h9.619a.9.9,0,0,0,0-1.8Z" transform="translate(-191.236 -339.277)" fill="#666"/>
      </g>
    </g>
    <g id="Group_2669" data-name="Group 2669" transform="translate(54.827 21.042)">
      <g id="Group_2668" data-name="Group 2668" transform="translate(0)">
        <path id="Path_4349" data-name="Path 4349" d="M209.572,215.9H192.137a.9.9,0,0,0,0,1.8h17.435a.9.9,0,1,0,0-1.8Z" transform="translate(-191.235 -215.903)" fill="#666"/>
      </g>
    </g>
  </g>
</svg>
