<svg id="svgexport-6_27_" data-name="svgexport-6 (27)" xmlns="http://www.w3.org/2000/svg" width="60" height="60" viewBox="0 0 60 60">
  <path id="Path_4310" data-name="Path 4310" d="M9.035,320C4.544,320,0,321.379,0,324.016v12.047c0,2.636,4.544,4.016,9.035,4.016s9.035-1.379,9.035-4.016V324.016C18.07,321.379,13.525,320,9.035,320Zm0,2.008c4.565,0,7.027,1.425,7.027,2.008s-2.463,2.008-7.027,2.008-7.027-1.425-7.027-2.008S4.47,322.008,9.035,322.008Zm0,16.062c-4.565,0-7.027-1.425-7.027-2.008v-1.405a15.922,15.922,0,0,0,7.027,1.405,15.922,15.922,0,0,0,7.027-1.405v1.405C16.062,336.644,13.6,338.07,9.035,338.07Zm0-4.016c-4.565,0-7.027-1.425-7.027-2.008v-1.405a15.922,15.922,0,0,0,7.027,1.405,15.922,15.922,0,0,0,7.027-1.405v1.405C16.062,332.629,13.6,334.054,9.035,334.054Zm0-4.016c-4.565,0-7.027-1.425-7.027-2.008v-1.405a15.921,15.921,0,0,0,7.027,1.405,15.921,15.921,0,0,0,7.027-1.405v1.405C16.062,328.613,13.6,330.039,9.035,330.039Zm0,0" transform="translate(0 -280.078)" fill="#f36f21"/>
  <path id="Path_4311" data-name="Path 4311" d="M177.035,256c-4.491,0-9.035,1.379-9.035,4.016v20.078c0,2.636,4.544,4.016,9.035,4.016s9.035-1.379,9.035-4.016V260.016C186.07,257.379,181.525,256,177.035,256Zm0,2.008c4.565,0,7.027,1.425,7.027,2.008s-2.463,2.008-7.027,2.008-7.027-1.425-7.027-2.008S172.47,258.008,177.035,258.008Zm0,24.093c-4.565,0-7.027-1.425-7.027-2.008v-1.405a18.272,18.272,0,0,0,14.054,0v1.405C184.062,280.676,181.6,282.1,177.035,282.1Zm0-4.016c-4.565,0-7.027-1.425-7.027-2.008v-1.405a18.272,18.272,0,0,0,14.054,0v1.405C184.062,276.66,181.6,278.085,177.035,278.085Zm0-4.016c-4.565,0-7.027-1.425-7.027-2.008v-1.405a18.271,18.271,0,0,0,14.054,0v1.405C184.062,272.644,181.6,274.07,177.035,274.07Zm0-4.016c-4.565,0-7.027-1.425-7.027-2.008v-1.405a18.272,18.272,0,0,0,14.054,0v1.405C184.062,268.629,181.6,270.054,177.035,270.054Zm0-4.016c-4.565,0-7.027-1.425-7.027-2.008v-1.405a18.272,18.272,0,0,0,14.054,0v1.405C184.062,264.613,181.6,266.039,177.035,266.039Zm0,0" transform="translate(-147.035 -224.109)" fill="#f36f21"/>
  <path id="Path_4312" data-name="Path 4312" d="M345.035,160c-4.49,0-9.035,1.379-9.035,4.016V196.14c0,2.636,4.544,4.016,9.035,4.016s9.035-1.379,9.035-4.016V164.016C354.07,161.379,349.525,160,345.035,160Zm0,2.008c4.565,0,7.027,1.425,7.027,2.008s-2.463,2.008-7.027,2.008-7.027-1.425-7.027-2.008S340.47,162.008,345.035,162.008Zm0,36.14c-4.565,0-7.027-1.425-7.027-2.008v-1.405a18.272,18.272,0,0,0,14.054,0v1.405C352.062,196.722,349.6,198.148,345.035,198.148Zm0-4.016c-4.565,0-7.027-1.425-7.027-2.008v-1.405a18.272,18.272,0,0,0,14.054,0v1.405C352.062,192.707,349.6,194.132,345.035,194.132Zm0-4.016c-4.565,0-7.027-1.425-7.027-2.008V186.7a18.272,18.272,0,0,0,14.054,0v1.405C352.062,188.691,349.6,190.116,345.035,190.116Zm0-4.016c-4.565,0-7.027-1.425-7.027-2.008v-1.405a18.272,18.272,0,0,0,14.054,0v1.405C352.062,184.675,349.6,186.1,345.035,186.1Zm0-4.016c-4.565,0-7.027-1.425-7.027-2.008v-1.405a18.272,18.272,0,0,0,14.054,0v1.405C352.062,180.66,349.6,182.085,345.035,182.085Zm0-4.016c-4.565,0-7.027-1.425-7.027-2.008v-1.405a18.272,18.272,0,0,0,14.054,0v1.405C352.062,176.644,349.6,178.07,345.035,178.07Zm0-4.016c-4.565,0-7.027-1.425-7.027-2.008v-1.405a18.272,18.272,0,0,0,14.054,0v1.405C352.062,172.629,349.6,174.054,345.035,174.054Zm0-4.016c-4.565,0-7.027-1.425-7.027-2.008v-1.405a18.272,18.272,0,0,0,14.054,0v1.405C352.062,168.613,349.6,170.039,345.035,170.039Zm0,0" transform="translate(-294.07 -140.155)" fill="#f36f21"/>
  <path id="Path_4313" data-name="Path 4313" d="M51.385,0V2.008H58.97l-19,19.074H19.009L2.727,35.384,4.045,36.9,19.761,23.089H40.8L60.384,3.427v7.615h2V0Zm0,0" transform="translate(-2.384)" fill="#f36f21"/>
</svg>
