<svg xmlns="http://www.w3.org/2000/svg" width="60" height="60" viewBox="0 0 60 60">
  <g id="_033_-_Insurance" data-name="033 - Insurance" transform="translate(-0.017 0)">
    <g id="Page-1" transform="translate(0.017 0.001)">
      <g id="_033---Insurance" data-name="033---Insurance">
        <path id="Shape" d="M45.413,6.65,30.407.084a1,1,0,0,0-.8,0L14.6,6.65a1,1,0,0,0-.6.916v15.7a11.013,11.013,0,0,0,4.562,8.908l10.371,7.477a1.831,1.831,0,0,0,2.147,0l10.371-7.476a11.013,11.013,0,0,0,4.562-8.908V7.566A1,1,0,0,0,45.413,6.65Zm-1.4,16.617a9.008,9.008,0,0,1-3.732,7.286L30.007,37.96,19.732,30.553A9.008,9.008,0,0,1,16,23.267V8.22L30.007,2.092,44.013,8.22Z" transform="translate(-0.017 -0.001)" fill="#f36f21"/>
        <path id="Shape-2" data-name="Shape" d="M29.6,4.45l-11,4.816a1,1,0,0,0-.6.916V23.267a7,7,0,0,0,2.9,5.664l8.515,6.142a1,1,0,0,0,1.17,0L39.1,28.931A7,7,0,0,0,42,23.267V10.182a1,1,0,0,0-.6-.916L30.4,4.45A1,1,0,0,0,29.6,4.45ZM40,10.835V23.267a5,5,0,0,1-2.07,4.042L30,33.029l-7.93-5.72A5,5,0,0,1,20,23.267V10.835L30,6.458Z" transform="translate(-0.011 -0.001)" fill="#f36f21"/>
        <path id="Shape-3" data-name="Shape" d="M8.285,33.2,6.122,28.146A3.188,3.188,0,0,0,.289,30.721l3.919,8.621a10.621,10.621,0,0,0,2.171,3.134l6.163,6.164A1.988,1.988,0,0,0,12,50v8a2,2,0,0,0,2,2H25a2,2,0,0,0,2-2V50a2,2,0,0,0-2-2V46.139a10.478,10.478,0,0,0-2.192-6.55,7.2,7.2,0,0,0-3.333-2.431,19.782,19.782,0,0,1-5.725-3.674A4.6,4.6,0,0,0,8.285,33.2ZM25,58H14V50H25ZM21.247,40.838A8.485,8.485,0,0,1,23,46.139V48H14.731L7.793,41.062a8.649,8.649,0,0,1-1.765-2.547L2.109,29.894a1.188,1.188,0,1,1,2.174-.96L6.52,34.151a11.8,11.8,0,0,0,2.522,3.725l4.568,4.569a1,1,0,1,0,1.414-1.414l-4.568-4.569a9.863,9.863,0,0,1-1.233-1.5,2.6,2.6,0,0,1,3.239.054,21.321,21.321,0,0,0,6.38,4.04A5.253,5.253,0,0,1,21.247,40.838Z" transform="translate(-0.017 -0.001)" fill="#f36f21"/>
        <path id="Shape-4" data-name="Shape" d="M22,53H21a1,1,0,0,0,0,2h1a1,1,0,0,0,0-2Z" transform="translate(-0.013 -0.001)" fill="#f36f21"/>
        <path id="Shape-5" data-name="Shape" d="M55.792,39.342l3.919-8.621a3.188,3.188,0,1,0-5.832-2.575l-2.158,5.035a4.612,4.612,0,0,0-5.471.3,19.782,19.782,0,0,1-5.725,3.674,7.2,7.2,0,0,0-3.333,2.431A10.478,10.478,0,0,0,35,46.139V48a2,2,0,0,0-2,2v8a2,2,0,0,0,2,2H46a2,2,0,0,0,2-2V50a1.988,1.988,0,0,0-.542-1.36l6.163-6.164A10.621,10.621,0,0,0,55.792,39.342ZM46,58H35V50H46Zm-.731-10H37V46.139a8.485,8.485,0,0,1,1.753-5.3,5.256,5.256,0,0,1,2.4-1.783,21.312,21.312,0,0,0,6.381-4.04,2.6,2.6,0,0,1,3.245-.063,9.806,9.806,0,0,1-1.239,1.51l-4.568,4.569a1,1,0,0,0,1.414,1.414l4.568-4.569a11.8,11.8,0,0,0,2.522-3.725l2.237-5.218a1.189,1.189,0,1,1,2.174.961l-3.919,8.621A8.649,8.649,0,0,1,52.2,41.063Z" transform="translate(-0.004 -0.001)" fill="#f36f21"/>
        <path id="Shape-6" data-name="Shape" d="M39,53H38a1,1,0,0,0,0,2h1a1,1,0,0,0,0-2Z" transform="translate(-0.009 -0.001)" fill="#f36f21"/>
        <path id="Shape-7" data-name="Shape" d="M24.6,21.2a1,1,0,0,0-1.2,1.6l4,3a1,1,0,0,0,.6.2,1.07,1.07,0,0,0,.169-.014,1,1,0,0,0,.663-.431l8-12a1,1,0,0,0-1.664-1.11L27.754,23.566Z" transform="translate(-0.011 -0.001)" fill="#f36f21"/>
      </g>
    </g>
  </g>
</svg>
