<svg xmlns="http://www.w3.org/2000/svg" width="60" height="60.001" viewBox="0 0 60 60.001">
  <g id="svgexport-6_30_" data-name="svgexport-6 (30)" transform="translate(-1 -1.004)">
    <g id="Outline_final" transform="translate(1 1.004)">
      <path id="Path_4324" data-name="Path 4324" d="M50.881,34.318a.762.762,0,0,1-.081,0,.968.968,0,0,1-.884-1.044,17.637,17.637,0,0,0-.515-5.918.968.968,0,1,1,1.874-.484,19.562,19.562,0,0,1,.57,6.567.968.968,0,0,1-.964.88Z" transform="translate(-2.561 -1.813)" fill="#f36f21"/>
      <path id="Path_4325" data-name="Path 4325" d="M46.834,34.366a1.031,1.031,0,0,1-.108-.006.968.968,0,0,1-.855-1.069,13.668,13.668,0,0,0-.948-6.724.968.968,0,1,1,1.789-.739A15.617,15.617,0,0,1,47.8,33.506.968.968,0,0,1,46.834,34.366Z" transform="translate(-2.415 -1.784)" fill="#f36f21"/>
      <path id="Path_4326" data-name="Path 4326" d="M31.4,51.575a19.25,19.25,0,0,1-12.95-5l-.7.7a.968.968,0,0,1-1.634-.5l-1.364-6.843a.968.968,0,0,1,.264-.871.955.955,0,0,1,.871-.265l6.843,1.365a.968.968,0,0,1,.495,1.634l-.665.665a13.55,13.55,0,0,0,9.775,3.269.97.97,0,0,1,.13,1.936,15.47,15.47,0,0,1-11.986-4.492.968.968,0,0,1,0-1.369l.1-.1-3.646-.727.727,3.646.085-.085a.968.968,0,0,1,1.369,0,17.355,17.355,0,0,0,16,4.7.968.968,0,1,1,.407,1.892,19.54,19.54,0,0,1-4.115.438Z" transform="translate(-1.444 -2.22)" fill="#f36f21"/>
      <path id="Path_4327" data-name="Path 4327" d="M13.441,37.036a.968.968,0,0,1-.942-.749,19.432,19.432,0,0,1-.469-5.369.969.969,0,1,1,1.936.1,17.506,17.506,0,0,0,.422,4.832.968.968,0,0,1-.724,1.161.951.951,0,0,1-.223.027Z" transform="translate(-1.355 -1.937)" fill="#f36f21"/>
      <path id="Path_4328" data-name="Path 4328" d="M46.9,24.107a.961.961,0,0,1-.194-.019l-6.833-1.364a.968.968,0,0,1-.5-1.634l.581-.586a13.507,13.507,0,0,0-11.731-2.2.968.968,0,1,1-.517-1.866A15.445,15.445,0,0,1,42.033,19.7a.968.968,0,0,1,.047,1.413l-.066.066,3.644.727-.733-3.648-.106.106a.968.968,0,0,1-1.331.036,17.28,17.28,0,0,0-12.571-4.438.969.969,0,0,1-.1-1.936,19.238,19.238,0,0,1,13.27,4.333l.75-.75a.968.968,0,0,1,1.634.494l1.374,6.843a.968.968,0,0,1-.949,1.161Z" transform="translate(-1.84 -1.358)" fill="#f36f21"/>
      <path id="Path_4329" data-name="Path 4329" d="M17.849,37.888a.968.968,0,0,1-.91-.637,15.444,15.444,0,0,1-.9-6.348.97.97,0,1,1,1.936.13,13.492,13.492,0,0,0,.786,5.556.968.968,0,0,1-.91,1.3Z" transform="translate(-1.484 -1.937)" fill="#f36f21"/>
      <path id="Path_4330" data-name="Path 4330" d="M61.131,45.646H35.968A.968.968,0,0,1,35,44.678V41.913a.968.968,0,0,1,.555-.871L48.136,35.1a.968.968,0,0,1,.827,0l12.582,5.945a.968.968,0,0,1,.555.871v2.765a.968.968,0,0,1-.968.968Zm-24.2-1.936H60.164V42.526L48.55,37.038,36.936,42.526Z" transform="translate(-2.099 -2.098)" fill="#f36f21"/>
      <path id="Path_4331" data-name="Path 4331" d="M50.839,56.582H46.968A.968.968,0,0,1,46,55.614V44.968A.968.968,0,0,1,46.968,44h3.871a.968.968,0,0,1,.968.968V55.614A.968.968,0,0,1,50.839,56.582Zm-2.9-1.936h1.936v-8.71H47.936Z" transform="translate(-2.452 -2.387)" fill="#f36f21"/>
      <path id="Path_4332" data-name="Path 4332" d="M58.839,56.582H54.968A.968.968,0,0,1,54,55.614V44.968A.968.968,0,0,1,54.968,44h3.871a.968.968,0,0,1,.968.968V55.614A.968.968,0,0,1,58.839,56.582Zm-2.9-1.936h1.936v-8.71H55.936Z" transform="translate(-2.71 -2.387)" fill="#f36f21"/>
      <path id="Path_4333" data-name="Path 4333" d="M42.839,56.582H38.968A.968.968,0,0,1,38,55.614V44.968A.968.968,0,0,1,38.968,44h3.871a.968.968,0,0,1,.968.968V55.614A.968.968,0,0,1,42.839,56.582Zm-2.9-1.936h1.936v-8.71H39.936Z" transform="translate(-2.194 -2.387)" fill="#f36f21"/>
      <path id="Path_4334" data-name="Path 4334" d="M59.26,59.839H37.968A.968.968,0,0,1,37,58.871v-2.9A.968.968,0,0,1,37.968,55H59.26a.968.968,0,0,1,.968.968v2.9A.968.968,0,0,1,59.26,59.839ZM38.936,57.9H58.292v-.968H38.936Z" transform="translate(-2.164 -2.741)" fill="#f36f21"/>
      <path id="Path_4335" data-name="Path 4335" d="M61.131,62.839H35.968A.968.968,0,0,1,35,61.871v-2.9A.968.968,0,0,1,35.968,58H61.131a.968.968,0,0,1,.968.968v2.9A.968.968,0,0,1,61.131,62.839ZM36.936,60.9H60.164v-.968H36.936Z" transform="translate(-2.099 -2.838)" fill="#f36f21"/>
      <path id="Path_4336" data-name="Path 4336" d="M48.9,43.807a2.9,2.9,0,1,1,2.9-2.9A2.9,2.9,0,0,1,48.9,43.807Zm0-3.871a.968.968,0,1,0,.968.968A.968.968,0,0,0,48.9,39.936Z" transform="translate(-2.452 -2.194)" fill="#f36f21"/>
      <path id="Path_4337" data-name="Path 4337" d="M27.131,11.646H1.968A.968.968,0,0,1,1,10.678V7.913a.968.968,0,0,1,.555-.871L14.136,1.1a.968.968,0,0,1,.827,0L27.545,7.042a.968.968,0,0,1,.555.871v2.765A.968.968,0,0,1,27.131,11.646ZM2.936,9.711H26.164V8.526L14.55,3.038,2.936,8.526Z" transform="translate(-1 -1.004)" fill="#f36f21"/>
      <path id="Path_4338" data-name="Path 4338" d="M16.839,22.582H12.968A.968.968,0,0,1,12,21.614V10.968A.968.968,0,0,1,12.968,10h3.871a.968.968,0,0,1,.968.968V21.614A.968.968,0,0,1,16.839,22.582Zm-2.9-1.936h1.936v-8.71H13.936Z" transform="translate(-1.355 -1.294)" fill="#f36f21"/>
      <path id="Path_4339" data-name="Path 4339" d="M24.839,22.582H20.968A.968.968,0,0,1,20,21.614V10.968A.968.968,0,0,1,20.968,10h3.871a.968.968,0,0,1,.968.968V21.614A.968.968,0,0,1,24.839,22.582Zm-2.9-1.936h1.936v-8.71H21.936Z" transform="translate(-1.613 -1.294)" fill="#f36f21"/>
      <path id="Path_4340" data-name="Path 4340" d="M8.839,22.582H4.968A.968.968,0,0,1,4,21.614V10.968A.968.968,0,0,1,4.968,10H8.839a.968.968,0,0,1,.968.968V21.614A.968.968,0,0,1,8.839,22.582Zm-2.9-1.936H7.871v-8.71H5.936Z" transform="translate(-1.097 -1.294)" fill="#f36f21"/>
      <path id="Path_4341" data-name="Path 4341" d="M25.26,25.839H3.968A.968.968,0,0,1,3,24.871v-2.9A.968.968,0,0,1,3.968,21H25.26a.968.968,0,0,1,.968.968v2.9A.968.968,0,0,1,25.26,25.839ZM4.936,23.9H24.292v-.968H4.936Z" transform="translate(-1.064 -1.648)" fill="#f36f21"/>
      <path id="Path_4342" data-name="Path 4342" d="M27.131,28.839H1.968A.968.968,0,0,1,1,27.871v-2.9A.968.968,0,0,1,1.968,24H27.131a.968.968,0,0,1,.968.968v2.9A.968.968,0,0,1,27.131,28.839ZM2.936,26.9H26.164v-.968H2.936Z" transform="translate(-1 -1.744)" fill="#f36f21"/>
      <path id="Path_4343" data-name="Path 4343" d="M14.9,9.807a2.9,2.9,0,1,1,2.9-2.9A2.9,2.9,0,0,1,14.9,9.807Zm0-3.871a.968.968,0,1,0,.968.968A.968.968,0,0,0,14.9,5.936Z" transform="translate(-1.355 -1.101)" fill="#f36f21"/>
    </g>
  </g>
</svg>
