<svg xmlns="http://www.w3.org/2000/svg" width="60" height="60" viewBox="0 0 60 60">
  <g id="svgexport-10" transform="translate(0 -0.023)">
    <g id="Group_2585" data-name="Group 2585" transform="translate(17.899 45.004)">
      <g id="Group_2584" data-name="Group 2584">
        <path id="Path_4291" data-name="Path 4291" d="M155.075,384.8a1.227,1.227,0,0,0-.067-.221,1.191,1.191,0,0,0-.108-.2,1.141,1.141,0,0,0-.324-.324,1.16,1.16,0,0,0-.2-.108,1.1,1.1,0,0,0-.22-.067,1.157,1.157,0,0,0-.458,0,1.139,1.139,0,0,0-.221.067,1.193,1.193,0,0,0-.2.108,1.141,1.141,0,0,0-.324.324,1.113,1.113,0,0,0-.108.2,1.138,1.138,0,0,0-.067.221,1.128,1.128,0,0,0,0,.458,1.1,1.1,0,0,0,.067.22,1.087,1.087,0,0,0,.108.2,1.142,1.142,0,0,0,.324.324,1.187,1.187,0,0,0,.2.108,1.138,1.138,0,0,0,.221.067,1.128,1.128,0,0,0,.458,0,1.1,1.1,0,0,0,.22-.067,1.162,1.162,0,0,0,.2-.108,1.141,1.141,0,0,0,.324-.324,1.16,1.16,0,0,0,.108-.2,1.187,1.187,0,0,0,.067-.22,1.128,1.128,0,0,0,0-.458Z" transform="translate(-152.75 -383.857)" fill="#f36f21"/>
      </g>
    </g>
    <g id="Group_2587" data-name="Group 2587" transform="translate(0 36.293)">
      <g id="Group_2586" data-name="Group 2586">
        <path id="Path_4292" data-name="Path 4292" d="M53.893,319.912l-.014-.035c-1.078-2.529-3.607-3.464-6.6-2.44L39.116,319.7a5.357,5.357,0,0,0-3.313-3.271l-.031-.011L26.8,313.366a9.247,9.247,0,0,0-7.466-3.444c-3.061,0-5.769,2.1-7.318,4.4H1.172A1.173,1.173,0,0,0,0,315.5V330.3a1.173,1.173,0,0,0,1.172,1.174H8.138A1.173,1.173,0,0,0,9.309,330.3v-1.014h3.267a1.173,1.173,0,0,0,1.172-1.174v-.338a8.294,8.294,0,0,1,4.28,1.54,70.845,70.845,0,0,0,7.039,3.6l.051.022a10.5,10.5,0,0,0,3.769.712,9.319,9.319,0,0,0,3.882-.833l18.042-6.475c.032-.012.064-.024.095-.039C52.629,325.51,55.2,323.269,53.893,319.912ZM6.966,329.128H2.343V316.67H6.966ZM11.4,326.94h-2.1V316.67h2.1Zm38.564-2.789-18.034,6.473-.053.02-.047.02a7.577,7.577,0,0,1-5.835.1,67.8,67.8,0,0,1-6.8-3.483,10.528,10.528,0,0,0-5.45-1.858v-9.459c1.111-1.825,3.264-3.692,5.586-3.692a6.757,6.757,0,0,1,5.735,2.7,1.172,1.172,0,0,0,.622.5L35,318.637a2.636,2.636,0,0,1,1.912,3.109,2.282,2.282,0,0,1-2.8,1.58l-10.5-3.335a1.174,1.174,0,0,0-.708,2.239l10.515,3.34.034.01a4.624,4.624,0,0,0,5.715-3.192q.04-.143.072-.285l8.8-2.443c1.27-.435,2.938-.592,3.681,1.123C52.485,322.8,50.488,323.9,49.968,324.151Z" transform="translate(0 -309.922)" fill="#f36f21"/>
      </g>
    </g>
    <g id="Group_2589" data-name="Group 2589" transform="translate(39.752 14.493)">
      <g id="Group_2588" data-name="Group 2588">
        <path id="Path_4293" data-name="Path 4293" d="M341.577,124.443a1.14,1.14,0,0,0-.068-.221,1.192,1.192,0,0,0-.254-.381,1.123,1.123,0,0,0-.178-.146,1.192,1.192,0,0,0-.2-.108,1.17,1.17,0,0,0-.679-.067,1.1,1.1,0,0,0-.22.067,1.161,1.161,0,0,0-.2.108,1.142,1.142,0,0,0-.324.324,1.19,1.19,0,0,0-.108.2,1.136,1.136,0,0,0-.067.221,1.128,1.128,0,0,0,0,.458,1.1,1.1,0,0,0,.067.22,1.158,1.158,0,0,0,.108.2,1.141,1.141,0,0,0,.324.324,1.16,1.16,0,0,0,.2.108,1.186,1.186,0,0,0,.22.067,1.156,1.156,0,0,0,.229.023,1.177,1.177,0,0,0,.23-.023,1.243,1.243,0,0,0,.22-.067,1.191,1.191,0,0,0,.2-.108,1.141,1.141,0,0,0,.324-.324,1.086,1.086,0,0,0,.108-.2,1.1,1.1,0,0,0,.068-.22,1.187,1.187,0,0,0,0-.458Z" transform="translate(-339.25 -123.498)" fill="#f36f21"/>
      </g>
    </g>
    <g id="Group_2591" data-name="Group 2591" transform="translate(3.487 0.023)">
      <g id="Group_2590" data-name="Group 2590" transform="translate(0 0)">
        <path id="Path_4294" data-name="Path 4294" d="M85.032,4H78.065a1.173,1.173,0,0,0-1.172,1.174V6.189H73.627a1.173,1.173,0,0,0-1.172,1.174V7.7a8.3,8.3,0,0,1-4.28-1.54,70.839,70.839,0,0,0-7.039-3.6l-.052-.022a9.947,9.947,0,0,0-7.651.121L48.718,4.351,44.743.367a1.17,1.17,0,0,0-1.657,0L30.038,13.446a1.167,1.167,0,0,0,0,1.661l22.3,22.348a1.264,1.264,0,0,0,1.657,0L65.9,25.515c.31.027.631.041.964.041,3.061,0,5.769-2.1,7.318-4.4H85.032A1.173,1.173,0,0,0,86.2,19.983V5.175A1.173,1.173,0,0,0,85.032,4ZM43.915,2.859l2.671,2.677a5.1,5.1,0,0,1-5.341,0Zm-8.72,14.094-2.671-2.677L35.195,11.6a5.131,5.131,0,0,1,0,5.354Zm17.969,18.01-2.67-2.676a5.091,5.091,0,0,1,5.34,0ZM57.521,30.6a7.432,7.432,0,0,0-8.716,0L36.883,18.645a7.478,7.478,0,0,0,0-8.738l2.674-2.68a7.432,7.432,0,0,0,8.717,0l2.534,2.54a4.644,4.644,0,0,0-3.487,2.561A6.695,6.695,0,1,0,55,20.615l3.956,1.346A7.512,7.512,0,0,0,60.2,27.913ZM50.4,19.049l.031.011,2.343.8a4.335,4.335,0,1,1-5.885-4.964A5.2,5.2,0,0,0,50.4,19.049Zm11.488,7.172a5.145,5.145,0,0,1-.749-2.442A9.1,9.1,0,0,0,63.2,24.9Zm10.569-6.706c-1.111,1.825-3.264,3.693-5.587,3.693a8.509,8.509,0,0,1-1.222-.086h0a6.708,6.708,0,0,1-4.34-2.381c-.024-.035-.126-.169-.141-.191a1.168,1.168,0,0,0-.646-.538L51.2,16.841a2.636,2.636,0,0,1-1.912-3.108v-.005a2.282,2.282,0,0,1,2.8-1.575l10.5,3.334a1.174,1.174,0,0,0,.708-2.239L54.948,10.6l-.073-.073,0,0L50.55,6.188l3.715-1.333.04-.015.012,0,.047-.02a7.577,7.577,0,0,1,5.835-.1A67.816,67.816,0,0,1,67,8.2a10.529,10.529,0,0,0,5.451,1.858Zm4.439-.706H74.8V8.538h2.1Zm6.967,0H79.237V6.35H83.86Z" transform="translate(-29.691 -0.023)" fill="#f36f21"/>
      </g>
    </g>
  </g>
</svg>
