<svg xmlns="http://www.w3.org/2000/svg" width="60.304" height="60.3" viewBox="0 0 60.304 60.3">
  <g id="svgexport-6_29_" data-name="svgexport-6 (29)" transform="translate(-4.405 -4.407)">
    <g id="Group_2592" data-name="Group 2592" transform="translate(4.557 4.557)">
      <path id="Path_4314" data-name="Path 4314" d="M64.543,87.97,58.524,54.465a.883.883,0,0,0-.869-.729h-46.2a.883.883,0,0,0-.869.729L4.571,87.97a.885.885,0,0,0,.869,1.043H63.674a.885.885,0,0,0,.869-1.043ZM9.188,72.26H20.537l-.594,6.605H8Zm1.5-8.376h10.6l-.6,6.6H9.506Zm48.916,6.6H48.419l-.594-6.6h10.6Zm-12.964,0h-11.2v-6.6H46.052Zm-11.2-8.376V55.507H45.3l.594,6.605Zm-1.766,0H23.222l.594-6.605h9.859Zm0,1.771v6.6H22.47l.593-6.6ZM22.311,72.26H33.674v6.605H21.718Zm11.364,8.377v6.605H20.965l.594-6.605Zm1.766,0H47.556l.594,6.605H35.441Zm0-1.771V72.26H46.8l.593,6.605ZM48.578,72.26H59.926l1.187,6.605H49.171ZM58.1,62.113H47.666l-.593-6.605h9.841ZM12.2,55.507h9.841l-.593,6.605H11.011ZM7.685,80.636h12.1l-.593,6.605H6.5Zm42.242,6.605-.593-6.605h12.1l1.187,6.605Z" transform="translate(-4.557 -29.013)" fill="#f36f21" stroke="#f36f21" stroke-width="0.3"/>
      <path id="Path_4315" data-name="Path 4315" d="M58.932,25.985a5.192,5.192,0,1,0-5.192-5.192,5.192,5.192,0,0,0,5.192,5.192Zm0-8.613a3.421,3.421,0,1,1-3.421,3.421A3.421,3.421,0,0,1,58.932,17.371Z" transform="translate(-28.932 -10.011)" fill="#f36f21" stroke="#f36f21" stroke-width="0.3"/>
      <path id="Path_4316" data-name="Path 4316" d="M63.136,8.442a.886.886,0,0,0,.886-.886V5.443a.886.886,0,1,0-1.771,0V7.556a.886.886,0,0,0,.886.886Z" transform="translate(-33.136 -4.557)" fill="#f36f21" stroke="#f36f21" stroke-width="0.3"/>
      <path id="Path_4317" data-name="Path 4317" d="M62.25,40.373v2.113a.886.886,0,0,0,1.771,0V40.373a.886.886,0,1,0-1.771,0Z" transform="translate(-33.136 -21.862)" fill="#f36f21" stroke="#f36f21" stroke-width="0.3"/>
      <path id="Path_4318" data-name="Path 4318" d="M77.627,25a.886.886,0,0,0,.886.886h2.113a.886.886,0,1,0,0-1.771H78.513A.886.886,0,0,0,77.627,25Z" transform="translate(-40.757 -14.215)" fill="#f36f21" stroke="#f36f21" stroke-width="0.3"/>
      <path id="Path_4319" data-name="Path 4319" d="M43.583,25.881H45.7a.886.886,0,0,0,0-1.771H43.583a.886.886,0,0,0,0,1.771Z" transform="translate(-23.452 -14.215)" fill="#f36f21" stroke="#f36f21" stroke-width="0.3"/>
      <path id="Path_4320" data-name="Path 4320" d="M74.009,13.568a.883.883,0,0,0,.627-.26l1.494-1.494a.885.885,0,0,0-1.252-1.251l-1.494,1.494a.886.886,0,0,0,.626,1.512Z" transform="translate(-38.525 -7.404)" fill="#f36f21" stroke="#f36f21" stroke-width="0.3"/>
      <path id="Path_4321" data-name="Path 4321" d="M50.177,35.247l-1.494,1.494a.886.886,0,1,0,1.253,1.252L51.43,36.5a.886.886,0,0,0-1.253-1.253Z" transform="translate(-26.288 -19.632)" fill="#f36f21" stroke="#f36f21" stroke-width="0.3"/>
      <path id="Path_4322" data-name="Path 4322" d="M74.635,35.247A.886.886,0,0,0,73.383,36.5l1.494,1.494a.885.885,0,0,0,1.252-1.252Z" transform="translate(-38.524 -19.632)" fill="#f36f21" stroke="#f36f21" stroke-width="0.3"/>
      <path id="Path_4323" data-name="Path 4323" d="M50.177,13.292a.886.886,0,0,0,1.253-1.253l-1.494-1.492A.886.886,0,1,0,48.683,11.8Z" transform="translate(-26.288 -7.387)" fill="#f36f21" stroke="#f36f21" stroke-width="0.3"/>
    </g>
  </g>
</svg>
