<svg width="100" height="95" viewBox="0 0 100 95" fill="none" xmlns="http://www.w3.org/2000/svg">
<path d="M41.4102 94.01L0.700195 70.51V23.5L41.4102 0L82.1202 23.5V70.5L41.4102 94V94.01ZM5.7002 67.62L41.4102 88.24L77.1202 67.62V26.39L41.4102 5.77L5.7002 26.39V67.62Z" fill="#276AC4"/>
<path d="M58.5904 94.01L17.8804 70.51V23.5L58.5904 0L99.3004 23.5V70.5L58.5904 94V94.01ZM22.8804 67.62L58.5904 88.24L94.3004 67.62V26.39L58.5904 5.77L22.8804 26.39V67.62Z" fill="#276AC4"/>
<path d="M50.0004 24.08L32.6704 34.09V59.91L50.0004 69.92L67.3304 59.91V34.09L50.0004 24.08ZM60.0104 54.45L50.0004 60.23L39.9904 54.45V39.54L50.0004 33.76L60.0104 39.54V54.45Z" fill="#276AC4"/>
</svg>
