<svg width="268" height="210" viewBox="0 0 268 210" fill="none" xmlns="http://www.w3.org/2000/svg">
<path d="M240.85 190.4H23.6798C21.2498 190.4 19.2598 188.42 19.2598 185.98V23.82C19.2598 21.39 21.2398 19.4 23.6798 19.4H240.85C243.28 19.4 245.27 21.38 245.27 23.82V185.98C245.27 188.41 243.29 190.4 240.85 190.4ZM23.6798 20.4C21.7998 20.4 20.2598 21.93 20.2598 23.82V185.98C20.2598 187.86 21.7898 189.4 23.6798 189.4H240.85C242.73 189.4 244.27 187.87 244.27 185.98V23.82C244.27 21.94 242.74 20.4 240.85 20.4H23.6798Z" fill="#5672F0"/>
<path d="M75.05 99.78C79.84 99.78 84.43 98.12 88.13 95.12C83.87 90.86 81.45 85.05 81.45 79C81.45 72.95 83.87 67.14 88.13 62.89C84.43 59.89 79.84 58.23 75.05 58.23C63.59 58.23 54.27 67.55 54.27 79.01C54.27 90.47 63.59 99.79 75.05 99.79V99.78Z" fill="#276AC4"/>
<path d="M73.8599 149.79V117.58C73.8599 113.76 75.7799 110.39 78.6999 108.36H55.9099C50.8299 108.36 46.6899 112.49 46.6899 117.58V149.79C46.6899 152.45 48.8499 154.61 51.5099 154.61H75.8599C74.6199 153.37 73.8599 151.67 73.8599 149.79Z" fill="#276AC4"/>
<path d="M83.4399 79C83.4399 84.87 85.9399 90.5 90.2999 94.43C94.1199 97.88 99.0599 99.78 104.22 99.78C108.66 99.78 112.99 98.33 116.55 95.7C111.9 91.39 109.26 85.37 109.26 78.99C109.26 72.61 111.9 66.59 116.55 62.29C112.99 59.66 108.67 58.21 104.22 58.21C99.0699 58.21 94.1299 60.11 90.2999 63.56C85.9399 67.49 83.4399 73.11 83.4399 78.98V79Z" fill="#276AC4"/>
<path d="M101.68 149.79V117.58C101.68 113.76 103.6 110.39 106.52 108.36H85.0799C79.9999 108.36 75.8599 112.49 75.8599 117.58V149.79C75.8599 152.45 78.0199 154.61 80.6799 154.61H103.67C102.43 153.37 101.67 151.67 101.67 149.79H101.68Z" fill="#276AC4"/>
<path d="M118.76 63.01C113.99 66.97 111.25 72.8 111.25 79C111.25 85.2 113.99 91.03 118.76 94.99C122.48 98.08 127.19 99.78 132.03 99.78C137.38 99.78 142.38 97.77 146.24 94.13C142.52 89.96 140.46 84.64 140.46 79C140.46 73.36 142.52 68.05 146.24 63.88C142.38 60.24 137.38 58.23 132.03 58.23C127.19 58.23 122.48 59.93 118.76 63.02V63.01Z" fill="#276AC4"/>
<path d="M134.89 154.61C133.65 153.37 132.89 151.67 132.89 149.79V117.58C132.89 113.76 134.81 110.39 137.73 108.36H112.9C107.82 108.36 103.68 112.49 103.68 117.58V149.79C103.68 152.45 105.84 154.61 108.5 154.61H134.89Z" fill="#276AC4"/>
<path d="M148.35 64.51C144.55 68.4 142.46 73.55 142.46 79C142.46 84.45 144.55 89.61 148.35 93.5C152.3 97.55 157.58 99.79 163.24 99.79C168.03 99.79 172.63 98.13 176.32 95.12C172.19 90.99 169.63 85.29 169.63 79.01C169.63 72.73 172.19 67.02 176.32 62.9C172.62 59.89 168.03 58.23 163.24 58.23C157.58 58.23 152.3 60.46 148.35 64.52V64.51Z" fill="#276AC4"/>
<path d="M164.06 154.61C162.82 153.37 162.06 151.67 162.06 149.79V117.58C162.06 113.76 163.98 110.39 166.9 108.36H144.11C139.03 108.36 134.89 112.49 134.89 117.58V149.79C134.89 152.45 137.05 154.61 139.71 154.61H164.06Z" fill="#276AC4"/>
<path d="M171.63 79C171.63 90.46 180.95 99.78 192.41 99.78C203.87 99.78 213.19 90.46 213.19 79C213.19 67.54 203.87 58.22 192.41 58.22C180.95 58.22 171.63 67.54 171.63 79Z" fill="#276AC4"/>
<path d="M211.55 108.37H173.27C168.19 108.37 164.05 112.5 164.05 117.59V149.8C164.05 152.46 166.21 154.62 168.87 154.62H220.76V117.59C220.76 112.51 216.63 108.37 211.54 108.37H211.55Z" fill="#276AC4"/>
<path d="M8.27002 75.84H5.27002V19.9C5.27002 11.35 12.22 4.40002 20.77 4.40002H256.79V7.40002H20.77C13.88 7.40002 8.27002 13.01 8.27002 19.9V75.84Z" fill="#5672F0"/>
<path d="M249.86 0L255.76 5.9L249.86 11.8H254.87L260.77 5.9L254.87 0H249.86Z" fill="#5672F0"/>
<path d="M6.77 82.27C10.509 82.27 13.54 79.2389 13.54 75.5C13.54 71.761 10.509 68.73 6.77 68.73C3.03103 68.73 0 71.761 0 75.5C0 79.2389 3.03103 82.27 6.77 82.27Z" fill="#5672F0"/>
<path d="M246.77 204.77H10.75V201.77H246.77C253.66 201.77 259.27 196.16 259.27 189.27V133.33H262.27V189.27C262.27 197.82 255.32 204.77 246.77 204.77Z" fill="#5672F0"/>
<path d="M17.68 209.17L11.77 203.27L17.68 197.37H12.67L6.77002 203.27L12.67 209.17H17.68Z" fill="#5672F0"/>
<path d="M260.77 140.44C264.509 140.44 267.54 137.409 267.54 133.67C267.54 129.931 264.509 126.9 260.77 126.9C257.031 126.9 254 129.931 254 133.67C254 137.409 257.031 140.44 260.77 140.44Z" fill="#5672F0"/>
<path d="M7.27002 185.9H6.27002V184.36H7.27002V185.9ZM7.27002 182.38H6.27002V180.41H7.27002V182.38ZM7.27002 178.43H6.27002V176.46H7.27002V178.43ZM7.27002 174.48H6.27002V172.51H7.27002V174.48ZM7.27002 170.53H6.27002V168.56H7.27002V170.53ZM7.27002 166.58H6.27002V164.61H7.27002V166.58ZM7.27002 162.63H6.27002V160.66H7.27002V162.63ZM7.27002 158.68H6.27002V156.71H7.27002V158.68ZM7.27002 154.73H6.27002V152.76H7.27002V154.73ZM7.27002 150.78H6.27002V148.81H7.27002V150.78ZM7.27002 146.83H6.27002V144.86H7.27002V146.83ZM7.27002 142.88H6.27002V140.91H7.27002V142.88ZM7.27002 138.93H6.27002V136.96H7.27002V138.93ZM7.27002 134.98H6.27002V133.01H7.27002V134.98ZM7.27002 131.03H6.27002V129.06H7.27002V131.03ZM7.27002 127.08H6.27002V125.11H7.27002V127.08ZM7.27002 123.13H6.27002V121.16H7.27002V123.13ZM7.27002 119.18H6.27002V117.21H7.27002V119.18ZM7.27002 115.23H6.27002V113.26H7.27002V115.23ZM7.27002 111.28H6.27002V109.31H7.27002V111.28ZM7.27002 107.33H6.27002V105.36H7.27002V107.33Z" fill="#5672F0"/>
<path d="M45.2698 105.9H43.2998V104.9H45.2698V105.9ZM41.3198 105.9H39.3498V104.9H41.3198V105.9ZM37.3698 105.9H35.3998V104.9H37.3698V105.9ZM33.4198 105.9H31.4498V104.9H33.4198V105.9ZM29.4698 105.9H27.4998V104.9H29.4698V105.9ZM25.5198 105.9H23.5498V104.9H25.5198V105.9ZM21.5698 105.9H19.7598V104.9H21.5698V105.9Z" fill="#5672F0"/>
<path d="M244.27 105.9H242.3V104.9H244.27V105.9ZM240.32 105.9H238.35V104.9H240.32V105.9ZM236.37 105.9H234.4V104.9H236.37V105.9ZM232.42 105.9H230.45V104.9H232.42V105.9ZM228.47 105.9H226.5V104.9H228.47V105.9ZM224.52 105.9H222.55V104.9H224.52V105.9ZM220.57 105.9H218.76V104.9H220.57V105.9Z" fill="#5672F0"/>
<path d="M132.52 44.65H131.52V42.68H132.52V44.65ZM132.52 40.7H131.52V38.73H132.52V40.7ZM132.52 36.75H131.52V34.78H132.52V36.75ZM132.52 32.8H131.52V30.83H132.52V32.8ZM132.52 28.85H131.52V26.88H132.52V28.85ZM132.52 24.9H131.52V22.93H132.52V24.9ZM132.52 20.95H131.52V19.14H132.52V20.95Z" fill="#5672F0"/>
<path d="M132.52 189.65H131.52V187.68H132.52V189.65ZM132.52 185.7H131.52V183.73H132.52V185.7ZM132.52 181.75H131.52V179.78H132.52V181.75ZM132.52 177.8H131.52V175.83H132.52V177.8ZM132.52 173.85H131.52V171.88H132.52V173.85ZM132.52 169.9H131.52V167.93H132.52V169.9ZM132.52 165.95H131.52V164.14H132.52V165.95Z" fill="#5672F0"/>
<path d="M261.77 104.78H260.77V102.81H261.77V104.78ZM261.77 100.83H260.77V98.86H261.77V100.83ZM261.77 96.88H260.77V94.91H261.77V96.88ZM261.77 92.93H260.77V90.96H261.77V92.93ZM261.77 88.98H260.77V87.01H261.77V88.98ZM261.77 85.03H260.77V83.06H261.77V85.03ZM261.77 81.08H260.77V79.11H261.77V81.08ZM261.77 77.13H260.77V75.16H261.77V77.13ZM261.77 73.18H260.77V71.21H261.77V73.18ZM261.77 69.23H260.77V67.26H261.77V69.23ZM261.77 65.28H260.77V63.31H261.77V65.28ZM261.77 61.33H260.77V59.36H261.77V61.33ZM261.77 57.38H260.77V55.41H261.77V57.38ZM261.77 53.43H260.77V51.46H261.77V53.43ZM261.77 49.48H260.77V47.51H261.77V49.48ZM261.77 45.53H260.77V43.56H261.77V45.53ZM261.77 41.58H260.77V39.61H261.77V41.58ZM261.77 37.63H260.77V35.66H261.77V37.63ZM261.77 33.68H260.77V31.71H261.77V33.68ZM261.77 29.73H260.77V27.76H261.77V29.73ZM261.77 25.78H260.77V23.81H261.77V25.78ZM261.77 21.83H260.77V19.86H261.77V21.83Z" fill="#5672F0"/>
</svg>
