<svg width="128" height="104" viewBox="0 0 128 104" fill="none" xmlns="http://www.w3.org/2000/svg">
<path d="M88.615 91.5V78.89C88.615 77.22 87.725 75.67 86.275 74.83L75.355 68.52C73.905 67.68 72.125 67.68 70.675 68.52L59.755 74.83C58.305 75.67 57.415 77.21 57.415 78.89V91.5C57.415 93.17 58.305 94.72 59.755 95.56L70.675 101.87C72.125 102.71 73.905 102.71 75.355 101.87L86.275 95.56C87.725 94.72 88.615 93.18 88.615 91.5Z" stroke="#316FDE" stroke-width="2" stroke-miterlimit="10"/>
<path d="M82.205 87.87V82.52C82.205 80.85 81.315 79.3 79.865 78.46L75.235 75.79C73.785 74.95 72.005 74.95 70.555 75.79L65.925 78.46C64.475 79.3 63.585 80.84 63.585 82.52V87.87C63.585 89.54 64.475 91.09 65.925 91.93L70.555 94.6C72.005 95.44 73.785 95.44 75.235 94.6L79.865 91.93C81.315 91.09 82.205 89.55 82.205 87.87Z" fill="#316FDE"/>
<path d="M33.1849 55.84V43.23C33.1849 41.56 32.2949 40.01 30.8449 39.17L19.9249 32.86C18.4749 32.02 16.6949 32.02 15.2449 32.86L4.32486 39.17C2.87486 40.01 1.98486 41.55 1.98486 43.23V55.84C1.98486 57.51 2.87486 59.06 4.32486 59.9L15.2449 66.21C16.6949 67.05 18.4749 67.05 19.9249 66.21L30.8449 59.9C32.2949 59.06 33.1849 57.52 33.1849 55.84V55.84Z" stroke="#316FDE" stroke-width="2" stroke-miterlimit="10"/>
<path d="M27.1547 52.43V47.08C27.1547 45.41 26.2647 43.86 24.8147 43.02L20.1847 40.35C18.7347 39.51 16.9547 39.51 15.5047 40.35L10.8747 43.02C9.42467 43.86 8.53467 45.4 8.53467 47.08V52.43C8.53467 54.1 9.42467 55.65 10.8747 56.49L15.5047 59.16C16.9547 60 18.7347 60 20.1847 59.16L24.8147 56.49C26.2647 55.65 27.1547 54.11 27.1547 52.43Z" fill="#316FDE"/>
<path d="M70.5247 57.96V45.35C70.5247 43.68 69.6347 42.13 68.1847 41.29L57.2647 34.98C55.8147 34.14 54.0347 34.14 52.5847 34.98L41.6647 41.29C40.2147 42.13 39.3247 43.67 39.3247 45.35V57.96C39.3247 59.63 40.2147 61.18 41.6647 62.02L52.5847 68.33C54.0347 69.17 55.8147 69.17 57.2647 68.33L68.1847 62.02C69.6347 61.18 70.5247 59.64 70.5247 57.96V57.96Z" stroke="#316FDE" stroke-width="2" stroke-miterlimit="10"/>
<path d="M64.3446 54.24V48.89C64.3446 47.22 63.4546 45.67 62.0046 44.83L57.3746 42.16C55.9246 41.32 54.1446 41.32 52.6946 42.16L48.0646 44.83C46.6146 45.67 45.7246 47.21 45.7246 48.89V54.24C45.7246 55.91 46.6146 57.46 48.0646 58.3L52.6946 60.97C54.1446 61.81 55.9246 61.81 57.3746 60.97L62.0046 58.3C63.4546 57.46 64.3446 55.92 64.3446 54.24Z" fill="#316FDE"/>
<path d="M107.855 60.02V47.41C107.855 45.74 106.965 44.19 105.515 43.35L94.5948 37.04C93.1448 36.2 91.3648 36.2 89.9148 37.04L78.9948 43.35C77.5448 44.19 76.6548 45.73 76.6548 47.41V60.02C76.6548 61.69 77.5448 63.24 78.9948 64.08L89.9148 70.39C91.3648 71.23 93.1448 71.23 94.5948 70.39L105.515 64.08C106.965 63.24 107.855 61.7 107.855 60.02V60.02Z" stroke="#316FDE" stroke-width="2" stroke-miterlimit="10"/>
<path d="M101.775 56.14V50.79C101.775 49.12 100.885 47.57 99.4348 46.73L94.8048 44.06C93.3548 43.22 91.5748 43.22 90.1248 44.06L85.4948 46.73C84.0448 47.57 83.1548 49.11 83.1548 50.79V56.14C83.1548 57.81 84.0448 59.36 85.4948 60.2L90.1248 62.87C91.5748 63.71 93.3548 63.71 94.8048 62.87L99.4348 60.2C100.885 59.36 101.775 57.82 101.775 56.14Z" fill="#316FDE"/>
<path d="M126.025 91.81V79.2C126.025 77.53 125.135 75.98 123.685 75.14L112.765 68.83C111.315 67.99 109.535 67.99 108.085 68.83L97.1647 75.14C95.7147 75.98 94.8247 77.52 94.8247 79.2V91.81C94.8247 93.48 95.7147 95.03 97.1647 95.87L108.085 102.18C109.535 103.02 111.315 103.02 112.765 102.18L123.685 95.87C125.135 95.03 126.025 93.49 126.025 91.81Z" stroke="#316FDE" stroke-width="2" stroke-miterlimit="10"/>
<path d="M119.935 87.93V82.58C119.935 80.91 119.045 79.36 117.595 78.52L112.965 75.85C111.515 75.01 109.735 75.01 108.285 75.85L103.655 78.52C102.205 79.36 101.315 80.9 101.315 82.58V87.93C101.315 89.6 102.205 91.15 103.655 91.99L108.285 94.66C109.735 95.5 111.515 95.5 112.965 94.66L117.595 91.99C119.045 91.15 119.935 89.61 119.935 87.93Z" fill="#316FDE"/>
<path d="M52.4549 24.6V11.99C52.4549 10.32 51.5649 8.77 50.1149 7.93L39.1949 1.63C37.7449 0.79 35.9649 0.79 34.5149 1.63L23.5949 7.94C22.1449 8.78 21.2549 10.32 21.2549 12V24.61C21.2549 26.28 22.1449 27.83 23.5949 28.67L34.5149 34.98C35.9649 35.82 37.7449 35.82 39.1949 34.98L50.1149 28.67C51.5649 27.83 52.4549 26.29 52.4549 24.61V24.6Z" stroke="#316FDE" stroke-width="2" stroke-miterlimit="10"/>
<path d="M46.3749 20.72V15.37C46.3749 13.7 45.4849 12.15 44.0349 11.31L39.4049 8.63999C37.9549 7.79999 36.1749 7.79999 34.7249 8.63999L30.0949 11.31C28.6449 12.15 27.7549 13.69 27.7549 15.37V20.72C27.7549 22.39 28.6449 23.94 30.0949 24.78L34.7249 27.45C36.1749 28.29 37.9549 28.29 39.4049 27.45L44.0349 24.78C45.4849 23.94 46.3749 22.4 46.3749 20.72Z" fill="#316FDE"/>
</svg>
