<svg width="140" height="155" viewBox="0 0 140 155" fill="none" xmlns="http://www.w3.org/2000/svg">
<path d="M31.3469 66.7328H113.235C122.125 66.7328 129.394 74.0308 129.394 82.9569V112.168H130.337C135.522 112.168 139.764 116.427 139.764 121.634C139.764 124.237 138.709 126.603 136.993 128.316C135.286 130.039 132.929 131.099 130.337 131.099H118.081C112.896 131.099 108.653 126.84 108.653 121.634V93.2366C108.653 103.952 104.326 113.654 97.3308 120.678C90.3355 127.701 80.6722 132.046 70.0001 132.046C48.656 132.046 31.3469 114.667 31.3469 93.2366V121.634C31.3469 126.84 27.1045 131.099 21.9193 131.099H9.66345C7.07086 131.099 4.71395 130.039 3.00756 128.316C1.29173 126.603 0.23584 124.237 0.23584 121.634C0.23584 116.427 4.47826 112.168 9.66345 112.168H10.6062V82.9569C10.6062 74.0308 17.8749 66.7328 26.7651 66.7328H31.3469Z" fill="url(#paint0_linear_645_6037)" stroke="#5672F0" stroke-width="0.5" stroke-miterlimit="10"/>
<path d="M70.0001 57.8162C85.7712 57.8162 98.5563 44.9795 98.5563 29.1447C98.5563 13.3099 85.7712 0.473267 70.0001 0.473267C54.2289 0.473267 41.4438 13.3099 41.4438 29.1447C41.4438 44.9795 54.2289 57.8162 70.0001 57.8162Z" stroke="#316FDE" stroke-miterlimit="10"/>
<path d="M70.0001 53.0833C83.1679 53.0833 93.8426 42.3656 93.8426 29.1447C93.8426 15.9237 83.1679 5.20605 70.0001 5.20605C56.8323 5.20605 46.1577 15.9237 46.1577 29.1447C46.1577 42.3656 56.8323 53.0833 70.0001 53.0833Z" fill="url(#paint1_linear_645_6037)" stroke="#5672F0" stroke-width="0.5" stroke-miterlimit="10"/>
<path d="M70 45.5108C79.0025 45.5108 86.3004 38.1834 86.3004 29.1447C86.3004 20.1059 79.0025 12.7786 70 12.7786C60.9976 12.7786 53.6997 20.1059 53.6997 29.1447C53.6997 38.1834 60.9976 45.5108 70 45.5108Z" fill="url(#paint2_linear_645_6037)" stroke="#5672F0" stroke-width="0.5" stroke-miterlimit="10"/>
<path d="M70.0003 38.8848C75.358 38.8848 79.7013 34.524 79.7013 29.1447C79.7013 23.7654 75.358 19.4045 70.0003 19.4045C64.6426 19.4045 60.2993 23.7654 60.2993 29.1447C60.2993 34.524 64.6426 38.8848 70.0003 38.8848Z" fill="url(#paint3_linear_645_6037)" stroke="#5672F0" stroke-width="0.5" stroke-miterlimit="10"/>
<path d="M88.384 154.763C94.1114 154.763 98.7544 150.102 98.7544 144.351C98.7544 138.601 94.1114 133.939 88.384 133.939H11.549C5.82161 133.939 1.17863 138.601 1.17863 144.351C1.17863 150.102 5.82161 154.763 11.549 154.763H88.384Z" fill="url(#paint4_linear_645_6037)" stroke="#5672F0" stroke-width="0.5" stroke-miterlimit="10"/>
<path d="M128.451 154.763C134.179 154.763 138.822 150.102 138.822 144.351C138.822 138.601 134.179 133.939 128.451 133.939H51.6164C45.889 133.939 41.246 138.601 41.246 144.351C41.246 150.102 45.889 154.763 51.6164 154.763H128.451Z" fill="url(#paint5_linear_645_6037)" stroke="#5672F0" stroke-width="0.5" stroke-miterlimit="10"/>
<defs>
<linearGradient id="paint0_linear_645_6037" x1="0.23584" y1="99.3893" x2="139.764" y2="99.3893" gradientUnits="userSpaceOnUse">
<stop stop-color="#020412"/>
<stop offset="1" stop-color="#3C51AF"/>
</linearGradient>
<linearGradient id="paint1_linear_645_6037" x1="46.1577" y1="29.1447" x2="93.8426" y2="29.1447" gradientUnits="userSpaceOnUse">
<stop stop-color="#020412"/>
<stop offset="1" stop-color="#3C51AF"/>
</linearGradient>
<linearGradient id="paint2_linear_645_6037" x1="53.6997" y1="29.1447" x2="86.3004" y2="29.1447" gradientUnits="userSpaceOnUse">
<stop stop-color="#020412"/>
<stop offset="1" stop-color="#3C51AF"/>
</linearGradient>
<linearGradient id="paint3_linear_645_6037" x1="60.2993" y1="29.1447" x2="79.7013" y2="29.1447" gradientUnits="userSpaceOnUse">
<stop stop-color="#020412"/>
<stop offset="1" stop-color="#3C51AF"/>
</linearGradient>
<linearGradient id="paint4_linear_645_6037" x1="1.17863" y1="144.351" x2="98.7544" y2="144.351" gradientUnits="userSpaceOnUse">
<stop stop-color="#020412"/>
<stop offset="1" stop-color="#3C51AF"/>
</linearGradient>
<linearGradient id="paint5_linear_645_6037" x1="41.246" y1="144.351" x2="138.822" y2="144.351" gradientUnits="userSpaceOnUse">
<stop stop-color="#020412"/>
<stop offset="1" stop-color="#3C51AF"/>
</linearGradient>
</defs>
</svg>
