<svg width="129" height="160" viewBox="0 0 129 160" fill="none" xmlns="http://www.w3.org/2000/svg">
<path d="M128.509 63.8165V87.9232C128.509 93.9452 123.558 98.8621 117.493 98.8621C114.711 98.8621 112.155 97.8225 110.212 96.1087V70.3817C110.098 70.3817 109.976 70.3817 109.853 70.3817C108.702 70.3817 107.561 70.2131 106.477 69.8572V63.8165C106.477 60.5666 107.92 57.6352 110.212 55.631C112.164 53.9171 114.711 52.8776 117.493 52.8776C117.899 52.8776 118.295 52.9057 118.681 52.9431C124.19 53.5331 128.509 58.1972 128.509 63.8165Z" fill="url(#paint0_linear_645_6048)" stroke="#5672F0" stroke-width="1.06" stroke-miterlimit="10"/>
<path d="M17.7225 35.7294V52.9525H9.05463C4.28209 52.9525 0.386719 49.0846 0.386719 44.3456C0.386719 39.6067 4.28209 35.7387 9.05463 35.7387H17.7225V35.7294Z" fill="url(#paint1_linear_645_6048)" stroke="#5672F0" stroke-width="0.81" stroke-miterlimit="10"/>
<path d="M17.7225 52.9431V70.1662H9.05463C4.28209 70.1662 0.386719 66.2983 0.386719 61.5594C0.386719 56.8204 4.28209 52.9525 9.05463 52.9525H17.7225V52.9431Z" fill="url(#paint2_linear_645_6048)" stroke="#5672F0" stroke-width="0.81" stroke-miterlimit="10"/>
<path d="M17.7225 70.1663V87.3894H9.05463C4.28209 87.3894 0.386719 83.5215 0.386719 78.7825C0.386719 74.0436 4.28209 70.1756 9.05463 70.1756H17.7225V70.1663Z" fill="url(#paint3_linear_645_6048)" stroke="#5672F0" stroke-width="0.81" stroke-miterlimit="10"/>
<path d="M17.7225 87.38V104.603H9.05463C4.28209 104.603 0.386719 100.735 0.386719 95.9963C0.386719 91.2573 4.28209 87.3894 9.05463 87.3894H17.7225V87.38Z" fill="url(#paint4_linear_645_6048)" stroke="#5672F0" stroke-width="0.81" stroke-miterlimit="10"/>
<path d="M17.7227 35.7293V8.76608C17.7227 4.19573 21.4765 0.468262 26.0793 0.468262H101.855C106.458 0.468262 110.212 4.19573 110.212 8.76608V151.234C110.212 155.804 106.458 159.532 101.855 159.532H26.0793C21.4765 159.532 17.7227 155.804 17.7227 151.234V104.594" stroke="#316FDE" stroke-miterlimit="10"/>
<path d="M64.1272 75.9541C71.097 75.9541 76.7471 70.3438 76.7471 63.4231C76.7471 56.5024 71.097 50.8921 64.1272 50.8921C57.1574 50.8921 51.5073 56.5024 51.5073 63.4231C51.5073 70.3438 57.1574 75.9541 64.1272 75.9541Z" fill="url(#paint5_linear_645_6048)" stroke="#5672F0" stroke-width="0.53" stroke-miterlimit="10"/>
<path d="M81.1328 107.497H57.355C51.7053 107.497 47.1214 102.945 47.1214 97.3355V89.8993C47.1214 84.2894 51.7053 79.7378 57.355 79.7378H75.3039C78.5202 79.7378 81.1328 82.332 81.1328 85.5256V107.488V107.497Z" fill="url(#paint6_linear_645_6048)" stroke="#5672F0" stroke-width="0.53" stroke-miterlimit="10"/>
<path d="M63.9669 120.178C80.511 120.178 93.9226 118.211 93.9226 115.786C93.9226 113.36 80.511 111.393 63.9669 111.393C47.4228 111.393 34.0112 113.36 34.0112 115.786C34.0112 118.211 47.4228 120.178 63.9669 120.178Z" fill="url(#paint7_linear_645_6048)" stroke="#5672F0" stroke-width="0.53" stroke-miterlimit="10"/>
<path d="M116.635 68.0589C114.729 69.5387 112.475 70.3067 110.211 70.3722C110.098 70.3722 109.976 70.3722 109.853 70.3722C108.702 70.3722 107.561 70.2036 106.476 69.8478C104.439 69.2109 102.572 67.9747 101.166 66.1952L85.0283 45.7503C81.2838 41.0208 82.1421 34.109 86.9052 30.4003C91.6683 26.6822 98.6291 27.5251 102.364 32.2547L110.211 42.1821L118.512 52.6902C118.568 52.7651 118.625 52.8494 118.681 52.9243C122.218 57.6445 121.322 64.397 116.635 68.0402V68.0589Z" fill="url(#paint8_linear_645_6048)" stroke="#5672F0" stroke-width="1.08" stroke-miterlimit="10"/>
<path d="M56.535 15.0222H35.0492C33.9188 15.0222 33.0024 15.9321 33.0024 17.0545C33.0024 18.1769 33.9188 19.0868 35.0492 19.0868H56.535C57.6654 19.0868 58.5817 18.1769 58.5817 17.0545C58.5817 15.9321 57.6654 15.0222 56.535 15.0222Z" fill="url(#paint9_linear_645_6048)" stroke="#5672F0" stroke-width="0.8" stroke-miterlimit="10"/>
<path d="M56.535 30.2599H35.0492C33.9188 30.2599 33.0024 31.1698 33.0024 32.2922C33.0024 33.4146 33.9188 34.3245 35.0492 34.3245H56.535C57.6654 34.3245 58.5817 33.4146 58.5817 32.2922C58.5817 31.1698 57.6654 30.2599 56.535 30.2599Z" fill="url(#paint10_linear_645_6048)" stroke="#5672F0" stroke-width="0.8" stroke-miterlimit="10"/>
<path d="M46.3014 22.6364H35.0492C33.9188 22.6364 33.0024 23.5462 33.0024 24.6687C33.0024 25.7911 33.9188 26.701 35.0492 26.701H46.3014C47.4318 26.701 48.3481 25.7911 48.3481 24.6687C48.3481 23.5462 47.4318 22.6364 46.3014 22.6364Z" fill="url(#paint11_linear_645_6048)" stroke="#5672F0" stroke-width="0.8" stroke-miterlimit="10"/>
<path d="M66.0325 40.871L60.1752 46.2187L54.8179 40.871H31.2854C27.8993 40.871 25.1641 38.1457 25.1641 34.7928V13.8516C25.1641 10.4332 27.9465 7.66101 31.3985 7.66101H59.8074C63.25 7.66101 66.0419 10.4238 66.0419 13.8516V40.871H66.0325Z" stroke="#316FDE" stroke-miterlimit="10"/>
<defs>
<linearGradient id="paint0_linear_645_6048" x1="106.477" y1="75.8698" x2="128.509" y2="75.8698" gradientUnits="userSpaceOnUse">
<stop stop-color="#020412"/>
<stop offset="1" stop-color="#3C51AF"/>
</linearGradient>
<linearGradient id="paint1_linear_645_6048" x1="0.386719" y1="44.3363" x2="17.7225" y2="44.3363" gradientUnits="userSpaceOnUse">
<stop stop-color="#020412"/>
<stop offset="1" stop-color="#3C51AF"/>
</linearGradient>
<linearGradient id="paint2_linear_645_6048" x1="0.386719" y1="61.55" x2="17.7225" y2="61.55" gradientUnits="userSpaceOnUse">
<stop stop-color="#020412"/>
<stop offset="1" stop-color="#3C51AF"/>
</linearGradient>
<linearGradient id="paint3_linear_645_6048" x1="0.386719" y1="78.7731" x2="17.7225" y2="78.7731" gradientUnits="userSpaceOnUse">
<stop stop-color="#020412"/>
<stop offset="1" stop-color="#3C51AF"/>
</linearGradient>
<linearGradient id="paint4_linear_645_6048" x1="0.386719" y1="95.9869" x2="17.7225" y2="95.9869" gradientUnits="userSpaceOnUse">
<stop stop-color="#020412"/>
<stop offset="1" stop-color="#3C51AF"/>
</linearGradient>
<linearGradient id="paint5_linear_645_6048" x1="51.5073" y1="63.4231" x2="76.7471" y2="63.4231" gradientUnits="userSpaceOnUse">
<stop stop-color="#020412"/>
<stop offset="1" stop-color="#3C51AF"/>
</linearGradient>
<linearGradient id="paint6_linear_645_6048" x1="47.1214" y1="93.6174" x2="81.1328" y2="93.6174" gradientUnits="userSpaceOnUse">
<stop stop-color="#020412"/>
<stop offset="1" stop-color="#3C51AF"/>
</linearGradient>
<linearGradient id="paint7_linear_645_6048" x1="34.0112" y1="115.786" x2="93.9132" y2="115.786" gradientUnits="userSpaceOnUse">
<stop stop-color="#020412"/>
<stop offset="1" stop-color="#3C51AF"/>
</linearGradient>
<linearGradient id="paint8_linear_645_6048" x1="82.6986" y1="49.2437" x2="120.841" y2="49.2437" gradientUnits="userSpaceOnUse">
<stop stop-color="#020412"/>
<stop offset="1" stop-color="#3C51AF"/>
</linearGradient>
<linearGradient id="paint9_linear_645_6048" x1="33.0024" y1="17.0545" x2="58.5723" y2="17.0545" gradientUnits="userSpaceOnUse">
<stop stop-color="#020412"/>
<stop offset="1" stop-color="#3C51AF"/>
</linearGradient>
<linearGradient id="paint10_linear_645_6048" x1="33.0024" y1="32.2922" x2="58.5723" y2="32.2922" gradientUnits="userSpaceOnUse">
<stop stop-color="#020412"/>
<stop offset="1" stop-color="#3C51AF"/>
</linearGradient>
<linearGradient id="paint11_linear_645_6048" x1="33.0024" y1="24.6687" x2="48.3481" y2="24.6687" gradientUnits="userSpaceOnUse">
<stop stop-color="#020412"/>
<stop offset="1" stop-color="#3C51AF"/>
</linearGradient>
</defs>
</svg>
