<svg width="32" height="32" viewBox="0 0 32 32" fill="none" xmlns="http://www.w3.org/2000/svg">
<path d="M26.5321 8.53333C24.6055 6.93333 22.2936 6.13333 19.8532 6L19.4679 6.4C21.6514 6.93333 23.578 8 25.3761 9.46667C23.1927 8.26667 20.7523 7.46667 18.1835 7.2C17.4128 7.06667 16.7706 7.06667 16 7.06667C15.2294 7.06667 14.5872 7.06667 13.8165 7.2C11.2477 7.46667 8.80734 8.26667 6.62385 9.46667C8.42202 8 10.3486 6.93333 12.5321 6.4L12.1468 6C9.70642 6.13333 7.3945 6.93333 5.46789 8.53333C3.2844 12.8 2.12844 17.6 2 22.5333C3.92661 24.6667 6.62385 26 9.44954 26C9.44954 26 10.3486 24.9333 10.9908 24C9.3211 23.6 7.77982 22.6667 6.75229 21.2C7.65138 21.7333 8.55046 22.2667 9.44954 22.6667C10.6055 23.2 11.7615 23.4667 12.9174 23.7333C13.945 23.8667 14.9725 24 16 24C17.0275 24 18.055 23.8667 19.0826 23.7333C20.2385 23.4667 21.3945 23.2 22.5505 22.6667C23.4495 22.2667 24.3486 21.7333 25.2477 21.2C24.2202 22.6667 22.6789 23.6 21.0092 24C21.6514 24.9333 22.5505 26 22.5505 26C25.3761 26 28.0734 24.6667 30 22.5333C29.8716 17.6 28.7156 12.8 26.5321 8.53333ZM11.7615 20.1333C10.4771 20.1333 9.3211 18.9333 9.3211 17.4667C9.3211 16 10.4771 14.8 11.7615 14.8C13.0459 14.8 14.2018 16 14.2018 17.4667C14.2018 18.9333 13.0459 20.1333 11.7615 20.1333ZM20.2385 20.1333C18.9541 20.1333 17.7982 18.9333 17.7982 17.4667C17.7982 16 18.9541 14.8 20.2385 14.8C21.5229 14.8 22.6789 16 22.6789 17.4667C22.6789 18.9333 21.5229 20.1333 20.2385 20.1333Z" fill="url(#paint0_linear_409_4489)"/>
<defs>
<linearGradient id="paint0_linear_409_4489" x1="25.7947" y1="21.4545" x2="6.38256" y2="22.2718" gradientUnits="userSpaceOnUse">
<stop stop-color="#2E90FA"/>
<stop offset="1" stop-color="#3271DD"/>
</linearGradient>
</defs>
</svg>
