<svg width="28" height="28" viewBox="0 0 28 28" fill="none" xmlns="http://www.w3.org/2000/svg">
<path fill-rule="evenodd" clip-rule="evenodd" d="M0 14C0 6.27812 6.27812 0 14 0C21.7219 0 28 6.27812 28 14C28 21.7219 21.7219 28 14 28C6.27812 28 0 21.7219 0 14ZM18 7.15626C18 7.07226 18.0066 6.98984 18.0193 6.90951L15.3638 6.24143L14.2647 10.7423C16.3399 10.7897 18.2153 11.3935 19.5997 12.3485C19.9605 11.9863 20.4548 11.7629 21 11.7629C22.1046 11.7629 23 12.6796 23 13.8103C23 14.5973 22.5663 15.2805 21.9303 15.6232C21.9763 15.8674 22 16.1166 22 16.3696C22 19.4792 18.4183 22 14 22C9.58172 22 6 19.4792 6 16.3696C6 16.1166 6.02372 15.8674 6.06967 15.6232C5.43366 15.2805 5 14.5973 5 13.8103C5 12.6796 5.89543 11.7629 7 11.7629C7.54524 11.7629 8.03952 11.9863 8.4003 12.3485C9.67098 11.4719 11.3554 10.8913 13.2283 10.7651L14.6362 5L18.5315 5.98359C18.7929 5.7572 19.1309 5.6207 19.5 5.6207C20.3284 5.6207 21 6.30819 21 7.15626C21 8.00432 20.3284 8.69182 19.5 8.69182C18.6716 8.69182 18 8.00432 18 7.15626ZM12 15.3459C12 16.194 11.3284 16.8815 10.5 16.8815C9.67157 16.8815 9 16.194 9 15.3459C9 14.4978 9.67157 13.8103 10.5 13.8103C11.3284 13.8103 12 14.4978 12 15.3459ZM19 15.3459C19 16.194 18.3284 16.8815 17.5 16.8815C16.6716 16.8815 16 16.194 16 15.3459C16 14.4978 16.6716 13.8103 17.5 13.8103C18.3284 13.8103 19 14.4978 19 15.3459ZM10.084 18.6449C10.2372 18.4097 10.5476 18.3462 10.7773 18.503C11.1518 18.7585 11.5646 18.9621 12 19.1137C12.6345 19.3345 13.3173 19.4449 14 19.4449C15.1513 19.4449 16.3025 19.1309 17.2226 18.503C17.4524 18.3462 17.7628 18.4097 17.916 18.6449C18.0692 18.8802 18.0071 19.198 17.7773 19.3548C16.6893 20.0973 15.3446 20.4686 14 20.4686C12.6554 20.4686 11.3107 20.0973 10.2226 19.3548C9.99289 19.198 9.9308 18.8802 10.084 18.6449Z" fill="url(#paint0_linear_409_4486)"/>
<defs>
<linearGradient id="paint0_linear_409_4486" x1="23.7947" y1="21.6364" x2="4.36572" y2="22.2206" gradientUnits="userSpaceOnUse">
<stop stop-color="#2E90FA"/>
<stop offset="1" stop-color="#3271DD"/>
</linearGradient>
</defs>
</svg>
