<svg width="260" height="219" viewBox="0 0 260 219" fill="none" xmlns="http://www.w3.org/2000/svg">
<path d="M143.674 133.846L141.874 132.986L142.384 131.926L144.184 132.786L143.674 133.846ZM145.034 131.006L143.234 130.146L144.084 128.366L145.884 129.226L145.034 131.006ZM146.734 127.446L144.934 126.586L145.784 124.806L147.584 125.666L146.734 127.446ZM148.434 123.886L146.634 123.026L147.484 121.246L149.284 122.106L148.434 123.886ZM150.134 120.326L148.334 119.466L149.184 117.686L150.984 118.546L150.134 120.326ZM151.834 116.766L150.034 115.906L150.884 114.126L152.684 114.986L151.834 116.766ZM153.534 113.206L151.734 112.346L152.584 110.566L154.384 111.426L153.534 113.206ZM155.234 109.646L153.434 108.786L154.284 107.006L156.084 107.866L155.234 109.646ZM156.934 106.086L155.134 105.226L155.984 103.446L157.784 104.306L156.934 106.086ZM158.634 102.526L156.834 101.666L157.684 99.8863L159.484 100.746L158.634 102.526ZM160.334 98.9663L158.534 98.1063L159.384 96.3263L161.184 97.1863L160.334 98.9663ZM162.034 95.4063L160.234 94.5463L161.084 92.7663L162.884 93.6263L162.034 95.4063ZM163.734 91.8463L161.934 90.9863L162.784 89.2063L164.584 90.0663L163.734 91.8463Z" fill="#316FDE"/>
<path d="M139.834 153.026C133.704 153.026 128.714 148.036 128.714 141.906C128.714 135.776 133.704 130.776 139.834 130.776C145.964 130.776 150.954 135.766 150.954 141.906C150.954 148.046 145.964 153.026 139.834 153.026ZM139.834 132.776C134.804 132.776 130.714 136.866 130.714 141.906C130.714 146.946 134.804 151.026 139.834 151.026C144.864 151.026 148.954 146.936 148.954 141.906C148.954 136.876 144.864 132.776 139.834 132.776Z" fill="#316FDE"/>
<path d="M178.94 121.671L148.973 137.284L149.897 139.058L179.864 123.445L178.94 121.671Z" fill="#316FDE"/>
<path d="M124.9 108.163L123.109 109.053L139.381 141.803L141.172 140.913L124.9 108.163Z" fill="#316FDE"/>
<path d="M103.855 137.854L103.753 139.851L140.276 141.708L140.378 139.71L103.855 137.854Z" fill="#316FDE"/>
<path d="M133.405 148.986L113.657 173.706L115.219 174.955L134.968 150.234L133.405 148.986Z" fill="#316FDE"/>
<path d="M147.191 147.875L145.97 149.459L190.362 183.646L191.582 182.061L147.191 147.875Z" fill="#316FDE"/>
<path d="M131.674 136.106L130.794 135.416L132.024 133.846L132.904 134.536L131.674 136.106ZM129.244 134.196L127.694 132.976L128.924 131.406L130.474 132.626L129.244 134.196ZM126.134 131.756L124.584 130.536L125.814 128.966L127.364 130.186L126.134 131.756ZM123.024 129.316L121.474 128.096L122.704 126.526L124.254 127.746L123.024 129.316ZM119.914 126.876L118.364 125.656L119.594 124.086L121.144 125.306L119.914 126.876ZM116.804 124.436L115.254 123.216L116.484 121.646L118.034 122.866L116.804 124.436ZM113.694 121.996L112.144 120.776L113.374 119.206L114.924 120.426L113.694 121.996ZM110.584 119.556L109.034 118.336L110.264 116.766L111.814 117.986L110.584 119.556ZM107.474 117.116L105.924 115.896L107.154 114.326L108.704 115.546L107.474 117.116ZM104.364 114.676L102.814 113.456L104.044 111.886L105.594 113.106L104.364 114.676ZM101.254 112.236L99.7041 111.016L100.934 109.446L102.484 110.666L101.254 112.236Z" fill="#316FDE"/>
<path d="M167.854 91.7664C161.724 91.7664 156.734 86.7764 156.734 80.6464C156.734 74.5164 161.724 69.5264 167.854 69.5264C173.984 69.5264 178.974 74.5164 178.974 80.6464C178.974 86.7764 173.984 91.7664 167.854 91.7664ZM167.854 71.5164C162.824 71.5164 158.734 75.6064 158.734 80.6364C158.734 85.6664 162.824 89.7564 167.854 89.7564C172.884 89.7564 176.974 85.6664 176.974 80.6364C176.974 75.6064 172.884 71.5164 167.854 71.5164Z" fill="#316FDE"/>
<path d="M206.597 60.5155L176.576 76.3702L177.51 78.1387L207.531 62.284L206.597 60.5155Z" fill="#316FDE"/>
<path d="M152.557 46.9449L150.768 47.8385L162.818 71.9665L164.608 71.0728L152.557 46.9449Z" fill="#316FDE"/>
<path d="M131.567 76.6681L131.315 78.6521L157.861 82.0292L158.113 80.0452L131.567 76.6681Z" fill="#316FDE"/>
<path d="M175.743 86.922L174.542 88.5214L197.517 105.771L198.718 104.172L175.743 86.922Z" fill="#316FDE"/>
<path d="M180.495 37.1051L170.375 71.2469L172.293 71.8153L182.413 37.6735L180.495 37.1051Z" fill="#316FDE"/>
<path d="M139.834 146.006C142.104 146.006 143.944 144.166 143.944 141.896C143.944 139.626 142.104 137.786 139.834 137.786C137.564 137.786 135.724 139.626 135.724 141.896C135.724 144.166 137.564 146.006 139.834 146.006Z" fill="#316FDE"/>
<path d="M167.854 84.7464C170.124 84.7464 171.964 82.9063 171.964 80.6364C171.964 78.3665 170.124 76.5264 167.854 76.5264C165.584 76.5264 163.744 78.3665 163.744 80.6364C163.744 82.9063 165.584 84.7464 167.854 84.7464Z" fill="#316FDE"/>
<path d="M181.604 126.396C184.316 126.396 186.514 124.198 186.514 121.486C186.514 118.775 184.316 116.576 181.604 116.576C178.892 116.576 176.694 118.775 176.694 121.486C176.694 124.198 178.892 126.396 181.604 126.396Z" fill="#316FDE"/>
<path d="M123.094 109.906C125.364 109.906 127.204 108.066 127.204 105.796C127.204 103.527 125.364 101.686 123.094 101.686C120.824 101.686 118.984 103.527 118.984 105.796C118.984 108.066 120.824 109.906 123.094 109.906Z" fill="#316FDE"/>
<path d="M100.804 142.866C103.074 142.866 104.914 141.026 104.914 138.756C104.914 136.486 103.074 134.646 100.804 134.646C98.534 134.646 96.6938 136.486 96.6938 138.756C96.6938 141.026 98.534 142.866 100.804 142.866Z" fill="#316FDE"/>
<path d="M113.164 180.036C115.434 180.036 117.274 178.196 117.274 175.926C117.274 173.657 115.434 171.816 113.164 171.816C110.894 171.816 109.054 173.657 109.054 175.926C109.054 178.196 110.894 180.036 113.164 180.036Z" fill="#316FDE"/>
<path d="M191.974 187.926C194.244 187.926 196.084 186.086 196.084 183.816C196.084 181.546 194.244 179.706 191.974 179.706C189.704 179.706 187.864 181.546 187.864 183.816C187.864 186.086 189.704 187.926 191.974 187.926Z" fill="#316FDE"/>
<path d="M182.144 39.9463C184.856 39.9463 187.054 37.7481 187.054 35.0363C187.054 32.3246 184.856 30.1263 182.144 30.1263C179.432 30.1263 177.234 32.3246 177.234 35.0363C177.234 37.7481 179.432 39.9463 182.144 39.9463Z" fill="#316FDE"/>
<path d="M209.264 65.2064C211.976 65.2064 214.174 63.0081 214.174 60.2964C214.174 57.5846 211.976 55.3864 209.264 55.3864C206.552 55.3864 204.354 57.5846 204.354 60.2964C204.354 63.0081 206.552 65.2064 209.264 65.2064Z" fill="#316FDE"/>
<path d="M150.754 49.6763C153.024 49.6763 154.864 47.8362 154.864 45.5663C154.864 43.2964 153.024 41.4563 150.754 41.4563C148.484 41.4563 146.644 43.2964 146.644 45.5663C146.644 47.8362 148.484 49.6763 150.754 49.6763Z" fill="#316FDE"/>
<path d="M129.404 81.6763C131.674 81.6763 133.514 79.8362 133.514 77.5663C133.514 75.2964 131.674 73.4563 129.404 73.4563C127.134 73.4563 125.294 75.2964 125.294 77.5663C125.294 79.8362 127.134 81.6763 129.404 81.6763Z" fill="#316FDE"/>
<path d="M198.164 109.116C200.434 109.116 202.274 107.276 202.274 105.006C202.274 102.736 200.434 100.896 198.164 100.896C195.894 100.896 194.054 102.736 194.054 105.006C194.054 107.276 195.894 109.116 198.164 109.116Z" fill="#316FDE"/>
<path d="M93.0141 114.766C92.9041 114.766 92.7941 114.766 92.6841 114.766C89.7141 114.686 86.9541 113.446 84.9141 111.286C80.7041 106.826 80.9041 99.7663 85.3641 95.5563C89.8241 91.3463 96.8841 91.5463 101.094 96.0063C105.304 100.466 105.104 107.526 100.644 111.736C98.5641 113.696 95.8641 114.776 93.0141 114.776V114.766ZM93.0041 94.5163C90.7541 94.5163 88.5041 95.3363 86.7441 97.0063C83.0841 100.456 82.9141 106.246 86.3741 109.906C89.8341 113.566 95.6141 113.736 99.2741 110.276C102.934 106.826 103.104 101.036 99.6441 97.3763C97.8541 95.4763 95.4341 94.5163 93.0041 94.5163Z" fill="#316FDE"/>
<path d="M105.203 68.5354L96.1328 94.051L98.0173 94.7209L107.088 69.2053L105.203 68.5354Z" fill="#316FDE"/>
<path d="M70.0768 75.2599L68.5513 76.5532L85.8299 96.9347L87.3555 95.6414L70.0768 75.2599Z" fill="#316FDE"/>
<path d="M82.7105 103.871L51.7051 106.022L51.8435 108.018L82.849 105.866L82.7105 103.871Z" fill="#316FDE"/>
<path d="M93.0441 107.596C95.314 107.596 97.1541 105.756 97.1541 103.486C97.1541 101.216 95.314 99.3763 93.0441 99.3763C90.7742 99.3763 88.9341 101.216 88.9341 103.486C88.9341 105.756 90.7742 107.596 93.0441 107.596Z" fill="#316FDE"/>
<path d="M106.854 71.0463C109.124 71.0463 110.964 69.2062 110.964 66.9363C110.964 64.6664 109.124 62.8263 106.854 62.8263C104.584 62.8263 102.744 64.6664 102.744 66.9363C102.744 69.2062 104.584 71.0463 106.854 71.0463Z" fill="#316FDE"/>
<path d="M67.984 78.4463C70.2539 78.4463 72.094 76.6062 72.094 74.3363C72.094 72.0664 70.2539 70.2263 67.984 70.2263C65.7141 70.2263 63.874 72.0664 63.874 74.3363C63.874 76.6062 65.7141 78.4463 67.984 78.4463Z" fill="#316FDE"/>
<path d="M49.734 111.306C52.0039 111.306 53.844 109.466 53.844 107.196C53.844 104.926 52.0039 103.086 49.734 103.086C47.4641 103.086 45.624 104.926 45.624 107.196C45.624 109.466 47.4641 111.306 49.734 111.306Z" fill="#316FDE"/>
<path d="M198.614 0.46631C199.214 -0.0736897 200.124 -0.16369 200.834 0.29631C258.824 38.1263 276.954 114.566 242.114 174.326C241.604 175.196 240.484 175.496 239.614 174.986C238.744 174.476 238.444 173.356 238.954 172.486C272.814 114.416 255.184 40.1263 198.834 3.36631C197.984 2.81631 197.754 1.67631 198.304 0.83631C198.394 0.69631 198.494 0.57631 198.614 0.47631V0.46631Z" fill="#316FDE"/>
<path d="M234.624 169.556C232.714 172.836 233.824 177.046 237.104 178.956C240.384 180.866 244.594 179.756 246.504 176.476C248.414 173.196 247.304 168.986 244.024 167.076C240.744 165.166 236.534 166.276 234.624 169.556Z" fill="#316FDE"/>
<path d="M18.0438 43.2863C18.6238 42.7663 19.4838 42.6563 20.1838 43.0663C21.0538 43.5763 21.3538 44.6963 20.8438 45.5663C-13.0162 103.636 4.60382 177.926 60.9638 214.696C61.8038 215.246 62.0438 216.386 61.4938 217.226C60.9438 218.076 59.8038 218.316 58.9638 217.756C0.973824 179.926 -17.1562 103.486 17.6838 43.7263C17.7838 43.5563 17.9038 43.4063 18.0438 43.2863Z" fill="#316FDE"/>
<path d="M25.184 48.4863C27.094 45.2063 25.984 40.9963 22.704 39.0863C19.424 37.1763 15.214 38.2863 13.304 41.5663C11.394 44.8463 12.504 49.0563 15.784 50.9663C19.064 52.8763 23.274 51.7663 25.184 48.4863Z" fill="#316FDE"/>
</svg>
