<svg width="28" height="28" viewBox="0 0 28 28" fill="none" xmlns="http://www.w3.org/2000/svg">
<path fill-rule="evenodd" clip-rule="evenodd" d="M14 28C21.732 28 28 21.732 28 14C28 6.26801 21.732 0 14 0C6.26801 0 0 6.26801 0 14C0 21.732 6.26801 28 14 28ZM7.47739 21.6H10.4532V12.0336H7.47739V21.6ZM7.19999 8.93249C7.19999 9.88893 7.97572 10.666 8.93505 10.666C9.89135 10.666 10.6691 9.88893 10.6691 8.93249C10.6691 7.97706 9.89135 7.20001 8.93505 7.20001C7.97673 7.20001 7.19999 7.97605 7.19999 8.93249ZM18.6262 21.6H21.6V16.3532C21.6 13.7772 21.0432 11.7958 18.03 11.7958C16.5824 11.7958 15.612 12.5889 15.2146 13.3408H15.1742V12.0336H12.3194V21.6H15.2932V16.8672C15.2932 15.6195 15.5313 14.4111 17.0797 14.4111C18.606 14.4111 18.6262 15.8382 18.6262 16.9478V21.6Z" fill="url(#paint0_linear_409_4482)"/>
<defs>
<linearGradient id="paint0_linear_409_4482" x1="23.7947" y1="21.6364" x2="4.36572" y2="22.2206" gradientUnits="userSpaceOnUse">
<stop stop-color="#2E90FA"/>
<stop offset="1" stop-color="#3271DD"/>
</linearGradient>
</defs>
</svg>
