<svg width="285" height="190" viewBox="0 0 285 190" fill="none" xmlns="http://www.w3.org/2000/svg">
<g clip-path="url(#clip0_637_5077)">
<path d="M142.55 132.522L142.071 131.646C142.021 131.576 142.001 131.526 141.981 131.486C141.741 131.028 141.502 130.62 141.252 130.272C141.192 130.192 141.153 130.142 141.123 130.092C140.893 129.774 140.634 129.445 140.344 129.116L140.115 128.867C139.815 128.539 139.526 128.23 139.207 127.971C139.147 127.921 139.087 127.872 139.027 127.812C138.668 127.513 138.268 127.224 137.839 126.946C137.73 126.876 137.63 126.816 137.53 126.756C137.181 126.547 136.831 126.368 136.492 126.189C136.362 126.129 136.272 126.079 136.183 126.039C135.694 125.83 135.235 125.661 134.805 125.531L134.516 125.462C134.117 125.352 133.418 125.203 132.959 125.143C132.301 125.063 131.802 125.024 131.352 125.024H129.227L129.836 124.237C131.832 121.678 132.69 118.491 132.251 115.255C131.452 109.389 126.233 104.968 120.105 104.968H102.361C86.4439 104.968 73.4902 92.0425 73.4902 76.1594C73.4902 57.7668 80.6656 40.4697 93.6991 27.4644C106.733 14.4592 124.067 7.29932 142.5 7.29932C180.552 7.29932 211.509 38.1893 211.509 76.1594C211.509 92.0425 198.556 104.968 182.638 104.968H164.904C158.777 104.968 153.557 109.389 152.759 115.255C152.32 118.481 153.178 121.678 155.174 124.237L155.783 125.024H153.647C153.198 125.024 152.699 125.063 152.11 125.133C152.01 125.143 151.921 125.163 151.821 125.173L151.691 125.193C151.282 125.263 150.873 125.352 150.484 125.452L150.364 125.482C150.364 125.482 150.274 125.502 150.234 125.512C149.735 125.661 149.276 125.83 148.827 126.029L148.508 126.179C148.148 126.348 147.809 126.537 147.48 126.736L147.16 126.936C146.731 127.214 146.342 127.493 145.993 127.782L145.833 127.921C145.544 128.17 145.244 128.459 144.935 128.788C144.805 128.927 144.735 128.997 144.675 129.077C144.366 129.425 144.097 129.764 143.867 130.102L143.797 130.192C143.528 130.58 143.298 130.979 143.019 131.486L142.969 131.576L142.55 132.502V132.522Z" fill="url(#paint0_linear_637_5077)" stroke="#5672F0" stroke-width="0.5" stroke-miterlimit="10"/>
<path d="M258.933 190H177.708C171.092 190 165.453 185.22 164.585 178.877C164.146 175.7 164.874 172.563 166.621 169.944H157.639C151.152 169.944 145.654 165.483 144.566 159.339C144.147 156.939 144.386 154.529 145.264 152.309H139.736C140.664 154.629 140.883 157.148 140.384 159.618C139.167 165.603 133.688 169.944 127.371 169.944H118.389C120.126 172.544 120.844 175.66 120.435 178.817C119.597 185.2 113.958 190 107.322 190H26.067C11.6962 190 0 179.285 0 166.131V127.862C0 123.789 0 119.935 3.12364 115.265C4.68048 112.934 5.88802 111.451 8.5027 109.3L49.0701 74.0881C53.7107 70.065 60.6366 69.7264 66.1853 73.1719C66.6743 32.7421 99.7869 0 140.424 0H144.596C185.223 0 218.336 32.7421 218.825 73.1719C224.383 69.7264 231.299 70.065 235.94 74.0881L276.597 109.379C279.122 111.451 280.32 112.925 281.896 115.265C285.02 119.935 285.02 123.759 285.01 127.792V166.131C285.01 179.295 273.314 190 258.943 190H258.933ZM138.229 151.323H146.781L146.462 152.02C145.424 154.241 145.105 156.71 145.544 159.17C146.542 164.846 151.641 168.969 157.649 168.969H168.587L167.968 169.755C165.972 172.314 165.114 175.511 165.553 178.747C166.351 184.613 171.581 189.034 177.708 189.034H258.933C272.765 189.034 284.022 178.767 284.022 166.14V127.802C284.022 123.918 284.022 120.244 281.068 115.812C279.551 113.552 278.393 112.128 275.958 110.126L235.291 74.8349C230.78 70.9214 223.914 70.782 218.615 74.4864L217.847 75.0241V74.0881C217.847 33.7678 184.984 0.975891 144.586 0.975891H140.414C100.016 0.975891 67.1633 33.7678 67.1633 74.0681V75.0042L66.3949 74.4665C61.0957 70.7521 54.2296 70.8915 49.7188 74.815L9.13142 110.047C6.59658 112.128 5.43893 113.562 3.932 115.812C0.97801 120.234 0.97801 123.938 0.97801 127.862V166.131C0.97801 178.757 12.2351 189.024 26.067 189.024H107.322C113.469 189.024 118.698 184.583 119.467 178.688C119.886 175.461 119.028 172.295 117.052 169.755L116.433 168.969H127.371C133.229 168.969 138.309 164.955 139.426 159.419C139.935 156.899 139.636 154.34 138.548 152.02L138.219 151.323H138.229ZM226.1 104.958H217.847V97.7982L226.1 104.958ZM67.1733 104.958H58.9201L67.1733 97.7982V104.958Z" fill="url(#paint1_linear_637_5077)"/>
<path d="M142.5 54.3214C151.385 54.3214 158.587 47.1345 158.587 38.269C158.587 29.4035 151.385 22.2166 142.5 22.2166C133.615 22.2166 126.413 29.4035 126.413 38.269C126.413 47.1345 133.615 54.3214 142.5 54.3214Z" fill="#316FDE"/>
<path d="M153.976 94.7212H120.814V64.9665C120.814 61.7699 123.418 59.1709 126.622 59.1709L153.966 59.1709C159.595 59.1709 164.166 63.7317 164.166 69.348V84.544C164.166 90.1604 159.595 94.7212 153.966 94.7212H153.976Z" fill="#316FDE"/>
<path d="M258.943 182.701H177.569C174.834 182.701 172.459 180.859 171.91 178.319C171.541 176.616 171.95 174.884 173.028 173.549C174.106 172.215 175.712 171.448 177.419 171.448H209.254C210.162 171.448 211.02 171.06 211.629 170.383C212.228 169.706 212.507 168.809 212.398 167.913C212.318 167.276 212.278 166.688 212.278 166.131V165.812C212.278 164.069 210.861 162.655 209.114 162.655H157.479C154.755 162.655 152.37 160.813 151.811 158.284C151.432 156.581 151.841 154.838 152.909 153.504C153.987 152.159 155.593 151.393 157.31 151.393H209.104C210.851 151.393 212.268 149.979 212.268 148.236V145.746C212.268 144.004 210.851 142.59 209.104 142.59H153.817C151.092 142.59 148.707 140.757 148.148 138.228C147.769 136.525 148.178 134.783 149.246 133.448C150.324 132.104 151.931 131.337 153.647 131.337H209.094C210.841 131.337 212.258 129.923 212.258 128.18V127.862C212.258 127.334 212.298 126.746 212.378 126.069C212.547 124.635 211.759 123.301 210.402 122.743C210.062 122.604 209.673 122.534 209.204 122.534H164.775C162.04 122.534 159.665 120.692 159.116 118.153C158.747 116.45 159.156 114.707 160.224 113.383C161.302 112.048 162.908 111.282 164.615 111.282H234.433C235.401 111.282 236.289 110.923 236.858 110.286C237.457 109.619 237.756 108.782 237.706 107.926C237.656 107.089 237.257 106.283 236.628 105.735L220.521 91.7537C217.627 89.2443 217.657 84.4744 220.581 81.1185C223.505 77.7626 228.245 77.0755 231.14 79.575L271.867 114.926C273.863 116.569 274.631 117.565 275.809 119.298C277.705 122.136 277.705 124.157 277.705 127.842V165.633V166.121C277.705 175.262 269.292 182.691 258.943 182.691V182.701Z" stroke="#5672F0" stroke-width="1.13" stroke-miterlimit="10"/>
<path d="M58.0619 79.0471C56.7146 79.0471 55.4672 79.4952 54.5091 80.3218L13.8519 115.603C11.846 117.256 11.1075 118.212 10.0097 119.855C8.2832 122.434 8.2832 124.227 8.2832 127.792V166.13C8.2832 174.734 16.257 181.725 26.067 181.725H107.591C109.008 181.725 110.336 181.087 111.224 179.982C112.112 178.877 112.441 177.433 112.132 176.029C111.673 173.948 109.697 172.434 107.431 172.434H75.7559C74.5683 172.434 73.4406 171.926 72.6522 171.04C71.8638 170.154 71.4946 168.978 71.6443 167.803C71.7141 167.216 71.754 166.678 71.754 166.14V165.822C71.754 163.541 73.6103 161.689 75.8956 161.689H127.7C129.117 161.689 130.435 161.052 131.333 159.956C132.221 158.851 132.56 157.407 132.251 156.003C131.792 153.912 129.816 152.398 127.55 152.398H75.9056C73.6202 152.398 71.764 150.546 71.764 148.266V145.776C71.764 143.496 73.6202 141.644 75.9056 141.644H131.363C132.78 141.644 134.107 141.006 134.995 139.911C135.884 138.806 136.223 137.362 135.913 135.957C135.464 133.866 133.478 132.353 131.213 132.353H75.9156C73.6302 132.353 71.774 130.5 71.774 128.22V127.901C71.774 127.394 71.7341 126.846 71.6642 126.219C71.4347 124.346 72.4826 122.604 74.249 121.877C74.708 121.688 75.227 121.598 75.8258 121.598H120.395C121.812 121.598 123.139 120.961 124.028 119.855C124.916 118.75 125.245 117.306 124.936 115.892C124.477 113.811 122.501 112.297 120.235 112.297H50.4574C48.2219 112.297 46.3956 110.535 46.3058 108.284C46.2559 107.059 46.8148 105.844 47.8227 104.968L63.8401 91.0566C66.3151 88.9056 66.2452 84.7431 63.6805 81.7955C62.3033 80.2122 60.4171 79.2264 58.501 79.0969C58.3513 79.0969 58.2116 79.087 58.0719 79.087L58.0619 79.0471Z" stroke="#5672F0" stroke-width="1.13" stroke-miterlimit="10"/>
</g>
<defs>
<linearGradient id="paint0_linear_637_5077" x1="73.5002" y1="69.9057" x2="211.519" y2="69.9057" gradientUnits="userSpaceOnUse">
<stop stop-color="#020412"/>
<stop offset="1" stop-color="#3C51AF"/>
</linearGradient>
<linearGradient id="paint1_linear_637_5077" x1="0" y1="95" x2="285" y2="95" gradientUnits="userSpaceOnUse">
<stop stop-color="#020412"/>
<stop offset="1" stop-color="#3C51AF"/>
</linearGradient>
<clipPath id="clip0_637_5077">
<rect width="285" height="190" fill="white"/>
</clipPath>
</defs>
</svg>
