<svg width="161" height="143" viewBox="0 0 161 143" fill="none" xmlns="http://www.w3.org/2000/svg">
<path d="M124.705 134.936C140.304 134.936 152.95 122.27 152.95 106.645C152.95 91.0202 140.304 78.3538 124.705 78.3538C109.106 78.3538 96.46 91.0202 96.46 106.645C96.46 122.27 109.106 134.936 124.705 134.936Z" fill="url(#paint0_linear_645_6027)" stroke="#5672F0" stroke-width="0.5" stroke-miterlimit="10"/>
<path d="M36.2958 64.6464C51.895 64.6464 64.5407 51.9799 64.5407 36.3551C64.5407 20.7302 51.895 8.06372 36.2958 8.06372C20.6965 8.06372 8.05078 20.7302 8.05078 36.3551C8.05078 51.9799 20.6965 64.6464 36.2958 64.6464Z" fill="url(#paint1_linear_645_6027)" stroke="#5672F0" stroke-width="0.5" stroke-miterlimit="10"/>
<path d="M61.1216 62.0712L94.8551 87.6411" stroke="#316FDE" stroke-miterlimit="10" stroke-dasharray="2 2"/>
<path d="M134.971 117.321H114.913C113.151 117.321 111.722 118.752 111.722 120.517C111.722 122.282 113.151 123.713 114.913 123.713H134.971C136.733 123.713 138.162 122.282 138.162 120.517C138.162 118.752 136.733 117.321 134.971 117.321Z" fill="#0B0B18"/>
<path d="M124.705 142.543C144.498 142.543 160.544 126.471 160.544 106.645C160.544 86.819 144.498 70.7467 124.705 70.7467C104.911 70.7467 88.8652 86.819 88.8652 106.645C88.8652 126.471 104.911 142.543 124.705 142.543Z" stroke="#316FDE" stroke-miterlimit="10"/>
<path d="M36.2956 72.2535C56.0893 72.2535 72.1352 56.1812 72.1352 36.3551C72.1352 16.5289 56.0893 0.456665 36.2956 0.456665C16.502 0.456665 0.456055 16.5289 0.456055 36.3551C0.456055 56.1812 16.502 72.2535 36.2956 72.2535Z" stroke="#316FDE" stroke-miterlimit="10"/>
<path d="M36.9614 43.3502H50.6371C50.6371 50.866 44.4648 57.0484 36.9614 57.0484C29.458 57.0484 23.2856 50.866 23.2856 43.3502H36.9614Z" fill="#0B0B18"/>
<defs>
<linearGradient id="paint0_linear_645_6027" x1="96.46" y1="106.645" x2="152.941" y2="106.645" gradientUnits="userSpaceOnUse">
<stop stop-color="#020412"/>
<stop offset="1" stop-color="#3C51AF"/>
</linearGradient>
<linearGradient id="paint1_linear_645_6027" x1="8.0599" y1="36.3551" x2="64.5407" y2="36.3551" gradientUnits="userSpaceOnUse">
<stop stop-color="#020412"/>
<stop offset="1" stop-color="#3C51AF"/>
</linearGradient>
</defs>
</svg>
