<svg width="261" height="191" viewBox="0 0 261 191" fill="none" xmlns="http://www.w3.org/2000/svg">
<path d="M256.12 52.86H82.46C43.29 52.86 10.08 33.02 5.20996 6.72004L8.15996 6.17004C12.78 31.08 44.72 49.86 82.46 49.86H256.12V52.86Z" fill="#5672F0"/>
<path d="M249.18 45.46L255.09 51.36L249.18 57.26H254.19L260.09 51.36L254.19 45.46H249.18Z" fill="#5672F0"/>
<path d="M13.4999 6.09001C13.1299 2.37001 9.80989 -0.339985 6.08989 0.0300146C2.36989 0.400015 -0.340108 3.72001 0.0298925 7.44001C0.399893 11.16 3.71989 13.87 7.43989 13.5C11.1599 13.13 13.8699 9.81001 13.4999 6.09001Z" fill="#5672F0"/>
<path d="M8.15996 184.23L5.20996 183.68C10.09 157.37 43.3 137.54 82.46 137.54H256.12V140.54H82.46C44.72 140.54 12.77 159.32 8.15996 184.23Z" fill="#5672F0"/>
<path d="M249.18 133.13L255.09 139.03L249.18 144.93H254.19L260.09 139.03L254.19 133.13H249.18Z" fill="#5672F0"/>
<path d="M0.0298925 182.95C-0.340108 186.67 2.36989 189.99 6.08989 190.36C9.80989 190.73 13.1299 188.02 13.4999 184.3C13.8699 180.58 11.1599 177.26 7.43989 176.89C3.71989 176.52 0.399893 179.23 0.0298925 182.95Z" fill="#5672F0"/>
<path d="M44.6601 144.52H44.5901C43.8901 144.52 43.1901 144.48 42.5001 144.39L42.6201 143.4C43.2601 143.48 43.9201 143.52 44.5801 143.52L44.6501 144.52H44.6601ZM46.7501 144.38L46.6201 143.39C47.2701 143.31 47.9201 143.18 48.5501 143.01L48.8001 143.98C48.1301 144.16 47.4401 144.29 46.7501 144.38ZM40.4501 144C39.7701 143.83 39.1001 143.61 38.4601 143.35L38.8301 142.42C39.4401 142.66 40.0701 142.87 40.7001 143.03L40.4501 144ZM50.7901 143.32L50.4101 142.39C51.0201 142.14 51.6101 141.86 52.1801 141.54L52.6701 142.41C52.0701 142.75 51.4301 143.06 50.7801 143.32H50.7901ZM36.5701 142.44C35.9601 142.1 35.3701 141.72 34.8101 141.31L35.4001 140.51C35.9201 140.9 36.4801 141.26 37.0501 141.58L36.5601 142.45L36.5701 142.44ZM54.4301 141.27L53.8301 140.47C54.3501 140.08 54.8601 139.65 55.3301 139.2L56.0201 139.92C55.5201 140.4 54.9801 140.86 54.4201 141.27H54.4301ZM33.2101 139.96C32.7101 139.48 32.2301 138.96 31.7901 138.42L32.5701 137.79C32.9801 138.3 33.4301 138.78 33.9001 139.23L33.2101 139.95V139.96ZM57.4401 138.38L56.6601 137.75C57.0701 137.24 57.4501 136.7 57.8001 136.14L58.6501 136.67C58.2801 137.27 57.8801 137.84 57.4401 138.38ZM30.5701 136.73C30.2001 136.14 29.8701 135.52 29.5801 134.89L30.4901 134.47C30.7601 135.06 31.0701 135.64 31.4201 136.2L30.5701 136.73ZM59.6301 134.83L58.7201 134.42C58.9901 133.82 59.2201 133.2 59.4101 132.58L60.3701 132.87C60.1701 133.53 59.9201 134.19 59.6301 134.83ZM28.8301 132.93C28.6201 132.26 28.4601 131.58 28.3401 130.89L29.3201 130.72C29.4301 131.36 29.5901 132 29.7801 132.63L28.8201 132.93H28.8301ZM60.8501 130.83L59.8601 130.66C59.9701 130.02 60.0401 129.36 60.0701 128.7L61.0701 128.74C61.0401 129.44 60.9701 130.14 60.8501 130.82V130.83ZM28.1001 128.82C28.0901 128.56 28.0801 128.3 28.0801 128.03V126.76H29.0801V128.03C29.0801 128.28 29.0801 128.53 29.1001 128.77L28.1001 128.82ZM61.0801 126.7H60.0801V124.67H61.0801V126.7ZM29.0801 124.73H28.0801V122.7H29.0801V124.73ZM61.0801 122.63H60.0801V120.6H61.0801V122.63ZM29.0801 120.66H28.0801V118.63H29.0801V120.66ZM61.0801 118.56H60.0801V116.53H61.0801V118.56ZM29.0801 116.59H28.0801V114.56H29.0801V116.59ZM61.0801 114.49H60.0801V112.46H61.0801V114.49ZM29.0801 112.52H28.0801V110.49H29.0801V112.52ZM61.0801 110.42H60.0801V108.39H61.0801V110.42ZM29.0801 108.45H28.0801V106.42H29.0801V108.45ZM61.0801 106.35H60.0801V104.32H61.0801V106.35ZM29.0801 104.38H28.0801V102.35H29.0801V104.38ZM61.0801 102.28H60.0801V100.25H61.0801V102.28ZM29.0801 100.31H28.0801V98.2801H29.0801V100.31ZM61.0801 98.2101H60.0801V96.1801H61.0801V98.2101ZM29.0801 96.2401H28.0801V94.2101H29.0801V96.2401ZM61.0801 94.1401H60.0801V92.1101H61.0801V94.1401ZM29.0801 92.1701H28.0801V90.1401H29.0801V92.1701ZM61.0801 90.0701H60.0801V88.0401H61.0801V90.0701ZM29.0801 88.1001H28.0801V86.8001C28.0801 86.5501 28.0801 86.3001 28.1001 86.0501L29.1001 86.0901C29.1001 86.3301 29.0801 86.5601 29.0801 86.8001V88.1001ZM60.0601 86.0301C60.0301 85.3701 59.9501 84.7201 59.8401 84.0801L60.8201 83.9001C60.9401 84.5801 61.0201 85.2801 61.0501 85.9801L60.0501 86.0301H60.0601ZM29.3101 84.1401L28.3201 83.9701C28.4401 83.2801 28.6001 82.6001 28.8101 81.9301L29.7701 82.2201C29.5801 82.8401 29.4201 83.4801 29.3101 84.1301V84.1401ZM59.3801 82.1701C59.1901 81.5501 58.9501 80.9301 58.6701 80.3401L59.5801 79.9201C59.8701 80.5501 60.1201 81.2101 60.3301 81.8701L59.3701 82.1701H59.3801ZM30.4701 80.3901L29.5601 79.9801C29.8501 79.3501 30.1801 78.7301 30.5501 78.1301L31.4001 78.6601C31.0601 79.2201 30.7401 79.8001 30.4701 80.4001V80.3901ZM57.7401 78.6101C57.3901 78.0601 57.0101 77.5201 56.6001 77.0101L57.3701 76.3801C57.8101 76.9201 58.2201 77.4901 58.5901 78.0801L57.7401 78.6101ZM32.5401 77.0601L31.7601 76.4301C32.2001 75.8901 32.6801 75.3701 33.1801 74.8901L33.8701 75.6101C33.4001 76.0601 32.9501 76.5401 32.5401 77.0601ZM55.2601 75.5701C54.7801 75.1201 54.2701 74.6901 53.7501 74.3101L54.3401 73.5001C54.9001 73.9101 55.4401 74.3601 55.9501 74.8401L55.2601 75.5701ZM35.3701 74.3401L34.7801 73.5401C35.3401 73.1301 35.9301 72.7501 36.5401 72.4001L37.0301 73.2701C36.4601 73.5901 35.9001 73.9501 35.3801 74.3401H35.3701ZM52.0901 73.2401C51.5201 72.9201 50.9201 72.6401 50.3101 72.4001L50.6801 71.4701C51.3301 71.7301 51.9601 72.0301 52.5701 72.3701L52.0901 73.2501V73.2401ZM38.7901 72.4201L38.4201 71.4901C39.0601 71.2301 39.7301 71.0101 40.4101 70.8301L40.6601 71.8001C40.0301 71.9701 39.4001 72.1701 38.7901 72.4201ZM48.4401 71.7901C47.8101 71.6301 47.1601 71.5001 46.5101 71.4201L46.6301 70.4301C47.3201 70.5201 48.0101 70.6501 48.6901 70.8201L48.4401 71.7901ZM42.5801 71.4301L42.4501 70.4401C43.1401 70.3501 43.8401 70.3101 44.5401 70.3101V71.3101C43.8901 71.3101 43.2301 71.3501 42.5801 71.4401V71.4301Z" fill="#5672F0"/>
<path d="M98.03 164.52H97.97C97.28 164.52 96.59 164.48 95.92 164.39L96.04 163.4C96.67 163.48 97.32 163.52 97.96 163.52L98.02 164.52H98.03ZM100.08 164.39L99.95 163.4C100.59 163.32 101.22 163.2 101.84 163.04L102.09 164.01C101.43 164.18 100.75 164.31 100.08 164.4V164.39ZM93.9 164.02C93.24 163.85 92.58 163.64 91.94 163.39L92.31 162.46C92.91 162.7 93.52 162.89 94.15 163.05L93.9 164.02ZM104.04 163.37L103.67 162.44C104.26 162.2 104.85 161.93 105.41 161.62L105.89 162.5C105.29 162.83 104.67 163.12 104.03 163.37H104.04ZM90.08 162.53C89.48 162.2 88.89 161.84 88.34 161.44L88.92 160.63C89.44 161 89.99 161.35 90.55 161.66L90.07 162.54L90.08 162.53ZM107.62 161.4L107.03 160.59C107.55 160.21 108.05 159.8 108.52 159.36L109.2 160.09C108.7 160.55 108.17 160.99 107.62 161.39V161.4ZM86.75 160.14C86.25 159.68 85.77 159.18 85.33 158.66L86.1 158.02C86.51 158.51 86.96 158.98 87.43 159.41L86.75 160.14ZM110.62 158.61L109.85 157.97C110.26 157.48 110.65 156.95 110.99 156.42L111.83 156.96C111.46 157.53 111.05 158.09 110.61 158.61H110.62ZM84.12 157.01C83.75 156.44 83.41 155.83 83.11 155.22L84.01 154.78C84.29 155.35 84.61 155.92 84.96 156.46L84.12 157V157.01ZM112.84 155.17L111.94 154.74C112.22 154.16 112.46 153.56 112.66 152.95L113.61 153.27C113.39 153.92 113.13 154.56 112.84 155.17ZM82.33 153.33C82.11 152.68 81.93 152.02 81.79 151.35L82.77 151.15C82.9 151.78 83.07 152.4 83.27 153.01L82.32 153.33H82.33ZM114.14 151.29L113.16 151.09C113.28 150.46 113.37 149.82 113.42 149.18L114.42 149.25C114.37 149.93 114.28 150.61 114.14 151.28V151.29ZM81.51 149.32C81.48 148.9 81.46 148.47 81.46 148.03V147.29H82.46V148.03C82.46 148.44 82.48 148.84 82.51 149.24L81.51 149.32ZM114.46 147.23H113.46V145.24H114.46V147.23ZM82.46 145.3H81.46V143.31H82.46V145.3ZM114.46 143.25H113.46V141.26H114.46V143.25ZM82.46 141.32H81.46V139.33H82.46V141.32ZM114.46 139.27H113.46V137.28H114.46V139.27ZM82.46 137.34H81.46V135.35H82.46V137.34ZM114.46 135.29H113.46V133.3H114.46V135.29ZM82.46 133.36H81.46V131.37H82.46V133.36ZM114.46 131.31H113.46V129.32H114.46V131.31ZM82.46 129.38H81.46V127.39H82.46V129.38ZM114.46 127.33H113.46V125.34H114.46V127.33ZM82.46 125.4H81.46V123.41H82.46V125.4ZM114.46 123.35H113.46V121.36H114.46V123.35ZM82.46 121.42H81.46V119.43H82.46V121.42ZM114.46 119.37H113.46V117.38H114.46V119.37ZM82.46 117.44H81.46V115.45H82.46V117.44ZM114.46 115.39H113.46V113.4H114.46V115.39ZM82.46 113.46H81.46V111.47H82.46V113.46ZM114.46 111.41H113.46V109.42H114.46V111.41ZM82.46 109.48H81.46V107.49H82.46V109.48ZM114.46 107.43H113.46V105.44H114.46V107.43ZM82.46 105.5H81.46V103.51H82.46V105.5ZM114.46 103.45H113.46V101.46H114.46V103.45ZM82.46 101.52H81.46V99.5301H82.46V101.52ZM114.46 99.4701H113.46V97.4801H114.46V99.4701ZM82.46 97.5401H81.46V95.5501H82.46V97.5401ZM114.46 95.4901H113.46V93.5001H114.46V95.4901ZM82.46 93.5601H81.46V91.5701H82.46V93.5601ZM114.46 91.5101H113.46V89.5201H114.46V91.5101ZM82.46 89.5801H81.46V87.59H82.46V89.5801ZM114.46 87.5301H113.46V85.5401H114.46V87.5301ZM82.46 85.6001H81.46V83.6101H82.46V85.6001ZM114.46 83.5501H113.46V81.5601H114.46V83.5501ZM82.46 81.6201H81.46V79.6301H82.46V81.6201ZM114.46 79.5701H113.46V77.5801H114.46V79.5701ZM82.46 77.6401H81.46V75.6501H82.46V77.6401ZM114.46 75.59H113.46V73.6001H114.46V75.59ZM82.46 73.6601H81.46V71.6701H82.46V73.6601ZM114.46 71.6101H113.46V69.6201H114.46V71.6101ZM82.46 69.6801H81.46V67.6901H82.46V69.6801ZM114.46 67.6301H113.46V66.9201C113.46 66.5001 113.44 66.0901 113.41 65.6801L114.41 65.6001C114.44 66.0301 114.46 66.4701 114.46 66.9201V67.6301ZM82.5 65.7401L81.5 65.6701C81.55 65.0001 81.64 64.3101 81.78 63.6401L82.76 63.8401C82.63 64.4701 82.55 65.1201 82.5 65.7501V65.7401ZM113.14 63.7701C113.01 63.1401 112.84 62.5201 112.64 61.9101L113.59 61.5901C113.81 62.2301 113.99 62.9001 114.13 63.5701L113.15 63.7701H113.14ZM83.27 61.9701L82.32 61.6501C82.54 61.0101 82.8 60.3701 83.1 59.7501L84 60.1901C83.72 60.7701 83.48 61.3701 83.27 61.9701ZM111.9 60.1301C111.62 59.5601 111.3 58.9901 110.95 58.4601L111.79 57.9101C112.16 58.4801 112.5 59.0801 112.8 59.6901L111.9 60.1301ZM84.94 58.5001L84.1 57.9601C84.47 57.3901 84.88 56.8301 85.32 56.3101L86.09 56.9501C85.68 57.4401 85.29 57.9601 84.94 58.5001ZM109.8 56.9101C109.39 56.4201 108.94 55.9501 108.47 55.5201L109.15 54.7901C109.65 55.2501 110.13 55.7501 110.57 56.2701L109.81 56.9201L109.8 56.9101ZM87.42 55.5601L86.74 54.8301C87.24 54.3701 87.77 53.9301 88.33 53.5301L88.91 54.3401C88.39 54.7201 87.89 55.1301 87.42 55.5601ZM106.97 54.3101C106.45 53.9401 105.9 53.5901 105.34 53.2901L105.82 52.4101C106.42 52.7401 107.01 53.1001 107.56 53.5001L106.98 54.3101H106.97ZM90.54 53.3201L90.06 52.4401C90.66 52.1101 91.29 51.8201 91.92 51.5701L92.29 52.5001C91.7 52.7301 91.11 53.0101 90.55 53.3201H90.54ZM103.59 52.4801C103 52.2501 102.38 52.0501 101.75 51.8901L101.99 50.9201C102.66 51.0901 103.31 51.3001 103.95 51.5401L103.59 52.4701V52.4801ZM94.12 51.9101L93.87 50.9401C94.53 50.7701 95.2 50.6401 95.89 50.5601L96.01 51.5501C95.37 51.6301 94.73 51.7501 94.12 51.9101ZM99.86 51.5401C99.24 51.4601 98.6 51.4301 97.97 51.4301L97.94 50.4301H97.97C98.64 50.4301 99.32 50.4701 99.98 50.5501L99.86 51.5401Z" fill="#5672F0"/>
<path d="M150.66 187.44H150.57C150.57 187.44 150.57 187.44 150.56 187.44C149.91 187.44 149.24 187.4 148.57 187.32L148.69 186.33C149.32 186.41 149.96 186.45 150.59 186.45L150.65 187.45L150.66 187.44ZM152.69 187.31L152.57 186.32C153.2 186.24 153.83 186.12 154.44 185.97L154.69 186.94C154.04 187.11 153.37 187.23 152.7 187.32L152.69 187.31ZM146.58 186.95C145.93 186.78 145.27 186.58 144.65 186.34L145.01 185.41C145.6 185.64 146.21 185.83 146.83 185.99L146.59 186.96L146.58 186.95ZM156.62 186.31L156.26 185.38C156.85 185.15 157.43 184.88 157.99 184.58L158.47 185.46C157.88 185.78 157.26 186.07 156.63 186.31H156.62ZM142.81 185.48C142.22 185.16 141.64 184.8 141.08 184.41L141.66 183.59C142.18 183.96 142.72 184.3 143.28 184.59L142.81 185.47V185.48ZM160.19 184.37L159.61 183.56C160.12 183.19 160.62 182.79 161.09 182.36L161.77 183.1C161.27 183.56 160.74 183.99 160.19 184.38V184.37ZM139.51 183.13C139.01 182.68 138.54 182.19 138.1 181.68L138.86 181.03C139.27 181.51 139.72 181.97 140.19 182.4L139.52 183.14L139.51 183.13ZM163.18 181.63L162.42 180.98C162.83 180.5 163.22 179.98 163.57 179.46L164.4 180.01C164.03 180.57 163.62 181.12 163.18 181.63ZM136.87 180.06C136.49 179.5 136.15 178.91 135.85 178.31L136.74 177.86C137.02 178.42 137.34 178.98 137.7 179.51L136.87 180.06ZM165.41 178.25L164.51 177.81C164.79 177.24 165.04 176.65 165.25 176.05L166.19 176.38C165.97 177.01 165.7 177.64 165.4 178.25H165.41ZM135.06 176.44C134.84 175.81 134.65 175.15 134.5 174.49L135.48 174.28C135.62 174.9 135.79 175.52 136 176.11L135.06 176.44ZM166.75 174.42L165.77 174.21C165.9 173.59 166 172.95 166.06 172.33L167.06 172.42C167 173.09 166.9 173.76 166.76 174.42H166.75ZM134.19 172.48C134.14 171.97 134.12 171.45 134.12 170.93V170.47H135.12V170.93C135.12 171.42 135.14 171.91 135.19 172.39L134.19 172.48ZM167.12 170.4H166.12V168.43H167.12V170.4ZM135.12 168.49H134.12V166.52H135.12V168.49ZM167.12 166.46H166.12V164.49H167.12V166.46ZM135.12 164.55H134.12V162.58H135.12V164.55ZM167.12 162.52H166.12V160.55H167.12V162.52ZM135.12 160.61H134.12V158.64H135.12V160.61ZM167.12 158.58H166.12V156.61H167.12V158.58ZM135.12 156.67H134.12V154.7H135.12V156.67ZM167.12 154.64H166.12V152.67H167.12V154.64ZM135.12 152.73H134.12V150.76H135.12V152.73ZM167.12 150.7H166.12V148.73H167.12V150.7ZM135.12 148.79H134.12V146.82H135.12V148.79ZM167.12 146.76H166.12V144.79H167.12V146.76ZM135.12 144.85H134.12V142.88H135.12V144.85ZM167.12 142.82H166.12V140.85H167.12V142.82ZM135.12 140.91H134.12V138.94H135.12V140.91ZM167.12 138.88H166.12V136.91H167.12V138.88ZM135.12 136.97H134.12V135H135.12V136.97ZM167.12 134.94H166.12V132.97H167.12V134.94ZM135.12 133.03H134.12V131.06H135.12V133.03ZM167.12 131H166.12V129.03H167.12V131ZM135.12 129.09H134.12V127.12H135.12V129.09ZM167.12 127.06H166.12V125.09H167.12V127.06ZM135.12 125.15H134.12V123.18H135.12V125.15ZM167.12 123.12H166.12V121.15H167.12V123.12ZM135.12 121.21H134.12V119.24H135.12V121.21ZM167.12 119.18H166.12V117.21H167.12V119.18ZM135.12 117.27H134.12V115.3H135.12V117.27ZM167.12 115.24H166.12V113.27H167.12V115.24ZM135.12 113.33H134.12V111.36H135.12V113.33ZM167.12 111.3H166.12V109.33H167.12V111.3ZM135.12 109.39H134.12V107.42H135.12V109.39ZM167.12 107.36H166.12V105.39H167.12V107.36ZM135.12 105.45H134.12V103.48H135.12V105.45ZM167.12 103.42H166.12V101.45H167.12V103.42ZM135.12 101.51H134.12V99.54H135.12V101.51ZM167.12 99.48H166.12V97.51H167.12V99.48ZM135.12 97.57H134.12V95.6H135.12V97.57ZM167.12 95.54H166.12V93.57H167.12V95.54ZM135.12 93.63H134.12V91.66H135.12V93.63ZM167.12 91.6H166.12V89.63H167.12V91.6ZM135.12 89.69H134.12V87.72H135.12V89.69ZM167.12 87.66H166.12V85.69H167.12V87.66ZM135.12 85.75H134.12V83.78H135.12V85.75ZM167.12 83.72H166.12V81.75H167.12V83.72ZM135.12 81.81H134.12V79.84H135.12V81.81ZM167.12 79.78H166.12V77.81H167.12V79.78ZM135.12 77.87H134.12V75.9H135.12V77.87ZM167.12 75.84H166.12V73.87H167.12V75.84ZM135.12 73.93H134.12V71.96H135.12V73.93ZM167.12 71.9H166.12V69.93H167.12V71.9ZM135.12 69.99H134.12V68.02H135.12V69.99ZM167.12 67.96H166.12V65.99H167.12V67.96ZM135.12 66.05H134.12V64.08H135.12V66.05ZM167.12 64.02H166.12V62.05H167.12V64.02ZM135.12 62.11H134.12V60.14H135.12V62.11ZM167.12 60.08H166.12V58.11H167.12V60.08ZM135.12 58.17H134.12V56.2H135.12V58.17ZM167.12 56.14H166.12V54.17H167.12V56.14ZM135.12 54.23H134.12V52.26H135.12V54.23ZM167.12 52.2H166.12V50.23H167.12V52.2ZM135.12 50.29H134.12V48.32H135.12V50.29ZM167.12 48.26H166.12V46.29H167.12V48.26ZM135.12 46.35H134.12V44.38H135.12V46.35ZM167.12 44.32H166.12V43.89C166.12 43.39 166.1 42.89 166.05 42.4L167.05 42.31C167.1 42.83 167.12 43.36 167.13 43.89V44.32H167.12ZM135.19 42.46L134.19 42.37C134.25 41.7 134.36 41.03 134.5 40.37L135.48 40.58C135.35 41.2 135.25 41.83 135.19 42.46ZM165.76 40.52C165.62 39.91 165.45 39.29 165.23 38.69L166.17 38.35C166.4 38.99 166.59 39.65 166.73 40.3L165.75 40.51L165.76 40.52ZM136 38.75L135.06 38.42C135.28 37.79 135.55 37.16 135.85 36.55L136.74 37C136.46 37.57 136.21 38.16 136 38.76V38.75ZM164.48 36.94C164.19 36.38 163.87 35.82 163.52 35.29L164.35 34.74C164.73 35.3 165.07 35.89 165.37 36.49L164.48 36.94ZM137.7 35.34L136.87 34.79C137.24 34.23 137.65 33.68 138.09 33.17L138.85 33.82C138.44 34.3 138.05 34.81 137.7 35.34ZM162.37 33.78C161.96 33.3 161.51 32.84 161.04 32.41L161.71 31.67C162.21 32.13 162.69 32.61 163.13 33.12L162.37 33.77V33.78ZM140.18 32.45L139.51 31.71C140.01 31.25 140.54 30.82 141.09 30.44L141.67 31.26C141.16 31.62 140.66 32.02 140.19 32.46L140.18 32.45ZM159.55 31.22C159.03 30.85 158.49 30.52 157.93 30.22L158.4 29.34C158.99 29.66 159.58 30.02 160.13 30.41L159.55 31.23V31.22ZM143.28 30.25L142.8 29.37C143.4 29.05 144.02 28.76 144.64 28.52L145 29.45C144.41 29.68 143.83 29.95 143.27 30.25H143.28ZM156.2 29.43C155.61 29.2 155 29.01 154.38 28.86L154.62 27.89C155.28 28.05 155.93 28.26 156.56 28.5L156.2 29.43ZM146.83 28.87L146.59 27.9C147.25 27.73 147.92 27.61 148.58 27.53L148.7 28.52C148.07 28.6 147.44 28.72 146.83 28.87ZM152.51 28.51C151.9 28.44 151.27 28.4 150.64 28.4L150.61 27.53V27.4H150.64C151.33 27.4 151.99 27.44 152.64 27.52L152.52 28.51H152.51Z" fill="#5672F0"/>
<path d="M203.63 187.44H203.54C202.88 187.44 202.21 187.4 201.54 187.32L201.66 186.33C202.29 186.41 202.93 186.45 203.56 186.45L203.62 187.45L203.63 187.44ZM205.66 187.31L205.54 186.32C206.17 186.24 206.8 186.12 207.41 185.97L207.66 186.94C207.01 187.11 206.34 187.23 205.67 187.32L205.66 187.31ZM199.55 186.95C198.9 186.78 198.24 186.58 197.62 186.34L197.98 185.41C198.57 185.64 199.18 185.83 199.8 185.99L199.56 186.96L199.55 186.95ZM209.59 186.31L209.23 185.38C209.82 185.15 210.4 184.88 210.96 184.58L211.44 185.46C210.85 185.78 210.23 186.07 209.6 186.31H209.59ZM195.78 185.48C195.19 185.16 194.61 184.8 194.05 184.41L194.63 183.59C195.15 183.96 195.69 184.3 196.25 184.59L195.78 185.47V185.48ZM213.16 184.37L212.58 183.56C213.09 183.19 213.59 182.79 214.06 182.36L214.74 183.1C214.24 183.56 213.71 183.99 213.16 184.38V184.37ZM192.48 183.13C191.98 182.68 191.51 182.19 191.07 181.68L191.83 181.03C192.24 181.51 192.69 181.97 193.16 182.4L192.49 183.14L192.48 183.13ZM216.15 181.63L215.39 180.98C215.8 180.5 216.19 179.98 216.54 179.46L217.37 180.01C217 180.57 216.59 181.12 216.15 181.63ZM189.84 180.06C189.46 179.5 189.12 178.91 188.82 178.31L189.71 177.86C189.99 178.42 190.31 178.98 190.67 179.51L189.84 180.06ZM218.38 178.25L217.48 177.81C217.76 177.24 218.01 176.65 218.22 176.05L219.16 176.38C218.94 177.01 218.67 177.64 218.37 178.25H218.38ZM188.03 176.44C187.81 175.81 187.62 175.15 187.47 174.49L188.45 174.28C188.59 174.9 188.76 175.52 188.97 176.11L188.03 176.44ZM219.72 174.42L218.74 174.21C218.87 173.59 218.97 172.95 219.03 172.33L220.03 172.42C219.97 173.09 219.87 173.76 219.73 174.42H219.72ZM187.16 172.48C187.11 171.97 187.09 171.45 187.09 170.93V170.47H188.09V170.93C188.09 171.42 188.11 171.91 188.16 172.39L187.16 172.48ZM220.09 170.4H219.09V168.43H220.09V170.4ZM188.09 168.49H187.09V166.52H188.09V168.49ZM220.09 166.46H219.09V164.49H220.09V166.46ZM188.09 164.55H187.09V162.58H188.09V164.55ZM220.09 162.52H219.09V160.55H220.09V162.52ZM188.09 160.61H187.09V158.64H188.09V160.61ZM220.09 158.58H219.09V156.61H220.09V158.58ZM188.09 156.67H187.09V154.7H188.09V156.67ZM220.09 154.64H219.09V152.67H220.09V154.64ZM188.09 152.73H187.09V150.76H188.09V152.73ZM220.09 150.7H219.09V148.73H220.09V150.7ZM188.09 148.79H187.09V146.82H188.09V148.79ZM220.09 146.76H219.09V144.79H220.09V146.76ZM188.09 144.85H187.09V142.88H188.09V144.85ZM220.09 142.82H219.09V140.85H220.09V142.82ZM188.09 140.91H187.09V138.94H188.09V140.91ZM220.09 138.88H219.09V136.91H220.09V138.88ZM188.09 136.97H187.09V135H188.09V136.97ZM220.09 134.94H219.09V132.97H220.09V134.94ZM188.09 133.03H187.09V131.06H188.09V133.03ZM220.09 131H219.09V129.03H220.09V131ZM188.09 129.09H187.09V127.12H188.09V129.09ZM220.09 127.06H219.09V125.09H220.09V127.06ZM188.09 125.15H187.09V123.18H188.09V125.15ZM220.09 123.12H219.09V121.15H220.09V123.12ZM188.09 121.21H187.09V119.24H188.09V121.21ZM220.09 119.18H219.09V117.21H220.09V119.18ZM188.09 117.27H187.09V115.3H188.09V117.27ZM220.09 115.24H219.09V113.27H220.09V115.24ZM188.09 113.33H187.09V111.36H188.09V113.33ZM220.09 111.3H219.09V109.33H220.09V111.3ZM188.09 109.39H187.09V107.42H188.09V109.39ZM220.09 107.36H219.09V105.39H220.09V107.36ZM188.09 105.45H187.09V103.48H188.09V105.45ZM220.09 103.42H219.09V101.45H220.09V103.42ZM188.09 101.51H187.09V99.54H188.09V101.51ZM220.09 99.48H219.09V97.51H220.09V99.48ZM188.09 97.57H187.09V95.6H188.09V97.57ZM220.09 95.54H219.09V93.57H220.09V95.54ZM188.09 93.63H187.09V91.66H188.09V93.63ZM220.09 91.6H219.09V89.63H220.09V91.6ZM188.09 89.69H187.09V87.72H188.09V89.69ZM220.09 87.66H219.09V85.69H220.09V87.66ZM188.09 85.75H187.09V83.78H188.09V85.75ZM220.09 83.72H219.09V81.75H220.09V83.72ZM188.09 81.81H187.09V79.84H188.09V81.81ZM220.09 79.78H219.09V77.81H220.09V79.78ZM188.09 77.87H187.09V75.9H188.09V77.87ZM220.09 75.84H219.09V73.87H220.09V75.84ZM188.09 73.93H187.09V71.96H188.09V73.93ZM220.09 71.9H219.09V69.93H220.09V71.9ZM188.09 69.99H187.09V68.02H188.09V69.99ZM220.09 67.96H219.09V65.99H220.09V67.96ZM188.09 66.05H187.09V64.08H188.09V66.05ZM220.09 64.02H219.09V62.05H220.09V64.02ZM188.09 62.11H187.09V60.14H188.09V62.11ZM220.09 60.08H219.09V58.11H220.09V60.08ZM188.09 58.17H187.09V56.2H188.09V58.17ZM220.09 56.14H219.09V54.17H220.09V56.14ZM188.09 54.23H187.09V52.26H188.09V54.23ZM220.09 52.2H219.09V50.23H220.09V52.2ZM188.09 50.29H187.09V48.32H188.09V50.29ZM220.09 48.26H219.09V46.29H220.09V48.26ZM188.09 46.35H187.09V44.38H188.09V46.35ZM220.09 44.32H219.09V43.89C219.09 43.39 219.07 42.89 219.02 42.4L220.02 42.31C220.07 42.83 220.09 43.36 220.1 43.89V44.32H220.09ZM188.16 42.46L187.16 42.37C187.22 41.7 187.33 41.03 187.47 40.37L188.45 40.58C188.32 41.2 188.22 41.83 188.16 42.46ZM218.73 40.52C218.59 39.91 218.42 39.29 218.2 38.69L219.14 38.35C219.37 38.99 219.56 39.65 219.7 40.3L218.72 40.51L218.73 40.52ZM188.97 38.75L188.03 38.42C188.25 37.79 188.52 37.16 188.82 36.55L189.71 37C189.43 37.57 189.18 38.16 188.97 38.76V38.75ZM217.45 36.94C217.16 36.38 216.84 35.82 216.49 35.29L217.32 34.74C217.7 35.3 218.04 35.89 218.34 36.49L217.45 36.94ZM190.67 35.34L189.84 34.79C190.21 34.23 190.62 33.68 191.06 33.17L191.82 33.82C191.41 34.3 191.02 34.81 190.67 35.34ZM215.34 33.78C214.93 33.3 214.48 32.84 214.01 32.41L214.68 31.67C215.18 32.13 215.66 32.61 216.1 33.12L215.34 33.77V33.78ZM193.15 32.45L192.48 31.71C192.98 31.25 193.51 30.82 194.06 30.44L194.64 31.26C194.13 31.62 193.63 32.02 193.16 32.46L193.15 32.45ZM212.52 31.22C212 30.85 211.46 30.52 210.9 30.22L211.37 29.34C211.96 29.66 212.55 30.02 213.1 30.41L212.52 31.23V31.22ZM196.25 30.25L195.77 29.37C196.37 29.05 196.99 28.76 197.61 28.52L197.97 29.45C197.38 29.68 196.8 29.95 196.24 30.25H196.25ZM209.17 29.43C208.58 29.2 207.97 29.01 207.35 28.86L207.59 27.89C208.25 28.05 208.9 28.26 209.53 28.5L209.17 29.43ZM199.8 28.87L199.56 27.9C200.22 27.73 200.89 27.61 201.55 27.53L201.67 28.52C201.04 28.6 200.41 28.72 199.8 28.87ZM205.48 28.51C204.87 28.44 204.24 28.4 203.61 28.4L203.58 27.53V27.4C204.25 27.42 204.95 27.44 205.6 27.52L205.48 28.51Z" fill="#5672F0"/>
<path d="M203.53 72.5501C198.29 72.5501 194.03 68.29 194.03 63.05C194.03 57.81 198.29 53.55 203.53 53.55C208.77 53.55 213.03 57.81 213.03 63.05C213.03 68.29 208.77 72.5501 203.53 72.5501ZM203.53 56.55C199.95 56.55 197.03 59.47 197.03 63.05C197.03 66.63 199.95 69.5501 203.53 69.5501C207.11 69.5501 210.03 66.63 210.03 63.05C210.03 59.47 207.11 56.55 203.53 56.55Z" fill="#276AC4"/>
<path d="M44.5898 141.36C39.3498 141.36 35.0898 137.1 35.0898 131.86C35.0898 126.62 39.3498 122.36 44.5898 122.36C49.8298 122.36 54.0898 126.62 54.0898 131.86C54.0898 137.1 49.8298 141.36 44.5898 141.36ZM44.5898 125.36C41.0098 125.36 38.0898 128.28 38.0898 131.86C38.0898 135.44 41.0098 138.36 44.5898 138.36C48.1698 138.36 51.0898 135.44 51.0898 131.86C51.0898 128.28 48.1698 125.36 44.5898 125.36Z" fill="#276AC4"/>
<path d="M44.5898 134.86C46.2467 134.86 47.5898 133.517 47.5898 131.86C47.5898 130.203 46.2467 128.86 44.5898 128.86C42.933 128.86 41.5898 130.203 41.5898 131.86C41.5898 133.517 42.933 134.86 44.5898 134.86Z" fill="#276AC4"/>
<path d="M97.9697 117.11C92.7297 117.11 88.4697 112.85 88.4697 107.61C88.4697 102.37 92.7297 98.11 97.9697 98.11C103.21 98.11 107.47 102.37 107.47 107.61C107.47 112.85 103.21 117.11 97.9697 117.11ZM97.9697 101.11C94.3897 101.11 91.4697 104.03 91.4697 107.61C91.4697 111.19 94.3897 114.11 97.9697 114.11C101.55 114.11 104.47 111.19 104.47 107.61C104.47 104.03 101.55 101.11 97.9697 101.11Z" fill="#276AC4"/>
<path d="M97.9697 110.61C99.6266 110.61 100.97 109.267 100.97 107.61C100.97 105.953 99.6266 104.61 97.9697 104.61C96.3129 104.61 94.9697 105.953 94.9697 107.61C94.9697 109.267 96.3129 110.61 97.9697 110.61Z" fill="#276AC4"/>
<path d="M150.59 91.36C145.35 91.36 141.09 87.1 141.09 81.86C141.09 76.62 145.35 72.36 150.59 72.36C155.83 72.36 160.09 76.62 160.09 81.86C160.09 87.1 155.83 91.36 150.59 91.36ZM150.59 75.36C147.01 75.36 144.09 78.28 144.09 81.86C144.09 85.44 147.01 88.36 150.59 88.36C154.17 88.36 157.09 85.44 157.09 81.86C157.09 78.28 154.17 75.36 150.59 75.36Z" fill="#276AC4"/>
<path d="M150.47 85.23C148.81 85.23 147.47 83.89 147.47 82.23C147.47 80.57 148.81 79.23 150.47 79.23C152.13 79.23 153.47 80.57 153.47 82.23C153.47 83.89 152.13 85.23 150.47 85.23Z" fill="#276AC4"/>
<path d="M203.56 66.0501C201.9 66.0501 200.56 64.71 200.56 63.05C200.56 61.39 201.9 60.05 203.56 60.05C205.22 60.05 206.56 61.39 206.56 63.05C206.56 64.71 205.22 66.0501 203.56 66.0501Z" fill="#276AC4"/>
</svg>
