<svg width="161" height="131" viewBox="0 0 161 131" fill="none" xmlns="http://www.w3.org/2000/svg">
<path d="M195 11.7045C182.26 3.8892 163.026 0.599874 147.888 2.54825C128.802 5.00482 114.322 14.3321 104.074 28.6237C98.8669 35.8849 93.0311 43.3357 91.0319 51.9787C88.7393 61.8907 88.9224 72.7618 89.6398 82.8313C90.6744 97.3523 105.307 108.436 120.01 111.395C129.536 113.312 136.834 113.27 145.69 109.139C146.985 108.535 150.532 106.762 150.782 105.058C151.489 100.262 145.272 94.4742 141.551 91.7885C133.097 85.6884 118.327 83.3763 108.067 82.3005C97.7825 81.2221 86.5692 80.5094 76.3416 82.3337C65.7091 84.2302 54.5494 88.5445 45.1658 93.3809C26.2907 103.109 16.7077 119.594 7.9454 136.906C0.516178 151.585 0.525405 169.246 5.34436 184.578C7.06774 190.062 9.50498 195.503 11.0227 201" stroke="#765959" stroke-opacity="0.14" stroke-width="3" stroke-linecap="round"/>
</svg>
