<svg width="32" height="32" viewBox="0 0 32 32" fill="none" xmlns="http://www.w3.org/2000/svg">
<path fill-rule="evenodd" clip-rule="evenodd" d="M26.404 9.86688V9.86675C25.8753 9.74646 25.3628 9.5683 24.8765 9.33577C23.9362 8.88593 23.2037 8.15317 23.0604 8.00495C22.5755 7.69991 22.1308 7.33985 21.7359 6.9326C20.7516 5.854 20.3794 4.765 20.2448 4H16.9892V20.569V20.5916C16.9892 21.166 16.9893 21.7219 16.7873 22.2742C16.4618 23.1703 15.7596 23.979 14.8269 24.3378C13.428 24.8745 12.3341 24.8168 11.0286 23.9904C10.7052 23.7757 10.4211 23.5112 10.1876 23.2077C10.0375 23.1311 9.88445 23.0434 9.72854 22.9446C9.35393 22.6927 9.06518 22.4055 8.84374 22.1017C9.06532 22.4054 9.35425 22.6924 9.72908 22.9441C9.88499 23.0425 10.038 23.1303 10.1881 23.2072C9.58095 22.4131 9.44909 21.4947 9.45398 20.7921C9.60971 19.4982 10.1415 18.7732 11.1409 18.0311C12.5718 17.0248 14.3586 17.5937 14.3586 17.5937V13.2502C13.9288 13.1879 13.4941 13.1622 13.0596 13.1733C12.0825 13.1889 11.1175 13.3831 10.2163 13.7453C9.38272 14.0538 8.60851 14.4932 7.92545 15.0455C7.15141 15.6854 6.4991 16.4493 5.99756 17.303C5.80819 17.6161 5.09195 18.8658 5.00459 20.9018C4.95521 22.0558 5.31659 23.2473 5.4886 23.7434C5.48841 23.7446 5.48841 23.7458 5.4886 23.747C5.59549 24.0326 6.0209 25.0331 6.71489 25.8793C6.91648 26.1253 7.13262 26.3601 7.36223 26.5824L7.36427 26.5839C7.76546 26.9723 8.20347 27.3242 8.67262 27.635C10.8469 29.048 13.2631 28.9523 13.2631 28.9523C13.2978 28.9508 13.3392 28.9495 13.387 28.9481C13.9144 28.932 15.2109 28.8926 16.6707 28.2336C18.4369 27.4368 19.438 26.2537 19.438 26.2537C19.4505 26.2389 19.4677 26.2193 19.4889 26.1951C19.7237 25.9267 20.4567 25.0891 20.9459 23.8661C21.3545 22.8468 21.4885 21.6247 21.4885 21.1353V12.3464C21.5471 12.3781 22.272 12.8332 22.272 12.8332C22.272 12.8332 23.3214 13.4713 24.9541 13.8873C26.1234 14.1848 27.7035 14.2467 27.7035 14.2467V9.99053C27.4046 10.0207 26.9442 9.98795 26.404 9.86688ZM26.4034 13.2008C26.3699 13.1995 24.8118 13.1357 23.6546 12.8415C22.0219 12.4254 20.9719 11.7873 20.9719 11.7873C20.9719 11.7873 20.2476 11.3323 20.1889 11.3V11.3014C20.2514 11.3361 20.9714 11.7884 20.9714 11.7884C20.9714 11.7884 22.0213 12.427 23.654 12.8425C24.8239 13.14 26.4034 13.2019 26.4034 13.2019V13.2008ZM20.2475 4C20.3821 4.765 20.7543 5.854 21.7386 6.9326C22.1335 7.33985 22.5782 7.69991 23.0631 8.00495L23.0382 7.97843C21.2389 6.00586 21.4858 4 21.4858 4H20.2475Z" fill="url(#paint0_linear_409_4473)"/>
<defs>
<linearGradient id="paint0_linear_409_4473" x1="24.2937" y1="23.2824" x2="8.53745" y2="23.7135" gradientUnits="userSpaceOnUse">
<stop stop-color="#2E90FA"/>
<stop offset="1" stop-color="#3271DD"/>
</linearGradient>
</defs>
</svg>
