<svg width="210" height="32" viewBox="0 0 210 32" fill="none" xmlns="http://www.w3.org/2000/svg">
<g clip-path="url(#clip0_565_12431)">
<path d="M33.7867 15.9934L30.2338 19.5439L26.6841 15.9934L30.2338 12.4429L33.7867 15.9934ZM42.4 7.37206L48.4831 13.4595L52.0329 9.90904L42.4 0.274109L32.7672 9.90904L36.3169 13.4595L42.4 7.37206ZM54.5693 12.4429L51.0195 15.9934L54.5693 19.5439L58.1159 15.9934L54.5693 12.4429ZM42.4 24.6148L36.3169 18.5303L32.7672 22.0778L42.4 31.7127L52.0329 22.0778L48.4831 18.5303L42.4 24.6148ZM42.4 19.5439L45.9498 15.9934L42.4 12.4429L38.8503 15.9934L42.4 19.5439ZM79.8628 19.8848V19.8357C79.8628 17.5199 78.6345 16.362 76.6355 15.6003C77.8638 14.9092 78.9017 13.825 78.9017 11.8809V11.8317C78.9017 9.12274 76.7338 7.37206 73.2116 7.37206H65.2155V24.6148H73.4143C77.3049 24.6148 79.8689 23.0391 79.8689 19.8848H79.8628ZM75.1339 12.5136C75.1339 13.7943 74.0745 14.338 72.401 14.338H68.9095V10.6984H72.6528C74.2526 10.6984 75.1401 11.3372 75.1401 12.4706L75.1339 12.5136ZM76.0951 19.4119C76.0951 20.6926 75.0848 21.2823 73.4081 21.2823H68.9095V17.4953H73.2915C75.2383 17.4953 76.1012 18.211 76.1012 19.3689L76.0951 19.4119ZM87.8316 24.6148V7.37206H84.027V24.6148H87.8316ZM108.218 24.6148V7.37206H104.463V17.9898L96.3863 7.37206H92.8887V24.6148H96.6322V13.653L104.978 24.6148H108.218ZM129.224 24.6148L121.824 7.24922H118.326L110.942 24.6148H114.808L116.389 20.7479H123.679L125.254 24.6148H129.224ZM122.331 17.397H117.737L120.028 11.8071L122.331 17.397ZM147.302 24.6148V7.37206H143.546V17.9898L135.467 7.37206H131.973V24.6148H135.713V13.653L144.062 24.6148H147.302ZM166.878 21.8321L164.467 19.3934C163.113 20.622 161.907 21.4113 159.935 21.4113C156.981 21.4113 154.936 18.9542 154.936 15.9934V15.9442C154.936 12.9896 157.03 10.5755 159.935 10.5755C161.658 10.5755 163.006 11.3126 164.345 12.5197L166.749 9.73703C165.149 8.16139 163.205 7.07721 159.953 7.07721C154.659 7.07721 150.965 11.0915 150.965 15.9842V16.0333C150.965 20.9844 154.733 24.9004 159.806 24.9004C163.125 24.9096 165.094 23.7271 166.865 21.8321H166.878ZM183.06 24.6148V21.2363H173.689V17.609H181.817V14.2304H173.689V10.7475H182.925V7.36897H169.921V24.6117L183.06 24.6148Z" fill="white" fill-opacity="0.6"/>
</g>
<defs>
<clipPath id="clip0_565_12431">
<rect width="156.632" height="32" fill="white" transform="translate(26.6841)"/>
</clipPath>
</defs>
</svg>
