<svg width="100" height="99" viewBox="0 0 100 99" fill="none" xmlns="http://www.w3.org/2000/svg">
<path d="M50 5.42C74.16 5.42 93.81 25.07 93.81 49.23C93.81 73.39 74.16 93.04 50 93.04C25.84 93.04 6.19002 73.39 6.19002 49.23C6.19002 25.07 25.84 5.42 50 5.42ZM50 0C22.81 0 0.77002 22.04 0.77002 49.23C0.77002 76.42 22.81 98.46 50 98.46C77.19 98.46 99.23 76.42 99.23 49.23C99.23 22.04 77.19 0 50 0Z" fill="#276AC4"/>
<path d="M80.6 24.35C80.6 24.35 80.5899 24.34 80.5799 24.33C80.5099 24.24 80.44 24.16 80.38 24.08C79.67 23.22 78.92 22.4 78.14 21.6C69.79 13.59 56.57 12.64 47.1 19.89C39.58 25.65 36.3 35.07 38.29 44C39.35 42.37 40.5799 40.84 41.9799 39.45C52.9599 28.47 70.84 28.47 81.82 39.45C85.53 43.16 88.08 47.73 89.28 52.71C89.38 51.56 89.4399 50.4 89.4399 49.22C89.4399 39.8 86.1199 31.14 80.59 24.35H80.6Z" fill="#276AC4"/>
<path d="M78.7899 42.49C74.1399 37.84 68.0199 35.51 61.9099 35.51C55.7999 35.51 49.6799 37.84 45.0299 42.49C42.7799 44.74 41.0399 47.35 39.8399 50.27C39.8199 50.32 39.7899 50.36 39.7699 50.4C39.7299 50.47 39.6999 50.55 39.6499 50.62C39.6099 50.68 39.5699 50.73 39.5299 50.78C39.4899 50.84 39.4399 50.89 39.3899 50.95C39.3399 51 39.2799 51.05 39.2299 51.09C39.1799 51.13 39.1299 51.18 39.0799 51.22C39.0099 51.27 38.9399 51.3 38.8599 51.34C38.8199 51.36 38.7799 51.39 38.7299 51.41C38.7199 51.41 38.7099 51.41 38.6999 51.42C38.6799 51.42 38.6699 51.43 38.6499 51.44C38.5299 51.49 38.4099 51.53 38.2899 51.55C38.1599 51.58 38.0299 51.59 37.8899 51.59C37.8899 51.59 37.8799 51.59 37.8699 51.59C37.8699 51.59 37.8699 51.59 37.8599 51.59C37.7399 51.59 37.6199 51.58 37.4999 51.56C37.4699 51.56 37.4299 51.55 37.3999 51.54C37.2999 51.52 37.1999 51.49 37.0999 51.45C37.0799 51.45 37.0599 51.45 37.0399 51.43C37.0399 51.43 37.0199 51.43 37.0099 51.42C36.8899 51.37 36.7799 51.31 36.6699 51.24C36.6499 51.22 36.6299 51.21 36.5999 51.19C36.5199 51.13 36.4399 51.07 36.3699 51C36.3399 50.97 36.3199 50.95 36.2899 50.92C36.2199 50.85 36.1599 50.77 36.0999 50.68C36.0899 50.66 36.0699 50.64 36.0599 50.62C35.9999 50.53 35.9399 50.43 35.8899 50.32C35.8899 50.31 35.8799 50.29 35.8699 50.28C35.8699 50.28 35.8699 50.28 35.8699 50.27C30.5599 38.33 34.0999 24.44 44.4999 16.48C48.7599 13.21 53.7599 11.28 58.9799 10.8C55.3799 9.96 51.5999 9.61 47.6999 9.84C27.7299 10.99 11.6399 27.17 10.5999 47.13C9.41993 69.83 27.5499 88.68 49.9999 88.68C61.8999 88.68 72.5799 83.39 79.8199 75.03C81.4499 73.15 82.8799 71.09 83.8599 68.8C85.1299 65.86 85.7899 62.67 85.7899 59.37C85.7899 52.99 83.3099 47 78.7999 42.49H78.7899ZM80.5599 62.91C79.8999 66.43 78.0999 69.61 75.7099 72.28C69.1799 79.54 59.8199 83.78 49.9899 83.78C30.9399 83.78 15.4399 68.28 15.4399 49.22C15.4399 35 24.0799 22.75 36.3899 17.46C28.3099 26.95 26.1599 40.34 31.3399 52.13L31.4299 52.36L31.5099 52.51C31.6399 52.77 31.7799 53.02 31.9299 53.27L32.0499 53.45C32.9899 54.86 34.3799 55.76 35.9199 56.19C38.3999 56.87 41.1199 56.16 42.9399 54.34C43.0999 54.18 43.2499 54 43.3699 53.81C43.4899 53.66 43.6199 53.49 43.7399 53.31L43.7699 53.26C43.9199 53.03 44.0299 52.81 44.0999 52.67C44.1599 52.56 44.2299 52.42 44.3099 52.25C44.9699 50.75 45.7199 49.29 46.7099 47.98C50.3899 43.12 55.9299 40.4 61.9099 40.4C66.9899 40.4 71.7499 42.37 75.3299 45.95C78.9199 49.53 80.8899 54.3 80.8899 59.37C80.8899 60.57 80.7799 61.75 80.5599 62.91Z" fill="#276AC4"/>
</svg>
