<svg width="233" height="135" viewBox="0 0 233 135" fill="none" xmlns="http://www.w3.org/2000/svg">
<path d="M63.8726 63.3984C56.0122 63.3984 49.6402 57.0766 49.6402 49.2782C49.6402 41.4799 56.0122 35.1581 63.8726 35.1581C71.7329 35.1581 78.105 41.4799 78.105 49.2782C78.105 57.0766 71.7329 63.3984 63.8726 63.3984Z" fill="url(#paint0_linear_645_6621)" stroke="#5672F0" stroke-width="0.5" stroke-miterlimit="10"/>
<path d="M54.7931 98.9588H83.0601V73.3875C83.0601 70.2377 80.4787 67.6767 77.3039 67.6767H54.7931C49.2149 67.6767 44.6851 72.1708 44.6851 77.705V88.9403C44.6851 94.4745 49.2149 98.9686 54.7931 98.9686V98.9588Z" fill="url(#paint1_linear_645_6621)" stroke="#5672F0" stroke-width="0.5" stroke-miterlimit="10"/>
<path d="M167.149 64.2816C159.289 64.2816 152.917 57.9598 152.917 50.1614C152.917 42.3631 159.289 36.0413 167.149 36.0413C175.01 36.0413 181.382 42.3631 181.382 50.1614C181.382 57.9598 175.01 64.2816 167.149 64.2816Z" fill="url(#paint2_linear_645_6621)" stroke="#5672F0" stroke-width="0.5" stroke-miterlimit="10"/>
<path d="M147.962 99.8419H176.229C181.807 99.8419 186.337 95.3478 186.337 89.8136V78.5783C186.337 73.0441 181.807 68.5499 176.229 68.5499H153.718C150.543 68.5499 147.962 71.111 147.962 74.2608V99.8321V99.8419Z" fill="url(#paint3_linear_645_6621)" stroke="#5672F0" stroke-width="0.5" stroke-miterlimit="10"/>
<path d="M165.458 135C146.755 135 128.774 127.229 116.025 113.668C103.197 126.797 85.9978 134.019 67.5421 134.019C30.2946 134.019 0 103.953 0 67.0094C0 30.0654 30.2946 0 67.5421 0C86.245 0 104.226 7.77148 116.975 21.3323C129.803 8.20323 147.002 0.981247 165.458 0.981247C202.705 0.981247 233 31.0369 233 67.9906C233 104.944 202.705 135 165.458 135V135ZM116.045 112.235L116.401 112.618C128.982 126.218 146.864 134.019 165.458 134.019C202.152 134.019 232.011 104.395 232.011 67.9906C232.011 31.5864 202.152 1.96249 165.458 1.96249C147.101 1.96249 130.001 9.21391 117.321 22.3921L116.955 22.7747L116.599 22.3921C104.018 8.78216 86.1362 0.981247 67.5421 0.981247C30.8484 0.981247 0.989048 30.6051 0.989048 67.0094C0.989048 103.414 30.8484 133.038 67.5421 133.038C85.8988 133.038 102.999 125.786 115.679 112.608L116.045 112.225V112.235Z" fill="#316FDE"/>
<path d="M165.923 124.393C149.969 124.393 135.114 118.093 124.086 106.642L123.977 106.456L110.961 67.8631L100.121 100.107L100.042 100.185C90.8144 109.772 78.382 115.051 65.02 115.051C38.3157 115.051 16.5962 93.5031 16.5962 67.0094C16.5962 40.5157 38.3256 18.9675 65.0299 18.9675C78.5601 18.9675 91.5661 24.6391 100.725 34.5399L100.833 34.7165L110.971 64.7721L123.225 28.309L123.295 28.2305C134.234 16.4163 149.772 9.63586 165.933 9.63586C197.829 9.63586 223.772 35.374 223.772 67.0192C223.772 98.6644 197.829 124.403 165.933 124.403L165.923 124.393ZM124.877 106.043C135.697 117.249 150.276 123.411 165.923 123.411C197.276 123.411 222.773 98.1051 222.773 67.0094C222.773 35.9137 197.266 10.6073 165.923 10.6073C150.068 10.6073 134.827 17.2405 124.086 28.8094L111.485 66.3127L124.877 106.043ZM65.0299 19.9488C38.8696 19.9488 17.5951 41.0652 17.5951 67.0094C17.5951 92.9536 38.8696 114.07 65.0299 114.07C78.0754 114.07 90.2308 108.928 99.2609 99.5868L110.437 66.3127L99.9235 35.1189C90.9627 25.4732 78.2436 19.939 65.0299 19.939V19.9488Z" fill="#316FDE"/>
<path d="M66.2663 124.393C34.3695 124.393 8.42676 98.6545 8.42676 67.0093C8.42676 35.3641 34.3695 9.62598 66.2663 9.62598C82.4274 9.62598 97.9653 16.4064 108.904 28.2206L109.013 28.3972L121.238 64.7623L131.405 34.6085L131.474 34.53C140.633 24.6391 153.639 18.9576 167.169 18.9576C193.873 18.9576 215.593 40.5058 215.593 66.9995C215.593 93.4932 193.873 115.041 167.169 115.041C153.807 115.041 141.375 109.762 132.147 100.175L132.038 99.989L121.238 67.8532L108.192 106.554L108.113 106.632C97.0949 118.083 82.2394 124.383 66.2762 124.383L66.2663 124.393ZM66.2663 10.6072C34.9135 10.6072 9.41581 35.9136 9.41581 67.0093C9.41581 98.105 34.9234 123.411 66.2663 123.411C81.913 123.411 96.4817 117.249 107.312 106.043L120.704 66.3126L108.103 28.8094C97.362 17.2405 82.1207 10.6072 66.2663 10.6072V10.6072ZM132.928 99.5965C141.958 108.938 154.114 114.08 167.159 114.08C193.319 114.08 214.594 92.9731 214.594 67.0191C214.594 41.0651 193.319 19.9585 167.159 19.9585C153.936 19.9585 141.226 25.4927 132.265 35.1384L121.752 66.3323L132.928 99.6064V99.5965Z" fill="#316FDE"/>
<defs>
<linearGradient id="paint0_linear_645_6621" x1="78.105" y1="49.2782" x2="49.6303" y2="49.2782" gradientUnits="userSpaceOnUse">
<stop stop-color="#020412"/>
<stop offset="1" stop-color="#3C51AF"/>
</linearGradient>
<linearGradient id="paint1_linear_645_6621" x1="83.0601" y1="83.3177" x2="44.6851" y2="83.3177" gradientUnits="userSpaceOnUse">
<stop stop-color="#020412"/>
<stop offset="1" stop-color="#3C51AF"/>
</linearGradient>
<linearGradient id="paint2_linear_645_6621" x1="181.382" y1="50.1614" x2="152.917" y2="50.1614" gradientUnits="userSpaceOnUse">
<stop stop-color="#020412"/>
<stop offset="1" stop-color="#3C51AF"/>
</linearGradient>
<linearGradient id="paint3_linear_645_6621" x1="186.337" y1="84.191" x2="147.962" y2="84.191" gradientUnits="userSpaceOnUse">
<stop stop-color="#020412"/>
<stop offset="1" stop-color="#3C51AF"/>
</linearGradient>
</defs>
</svg>
